<?xml version="1.0" encoding="utf-8" standalone="no"?>
<!DOCTYPE svg PUBLIC "-//W3C//DTD SVG 1.1//EN"
  "http://www.w3.org/Graphics/SVG/1.1/DTD/svg11.dtd">
<!-- Created with matplotlib (https://matplotlib.org/) -->
<svg height="246.721562pt" version="1.1" viewBox="0 0 388.266 246.721562" width="388.266pt" xmlns="http://www.w3.org/2000/svg" xmlns:xlink="http://www.w3.org/1999/xlink">
 <defs>
  <style type="text/css">
*{stroke-linecap:butt;stroke-linejoin:round;}
  </style>
 </defs>
 <g id="figure_1">
  <g id="patch_1">
   <path d="M 0 246.721562 
L 388.266 246.721562 
L 388.266 0 
L 0 0 
z
" style="fill:#ffffff;"/>
  </g>
  <g id="axes_1">
   <g id="patch_2">
    <path d="M 38.89 210.878437 
L 315.37 210.878437 
L 315.37 20.798437 
L 38.89 20.798437 
z
" style="fill:#ffffff;"/>
   </g>
   <g id="PathCollection_1">
    <path clip-path="url(#p23a26e21ef)" d="M 38.89 212.458751 
C 43.186781 212.458751 47.308156 210.751621 50.346439 207.713338 
C 53.384722 204.675055 55.091852 200.55368 55.091852 196.256899 
C 55.091852 191.960118 53.384722 187.838743 50.346439 184.80046 
C 47.308156 181.762177 43.186781 180.055047 38.89 180.055047 
C 34.593219 180.055047 30.471844 181.762177 27.433561 184.80046 
C 24.395278 187.838743 22.688148 191.960118 22.688148 196.256899 
C 22.688148 200.55368 24.395278 204.675055 27.433561 207.713338 
C 30.471844 210.751621 34.593219 212.458751 38.89 212.458751 
z
" style="fill:#1f77b4;fill-opacity:0.3;stroke:#1f77b4;stroke-opacity:0.3;"/>
    <path clip-path="url(#p23a26e21ef)" d="M 38.89 187.874889 
C 40.544742 187.874889 42.131934 187.217453 43.302013 186.047374 
C 44.472093 184.877294 45.129529 183.290103 45.129529 181.635361 
C 45.129529 179.980618 44.472093 178.393427 43.302013 177.223348 
C 42.131934 176.053268 40.544742 175.395832 38.89 175.395832 
C 37.235258 175.395832 35.648066 176.053268 34.477987 177.223348 
C 33.307907 178.393427 32.650471 179.980618 32.650471 181.635361 
C 32.650471 183.290103 33.307907 184.877294 34.477987 186.047374 
C 35.648066 187.217453 37.235258 187.874889 38.89 187.874889 
z
" style="fill:#1f77b4;fill-opacity:0.3;stroke:#1f77b4;stroke-opacity:0.3;"/>
    <path clip-path="url(#p23a26e21ef)" d="M 38.89 171.057907 
C 39.962504 171.057907 40.991225 170.631797 41.7496 169.873422 
C 42.507975 169.115047 42.934085 168.086326 42.934085 167.013822 
C 42.934085 165.941318 42.507975 164.912597 41.7496 164.154222 
C 40.991225 163.395847 39.962504 162.969737 38.89 162.969737 
C 37.817496 162.969737 36.788775 163.395847 36.0304 164.154222 
C 35.272025 164.912597 34.845915 165.941318 34.845915 167.013822 
C 34.845915 168.086326 35.272025 169.115047 36.0304 169.873422 
C 36.788775 170.631797 37.817496 171.057907 38.89 171.057907 
z
" style="fill:#1f77b4;fill-opacity:0.3;stroke:#1f77b4;stroke-opacity:0.3;"/>
    <path clip-path="url(#p23a26e21ef)" d="M 38.89 156.154196 
C 39.887671 156.154196 40.844614 155.757817 41.550074 155.052357 
C 42.255533 154.346897 42.651912 153.389954 42.651912 152.392284 
C 42.651912 151.394613 42.255533 150.43767 41.550074 149.73221 
C 40.844614 149.02675 39.887671 148.630372 38.89 148.630372 
C 37.892329 148.630372 36.935386 149.02675 36.229926 149.73221 
C 35.524467 150.43767 35.128088 151.394613 35.128088 152.392284 
C 35.128088 153.389954 35.524467 154.346897 36.229926 155.052357 
C 36.935386 155.757817 37.892329 156.154196 38.89 156.154196 
z
" style="fill:#1f77b4;fill-opacity:0.3;stroke:#1f77b4;stroke-opacity:0.3;"/>
    <path clip-path="url(#p23a26e21ef)" d="M 38.89 141.532657 
C 39.887671 141.532657 40.844614 141.136278 41.550074 140.430819 
C 42.255533 139.725359 42.651912 138.768416 42.651912 137.770745 
C 42.651912 136.773074 42.255533 135.816131 41.550074 135.110672 
C 40.844614 134.405212 39.887671 134.008833 38.89 134.008833 
C 37.892329 134.008833 36.935386 134.405212 36.229926 135.110672 
C 35.524467 135.816131 35.128088 136.773074 35.128088 137.770745 
C 35.128088 138.768416 35.524467 139.725359 36.229926 140.430819 
C 36.935386 141.136278 37.892329 141.532657 38.89 141.532657 
z
" style="fill:#1f77b4;fill-opacity:0.3;stroke:#1f77b4;stroke-opacity:0.3;"/>
    <path clip-path="url(#p23a26e21ef)" d="M 38.89 126.684741 
C 39.827635 126.684741 40.726992 126.312214 41.39 125.649207 
C 42.053008 124.986199 42.425534 124.086841 42.425534 123.149207 
C 42.425534 122.211572 42.053008 121.312214 41.39 120.649207 
C 40.726992 119.986199 39.827635 119.613673 38.89 119.613673 
C 37.952365 119.613673 37.053008 119.986199 36.39 120.649207 
C 35.726992 121.312214 35.354466 122.211572 35.354466 123.149207 
C 35.354466 124.086841 35.726992 124.986199 36.39 125.649207 
C 37.053008 126.312214 37.952365 126.684741 38.89 126.684741 
z
" style="fill:#1f77b4;fill-opacity:0.3;stroke:#1f77b4;stroke-opacity:0.3;"/>
    <path clip-path="url(#p23a26e21ef)" d="M 38.89 38.95551 
C 39.827635 38.95551 40.726992 38.582984 41.39 37.919976 
C 42.053008 37.256968 42.425534 36.357611 42.425534 35.419976 
C 42.425534 34.482341 42.053008 33.582984 41.39 32.919976 
C 40.726992 32.256968 39.827635 31.884442 38.89 31.884442 
C 37.952365 31.884442 37.053008 32.256968 36.39 32.919976 
C 35.726992 33.582984 35.354466 34.482341 35.354466 35.419976 
C 35.354466 36.357611 35.726992 37.256968 36.39 37.919976 
C 37.053008 38.582984 37.952365 38.95551 38.89 38.95551 
z
" style="fill:#1f77b4;fill-opacity:0.3;stroke:#1f77b4;stroke-opacity:0.3;"/>
    <path clip-path="url(#p23a26e21ef)" d="M 60.157692 222.698025 
C 63.292283 222.698025 66.298912 221.452638 68.515403 219.236148 
C 70.731893 217.019657 71.97728 214.013029 71.97728 210.878437 
C 71.97728 207.743846 70.731893 204.737218 68.515403 202.520727 
C 66.298912 200.304237 63.292283 199.05885 60.157692 199.05885 
C 57.023101 199.05885 54.016473 200.304237 51.799982 202.520727 
C 49.583491 204.737218 48.338105 207.743846 48.338105 210.878437 
C 48.338105 214.013029 49.583491 217.019657 51.799982 219.236148 
C 54.016473 221.452638 57.023101 222.698025 60.157692 222.698025 
z
" style="fill:#1f77b4;fill-opacity:0.3;stroke:#1f77b4;stroke-opacity:0.3;"/>
    <path clip-path="url(#p23a26e21ef)" d="M 60.157692 200.091302 
C 61.174588 200.091302 62.149971 199.687285 62.869024 198.968231 
C 63.588078 198.249177 63.992095 197.273794 63.992095 196.256899 
C 63.992095 195.240004 63.588078 194.264621 62.869024 193.545567 
C 62.149971 192.826513 61.174588 192.422496 60.157692 192.422496 
C 59.140797 192.422496 58.165414 192.826513 57.44636 193.545567 
C 56.727307 194.264621 56.32329 195.240004 56.32329 196.256899 
C 56.32329 197.273794 56.727307 198.249177 57.44636 198.968231 
C 58.165414 199.687285 59.140797 200.091302 60.157692 200.091302 
z
" style="fill:#1f77b4;fill-opacity:0.3;stroke:#1f77b4;stroke-opacity:0.3;"/>
    <path clip-path="url(#p23a26e21ef)" d="M 60.157692 185.24793 
C 61.115757 185.24793 62.034711 184.867287 62.712165 184.189833 
C 63.389619 183.512379 63.770262 182.593425 63.770262 181.635361 
C 63.770262 180.677296 63.389619 179.758342 62.712165 179.080888 
C 62.034711 178.403434 61.115757 178.022791 60.157692 178.022791 
C 59.199628 178.022791 58.280674 178.403434 57.60322 179.080888 
C 56.925766 179.758342 56.545122 180.677296 56.545122 181.635361 
C 56.545122 182.593425 56.925766 183.512379 57.60322 184.189833 
C 58.280674 184.867287 59.199628 185.24793 60.157692 185.24793 
z
" style="fill:#1f77b4;fill-opacity:0.3;stroke:#1f77b4;stroke-opacity:0.3;"/>
    <path clip-path="url(#p23a26e21ef)" d="M 60.157692 170.549356 
C 61.095327 170.549356 61.994685 170.17683 62.657692 169.513822 
C 63.3207 168.850814 63.693226 167.951457 63.693226 167.013822 
C 63.693226 166.076188 63.3207 165.17683 62.657692 164.513822 
C 61.994685 163.850814 61.095327 163.478288 60.157692 163.478288 
C 59.220058 163.478288 58.3207 163.850814 57.657692 164.513822 
C 56.994685 165.17683 56.622158 166.076188 56.622158 167.013822 
C 56.622158 167.951457 56.994685 168.850814 57.657692 169.513822 
C 58.3207 170.17683 59.220058 170.549356 60.157692 170.549356 
z
" style="fill:#1f77b4;fill-opacity:0.3;stroke:#1f77b4;stroke-opacity:0.3;"/>
    <path clip-path="url(#p23a26e21ef)" d="M 81.425385 214.783985 
C 82.461148 214.783985 83.454629 214.372472 84.187024 213.640077 
C 84.919419 212.907682 85.330932 211.914201 85.330932 210.878437 
C 85.330932 209.842674 84.919419 208.849193 84.187024 208.116798 
C 83.454629 207.384403 82.461148 206.97289 81.425385 206.97289 
C 80.389621 206.97289 79.396141 207.384403 78.663745 208.116798 
C 77.93135 208.849193 77.519837 209.842674 77.519837 210.878437 
C 77.519837 211.914201 77.93135 212.907682 78.663745 213.640077 
C 79.396141 214.372472 80.389621 214.783985 81.425385 214.783985 
z
" style="fill:#1f77b4;fill-opacity:0.3;stroke:#1f77b4;stroke-opacity:0.3;"/>
    <path clip-path="url(#p23a26e21ef)" d="M 81.425385 199.792433 
C 82.363019 199.792433 83.262377 199.419907 83.925385 198.756899 
C 84.588392 198.093891 84.960919 197.194534 84.960919 196.256899 
C 84.960919 195.319264 84.588392 194.419907 83.925385 193.756899 
C 83.262377 193.093891 82.363019 192.721365 81.425385 192.721365 
C 80.48775 192.721365 79.588392 193.093891 78.925385 193.756899 
C 78.262377 194.419907 77.889851 195.319264 77.889851 196.256899 
C 77.889851 197.194534 78.262377 198.093891 78.925385 198.756899 
C 79.588392 199.419907 80.48775 199.792433 81.425385 199.792433 
z
" style="fill:#1f77b4;fill-opacity:0.3;stroke:#1f77b4;stroke-opacity:0.3;"/>
    <path clip-path="url(#p23a26e21ef)" d="M 81.425385 141.306279 
C 82.363019 141.306279 83.262377 140.933753 83.925385 140.270745 
C 84.588392 139.607737 84.960919 138.70838 84.960919 137.770745 
C 84.960919 136.833111 84.588392 135.933753 83.925385 135.270745 
C 83.262377 134.607737 82.363019 134.235211 81.425385 134.235211 
C 80.48775 134.235211 79.588392 134.607737 78.925385 135.270745 
C 78.262377 135.933753 77.889851 136.833111 77.889851 137.770745 
C 77.889851 138.70838 78.262377 139.607737 78.925385 140.270745 
C 79.588392 140.933753 80.48775 141.306279 81.425385 141.306279 
z
" style="fill:#1f77b4;fill-opacity:0.3;stroke:#1f77b4;stroke-opacity:0.3;"/>
    <path clip-path="url(#p23a26e21ef)" d="M 102.693077 214.413971 
C 103.630711 214.413971 104.530069 214.041445 105.193077 213.378437 
C 105.856085 212.71543 106.228611 211.816072 106.228611 210.878437 
C 106.228611 209.940803 105.856085 209.041445 105.193077 208.378437 
C 104.530069 207.71543 103.630711 207.342904 102.693077 207.342904 
C 101.755442 207.342904 100.856085 207.71543 100.193077 208.378437 
C 99.530069 209.041445 99.157543 209.940803 99.157543 210.878437 
C 99.157543 211.816072 99.530069 212.71543 100.193077 213.378437 
C 100.856085 214.041445 101.755442 214.413971 102.693077 214.413971 
z
" style="fill:#1f77b4;fill-opacity:0.3;stroke:#1f77b4;stroke-opacity:0.3;"/>
   </g>
   <g id="matplotlib.axis_1">
    <g id="xtick_1">
     <g id="line2d_1">
      <defs>
       <path d="M 0 0 
L 0 3.5 
" id="m39158b6cec" style="stroke:#000000;stroke-width:0.8;"/>
      </defs>
      <g>
       <use style="stroke:#000000;stroke-width:0.8;" x="38.89" xlink:href="#m39158b6cec" y="210.878437"/>
      </g>
     </g>
     <g id="text_1">
      <!-- 0 -->
      <defs>
       <path d="M 31.78125 66.40625 
Q 24.171875 66.40625 20.328125 58.90625 
Q 16.5 51.421875 16.5 36.375 
Q 16.5 21.390625 20.328125 13.890625 
Q 24.171875 6.390625 31.78125 6.390625 
Q 39.453125 6.390625 43.28125 13.890625 
Q 47.125 21.390625 47.125 36.375 
Q 47.125 51.421875 43.28125 58.90625 
Q 39.453125 66.40625 31.78125 66.40625 
z
M 31.78125 74.21875 
Q 44.046875 74.21875 50.515625 64.515625 
Q 56.984375 54.828125 56.984375 36.375 
Q 56.984375 17.96875 50.515625 8.265625 
Q 44.046875 -1.421875 31.78125 -1.421875 
Q 19.53125 -1.421875 13.0625 8.265625 
Q 6.59375 17.96875 6.59375 36.375 
Q 6.59375 54.828125 13.0625 64.515625 
Q 19.53125 74.21875 31.78125 74.21875 
z
" id="DejaVuSans-48"/>
      </defs>
      <g transform="translate(35.70875 225.476875)scale(0.1 -0.1)">
       <use xlink:href="#DejaVuSans-48"/>
      </g>
     </g>
    </g>
    <g id="xtick_2">
     <g id="line2d_2">
      <g>
       <use style="stroke:#000000;stroke-width:0.8;" x="81.425385" xlink:href="#m39158b6cec" y="210.878437"/>
      </g>
     </g>
     <g id="text_2">
      <!-- 2 -->
      <defs>
       <path d="M 19.1875 8.296875 
L 53.609375 8.296875 
L 53.609375 0 
L 7.328125 0 
L 7.328125 8.296875 
Q 12.9375 14.109375 22.625 23.890625 
Q 32.328125 33.6875 34.8125 36.53125 
Q 39.546875 41.84375 41.421875 45.53125 
Q 43.3125 49.21875 43.3125 52.78125 
Q 43.3125 58.59375 39.234375 62.25 
Q 35.15625 65.921875 28.609375 65.921875 
Q 23.96875 65.921875 18.8125 64.3125 
Q 13.671875 62.703125 7.8125 59.421875 
L 7.8125 69.390625 
Q 13.765625 71.78125 18.9375 73 
Q 24.125 74.21875 28.421875 74.21875 
Q 39.75 74.21875 46.484375 68.546875 
Q 53.21875 62.890625 53.21875 53.421875 
Q 53.21875 48.921875 51.53125 44.890625 
Q 49.859375 40.875 45.40625 35.40625 
Q 44.1875 33.984375 37.640625 27.21875 
Q 31.109375 20.453125 19.1875 8.296875 
z
" id="DejaVuSans-50"/>
      </defs>
      <g transform="translate(78.244135 225.476875)scale(0.1 -0.1)">
       <use xlink:href="#DejaVuSans-50"/>
      </g>
     </g>
    </g>
    <g id="xtick_3">
     <g id="line2d_3">
      <g>
       <use style="stroke:#000000;stroke-width:0.8;" x="123.960769" xlink:href="#m39158b6cec" y="210.878437"/>
      </g>
     </g>
     <g id="text_3">
      <!-- 4 -->
      <defs>
       <path d="M 37.796875 64.3125 
L 12.890625 25.390625 
L 37.796875 25.390625 
z
M 35.203125 72.90625 
L 47.609375 72.90625 
L 47.609375 25.390625 
L 58.015625 25.390625 
L 58.015625 17.1875 
L 47.609375 17.1875 
L 47.609375 0 
L 37.796875 0 
L 37.796875 17.1875 
L 4.890625 17.1875 
L 4.890625 26.703125 
z
" id="DejaVuSans-52"/>
      </defs>
      <g transform="translate(120.779519 225.476875)scale(0.1 -0.1)">
       <use xlink:href="#DejaVuSans-52"/>
      </g>
     </g>
    </g>
    <g id="xtick_4">
     <g id="line2d_4">
      <g>
       <use style="stroke:#000000;stroke-width:0.8;" x="166.496154" xlink:href="#m39158b6cec" y="210.878437"/>
      </g>
     </g>
     <g id="text_4">
      <!-- 6 -->
      <defs>
       <path d="M 33.015625 40.375 
Q 26.375 40.375 22.484375 35.828125 
Q 18.609375 31.296875 18.609375 23.390625 
Q 18.609375 15.53125 22.484375 10.953125 
Q 26.375 6.390625 33.015625 6.390625 
Q 39.65625 6.390625 43.53125 10.953125 
Q 47.40625 15.53125 47.40625 23.390625 
Q 47.40625 31.296875 43.53125 35.828125 
Q 39.65625 40.375 33.015625 40.375 
z
M 52.59375 71.296875 
L 52.59375 62.3125 
Q 48.875 64.0625 45.09375 64.984375 
Q 41.3125 65.921875 37.59375 65.921875 
Q 27.828125 65.921875 22.671875 59.328125 
Q 17.53125 52.734375 16.796875 39.40625 
Q 19.671875 43.65625 24.015625 45.921875 
Q 28.375 48.1875 33.59375 48.1875 
Q 44.578125 48.1875 50.953125 41.515625 
Q 57.328125 34.859375 57.328125 23.390625 
Q 57.328125 12.15625 50.6875 5.359375 
Q 44.046875 -1.421875 33.015625 -1.421875 
Q 20.359375 -1.421875 13.671875 8.265625 
Q 6.984375 17.96875 6.984375 36.375 
Q 6.984375 53.65625 15.1875 63.9375 
Q 23.390625 74.21875 37.203125 74.21875 
Q 40.921875 74.21875 44.703125 73.484375 
Q 48.484375 72.75 52.59375 71.296875 
z
" id="DejaVuSans-54"/>
      </defs>
      <g transform="translate(163.314904 225.476875)scale(0.1 -0.1)">
       <use xlink:href="#DejaVuSans-54"/>
      </g>
     </g>
    </g>
    <g id="xtick_5">
     <g id="line2d_5">
      <g>
       <use style="stroke:#000000;stroke-width:0.8;" x="209.031538" xlink:href="#m39158b6cec" y="210.878437"/>
      </g>
     </g>
     <g id="text_5">
      <!-- 8 -->
      <defs>
       <path d="M 31.78125 34.625 
Q 24.75 34.625 20.71875 30.859375 
Q 16.703125 27.09375 16.703125 20.515625 
Q 16.703125 13.921875 20.71875 10.15625 
Q 24.75 6.390625 31.78125 6.390625 
Q 38.8125 6.390625 42.859375 10.171875 
Q 46.921875 13.96875 46.921875 20.515625 
Q 46.921875 27.09375 42.890625 30.859375 
Q 38.875 34.625 31.78125 34.625 
z
M 21.921875 38.8125 
Q 15.578125 40.375 12.03125 44.71875 
Q 8.5 49.078125 8.5 55.328125 
Q 8.5 64.0625 14.71875 69.140625 
Q 20.953125 74.21875 31.78125 74.21875 
Q 42.671875 74.21875 48.875 69.140625 
Q 55.078125 64.0625 55.078125 55.328125 
Q 55.078125 49.078125 51.53125 44.71875 
Q 48 40.375 41.703125 38.8125 
Q 48.828125 37.15625 52.796875 32.3125 
Q 56.78125 27.484375 56.78125 20.515625 
Q 56.78125 9.90625 50.3125 4.234375 
Q 43.84375 -1.421875 31.78125 -1.421875 
Q 19.734375 -1.421875 13.25 4.234375 
Q 6.78125 9.90625 6.78125 20.515625 
Q 6.78125 27.484375 10.78125 32.3125 
Q 14.796875 37.15625 21.921875 38.8125 
z
M 18.3125 54.390625 
Q 18.3125 48.734375 21.84375 45.5625 
Q 25.390625 42.390625 31.78125 42.390625 
Q 38.140625 42.390625 41.71875 45.5625 
Q 45.3125 48.734375 45.3125 54.390625 
Q 45.3125 60.0625 41.71875 63.234375 
Q 38.140625 66.40625 31.78125 66.40625 
Q 25.390625 66.40625 21.84375 63.234375 
Q 18.3125 60.0625 18.3125 54.390625 
z
" id="DejaVuSans-56"/>
      </defs>
      <g transform="translate(205.850288 225.476875)scale(0.1 -0.1)">
       <use xlink:href="#DejaVuSans-56"/>
      </g>
     </g>
    </g>
    <g id="xtick_6">
     <g id="line2d_6">
      <g>
       <use style="stroke:#000000;stroke-width:0.8;" x="251.566923" xlink:href="#m39158b6cec" y="210.878437"/>
      </g>
     </g>
     <g id="text_6">
      <!-- 10 -->
      <defs>
       <path d="M 12.40625 8.296875 
L 28.515625 8.296875 
L 28.515625 63.921875 
L 10.984375 60.40625 
L 10.984375 69.390625 
L 28.421875 72.90625 
L 38.28125 72.90625 
L 38.28125 8.296875 
L 54.390625 8.296875 
L 54.390625 0 
L 12.40625 0 
z
" id="DejaVuSans-49"/>
      </defs>
      <g transform="translate(245.204423 225.476875)scale(0.1 -0.1)">
       <use xlink:href="#DejaVuSans-49"/>
       <use x="63.623047" xlink:href="#DejaVuSans-48"/>
      </g>
     </g>
    </g>
    <g id="xtick_7">
     <g id="line2d_7">
      <g>
       <use style="stroke:#000000;stroke-width:0.8;" x="294.102308" xlink:href="#m39158b6cec" y="210.878437"/>
      </g>
     </g>
     <g id="text_7">
      <!-- 12 -->
      <g transform="translate(287.739808 225.476875)scale(0.1 -0.1)">
       <use xlink:href="#DejaVuSans-49"/>
       <use x="63.623047" xlink:href="#DejaVuSans-50"/>
      </g>
     </g>
    </g>
    <g id="text_8">
     <!-- Clonotype size in CD4_Trm -->
     <defs>
      <path d="M 64.40625 67.28125 
L 64.40625 56.890625 
Q 59.421875 61.53125 53.78125 63.8125 
Q 48.140625 66.109375 41.796875 66.109375 
Q 29.296875 66.109375 22.65625 58.46875 
Q 16.015625 50.828125 16.015625 36.375 
Q 16.015625 21.96875 22.65625 14.328125 
Q 29.296875 6.6875 41.796875 6.6875 
Q 48.140625 6.6875 53.78125 8.984375 
Q 59.421875 11.28125 64.40625 15.921875 
L 64.40625 5.609375 
Q 59.234375 2.09375 53.4375 0.328125 
Q 47.65625 -1.421875 41.21875 -1.421875 
Q 24.65625 -1.421875 15.125 8.703125 
Q 5.609375 18.84375 5.609375 36.375 
Q 5.609375 53.953125 15.125 64.078125 
Q 24.65625 74.21875 41.21875 74.21875 
Q 47.75 74.21875 53.53125 72.484375 
Q 59.328125 70.75 64.40625 67.28125 
z
" id="DejaVuSans-67"/>
      <path d="M 9.421875 75.984375 
L 18.40625 75.984375 
L 18.40625 0 
L 9.421875 0 
z
" id="DejaVuSans-108"/>
      <path d="M 30.609375 48.390625 
Q 23.390625 48.390625 19.1875 42.75 
Q 14.984375 37.109375 14.984375 27.296875 
Q 14.984375 17.484375 19.15625 11.84375 
Q 23.34375 6.203125 30.609375 6.203125 
Q 37.796875 6.203125 41.984375 11.859375 
Q 46.1875 17.53125 46.1875 27.296875 
Q 46.1875 37.015625 41.984375 42.703125 
Q 37.796875 48.390625 30.609375 48.390625 
z
M 30.609375 56 
Q 42.328125 56 49.015625 48.375 
Q 55.71875 40.765625 55.71875 27.296875 
Q 55.71875 13.875 49.015625 6.21875 
Q 42.328125 -1.421875 30.609375 -1.421875 
Q 18.84375 -1.421875 12.171875 6.21875 
Q 5.515625 13.875 5.515625 27.296875 
Q 5.515625 40.765625 12.171875 48.375 
Q 18.84375 56 30.609375 56 
z
" id="DejaVuSans-111"/>
      <path d="M 54.890625 33.015625 
L 54.890625 0 
L 45.90625 0 
L 45.90625 32.71875 
Q 45.90625 40.484375 42.875 44.328125 
Q 39.84375 48.1875 33.796875 48.1875 
Q 26.515625 48.1875 22.3125 43.546875 
Q 18.109375 38.921875 18.109375 30.90625 
L 18.109375 0 
L 9.078125 0 
L 9.078125 54.6875 
L 18.109375 54.6875 
L 18.109375 46.1875 
Q 21.34375 51.125 25.703125 53.5625 
Q 30.078125 56 35.796875 56 
Q 45.21875 56 50.046875 50.171875 
Q 54.890625 44.34375 54.890625 33.015625 
z
" id="DejaVuSans-110"/>
      <path d="M 18.3125 70.21875 
L 18.3125 54.6875 
L 36.8125 54.6875 
L 36.8125 47.703125 
L 18.3125 47.703125 
L 18.3125 18.015625 
Q 18.3125 11.328125 20.140625 9.421875 
Q 21.96875 7.515625 27.59375 7.515625 
L 36.8125 7.515625 
L 36.8125 0 
L 27.59375 0 
Q 17.1875 0 13.234375 3.875 
Q 9.28125 7.765625 9.28125 18.015625 
L 9.28125 47.703125 
L 2.6875 47.703125 
L 2.6875 54.6875 
L 9.28125 54.6875 
L 9.28125 70.21875 
z
" id="DejaVuSans-116"/>
      <path d="M 32.171875 -5.078125 
Q 28.375 -14.84375 24.75 -17.8125 
Q 21.140625 -20.796875 15.09375 -20.796875 
L 7.90625 -20.796875 
L 7.90625 -13.28125 
L 13.1875 -13.28125 
Q 16.890625 -13.28125 18.9375 -11.515625 
Q 21 -9.765625 23.484375 -3.21875 
L 25.09375 0.875 
L 2.984375 54.6875 
L 12.5 54.6875 
L 29.59375 11.921875 
L 46.6875 54.6875 
L 56.203125 54.6875 
z
" id="DejaVuSans-121"/>
      <path d="M 18.109375 8.203125 
L 18.109375 -20.796875 
L 9.078125 -20.796875 
L 9.078125 54.6875 
L 18.109375 54.6875 
L 18.109375 46.390625 
Q 20.953125 51.265625 25.265625 53.625 
Q 29.59375 56 35.59375 56 
Q 45.5625 56 51.78125 48.09375 
Q 58.015625 40.1875 58.015625 27.296875 
Q 58.015625 14.40625 51.78125 6.484375 
Q 45.5625 -1.421875 35.59375 -1.421875 
Q 29.59375 -1.421875 25.265625 0.953125 
Q 20.953125 3.328125 18.109375 8.203125 
z
M 48.6875 27.296875 
Q 48.6875 37.203125 44.609375 42.84375 
Q 40.53125 48.484375 33.40625 48.484375 
Q 26.265625 48.484375 22.1875 42.84375 
Q 18.109375 37.203125 18.109375 27.296875 
Q 18.109375 17.390625 22.1875 11.75 
Q 26.265625 6.109375 33.40625 6.109375 
Q 40.53125 6.109375 44.609375 11.75 
Q 48.6875 17.390625 48.6875 27.296875 
z
" id="DejaVuSans-112"/>
      <path d="M 56.203125 29.59375 
L 56.203125 25.203125 
L 14.890625 25.203125 
Q 15.484375 15.921875 20.484375 11.0625 
Q 25.484375 6.203125 34.421875 6.203125 
Q 39.59375 6.203125 44.453125 7.46875 
Q 49.3125 8.734375 54.109375 11.28125 
L 54.109375 2.78125 
Q 49.265625 0.734375 44.1875 -0.34375 
Q 39.109375 -1.421875 33.890625 -1.421875 
Q 20.796875 -1.421875 13.15625 6.1875 
Q 5.515625 13.8125 5.515625 26.8125 
Q 5.515625 40.234375 12.765625 48.109375 
Q 20.015625 56 32.328125 56 
Q 43.359375 56 49.78125 48.890625 
Q 56.203125 41.796875 56.203125 29.59375 
z
M 47.21875 32.234375 
Q 47.125 39.59375 43.09375 43.984375 
Q 39.0625 48.390625 32.421875 48.390625 
Q 24.90625 48.390625 20.390625 44.140625 
Q 15.875 39.890625 15.1875 32.171875 
z
" id="DejaVuSans-101"/>
      <path id="DejaVuSans-32"/>
      <path d="M 44.28125 53.078125 
L 44.28125 44.578125 
Q 40.484375 46.53125 36.375 47.5 
Q 32.28125 48.484375 27.875 48.484375 
Q 21.1875 48.484375 17.84375 46.4375 
Q 14.5 44.390625 14.5 40.28125 
Q 14.5 37.15625 16.890625 35.375 
Q 19.28125 33.59375 26.515625 31.984375 
L 29.59375 31.296875 
Q 39.15625 29.25 43.1875 25.515625 
Q 47.21875 21.78125 47.21875 15.09375 
Q 47.21875 7.46875 41.1875 3.015625 
Q 35.15625 -1.421875 24.609375 -1.421875 
Q 20.21875 -1.421875 15.453125 -0.5625 
Q 10.6875 0.296875 5.421875 2 
L 5.421875 11.28125 
Q 10.40625 8.6875 15.234375 7.390625 
Q 20.0625 6.109375 24.8125 6.109375 
Q 31.15625 6.109375 34.5625 8.28125 
Q 37.984375 10.453125 37.984375 14.40625 
Q 37.984375 18.0625 35.515625 20.015625 
Q 33.0625 21.96875 24.703125 23.78125 
L 21.578125 24.515625 
Q 13.234375 26.265625 9.515625 29.90625 
Q 5.8125 33.546875 5.8125 39.890625 
Q 5.8125 47.609375 11.28125 51.796875 
Q 16.75 56 26.8125 56 
Q 31.78125 56 36.171875 55.265625 
Q 40.578125 54.546875 44.28125 53.078125 
z
" id="DejaVuSans-115"/>
      <path d="M 9.421875 54.6875 
L 18.40625 54.6875 
L 18.40625 0 
L 9.421875 0 
z
M 9.421875 75.984375 
L 18.40625 75.984375 
L 18.40625 64.59375 
L 9.421875 64.59375 
z
" id="DejaVuSans-105"/>
      <path d="M 5.515625 54.6875 
L 48.1875 54.6875 
L 48.1875 46.484375 
L 14.40625 7.171875 
L 48.1875 7.171875 
L 48.1875 0 
L 4.296875 0 
L 4.296875 8.203125 
L 38.09375 47.515625 
L 5.515625 47.515625 
z
" id="DejaVuSans-122"/>
      <path d="M 19.671875 64.796875 
L 19.671875 8.109375 
L 31.59375 8.109375 
Q 46.6875 8.109375 53.6875 14.9375 
Q 60.6875 21.78125 60.6875 36.53125 
Q 60.6875 51.171875 53.6875 57.984375 
Q 46.6875 64.796875 31.59375 64.796875 
z
M 9.8125 72.90625 
L 30.078125 72.90625 
Q 51.265625 72.90625 61.171875 64.09375 
Q 71.09375 55.28125 71.09375 36.53125 
Q 71.09375 17.671875 61.125 8.828125 
Q 51.171875 0 30.078125 0 
L 9.8125 0 
z
" id="DejaVuSans-68"/>
      <path d="M 50.984375 -16.609375 
L 50.984375 -23.578125 
L -0.984375 -23.578125 
L -0.984375 -16.609375 
z
" id="DejaVuSans-95"/>
      <path d="M -0.296875 72.90625 
L 61.375 72.90625 
L 61.375 64.59375 
L 35.5 64.59375 
L 35.5 0 
L 25.59375 0 
L 25.59375 64.59375 
L -0.296875 64.59375 
z
" id="DejaVuSans-84"/>
      <path d="M 41.109375 46.296875 
Q 39.59375 47.171875 37.8125 47.578125 
Q 36.03125 48 33.890625 48 
Q 26.265625 48 22.1875 43.046875 
Q 18.109375 38.09375 18.109375 28.8125 
L 18.109375 0 
L 9.078125 0 
L 9.078125 54.6875 
L 18.109375 54.6875 
L 18.109375 46.1875 
Q 20.953125 51.171875 25.484375 53.578125 
Q 30.03125 56 36.53125 56 
Q 37.453125 56 38.578125 55.875 
Q 39.703125 55.765625 41.0625 55.515625 
z
" id="DejaVuSans-114"/>
      <path d="M 52 44.1875 
Q 55.375 50.25 60.0625 53.125 
Q 64.75 56 71.09375 56 
Q 79.640625 56 84.28125 50.015625 
Q 88.921875 44.046875 88.921875 33.015625 
L 88.921875 0 
L 79.890625 0 
L 79.890625 32.71875 
Q 79.890625 40.578125 77.09375 44.375 
Q 74.3125 48.1875 68.609375 48.1875 
Q 61.625 48.1875 57.5625 43.546875 
Q 53.515625 38.921875 53.515625 30.90625 
L 53.515625 0 
L 44.484375 0 
L 44.484375 32.71875 
Q 44.484375 40.625 41.703125 44.40625 
Q 38.921875 48.1875 33.109375 48.1875 
Q 26.21875 48.1875 22.15625 43.53125 
Q 18.109375 38.875 18.109375 30.90625 
L 18.109375 0 
L 9.078125 0 
L 9.078125 54.6875 
L 18.109375 54.6875 
L 18.109375 46.1875 
Q 21.1875 51.21875 25.484375 53.609375 
Q 29.78125 56 35.6875 56 
Q 41.65625 56 45.828125 52.96875 
Q 50 49.953125 52 44.1875 
z
" id="DejaVuSans-109"/>
     </defs>
     <g transform="translate(123.901875 237.635312)scale(0.08 -0.08)">
      <use xlink:href="#DejaVuSans-67"/>
      <use x="69.824219" xlink:href="#DejaVuSans-108"/>
      <use x="97.607422" xlink:href="#DejaVuSans-111"/>
      <use x="158.789062" xlink:href="#DejaVuSans-110"/>
      <use x="222.167969" xlink:href="#DejaVuSans-111"/>
      <use x="283.349609" xlink:href="#DejaVuSans-116"/>
      <use x="322.558594" xlink:href="#DejaVuSans-121"/>
      <use x="381.738281" xlink:href="#DejaVuSans-112"/>
      <use x="445.214844" xlink:href="#DejaVuSans-101"/>
      <use x="506.738281" xlink:href="#DejaVuSans-32"/>
      <use x="538.525391" xlink:href="#DejaVuSans-115"/>
      <use x="590.625" xlink:href="#DejaVuSans-105"/>
      <use x="618.408203" xlink:href="#DejaVuSans-122"/>
      <use x="670.898438" xlink:href="#DejaVuSans-101"/>
      <use x="732.421875" xlink:href="#DejaVuSans-32"/>
      <use x="764.208984" xlink:href="#DejaVuSans-105"/>
      <use x="791.992188" xlink:href="#DejaVuSans-110"/>
      <use x="855.371094" xlink:href="#DejaVuSans-32"/>
      <use x="887.158203" xlink:href="#DejaVuSans-67"/>
      <use x="956.982422" xlink:href="#DejaVuSans-68"/>
      <use x="1033.984375" xlink:href="#DejaVuSans-52"/>
      <use x="1097.607422" xlink:href="#DejaVuSans-95"/>
      <use x="1147.607422" xlink:href="#DejaVuSans-84"/>
      <use x="1193.941406" xlink:href="#DejaVuSans-114"/>
      <use x="1233.304688" xlink:href="#DejaVuSans-109"/>
     </g>
    </g>
   </g>
   <g id="matplotlib.axis_2">
    <g id="ytick_1">
     <g id="line2d_8">
      <defs>
       <path d="M 0 0 
L -3.5 0 
" id="m550f64a983" style="stroke:#000000;stroke-width:0.8;"/>
      </defs>
      <g>
       <use style="stroke:#000000;stroke-width:0.8;" x="38.89" xlink:href="#m550f64a983" y="210.878437"/>
      </g>
     </g>
     <g id="text_9">
      <!-- 0 -->
      <g transform="translate(25.5275 214.677656)scale(0.1 -0.1)">
       <use xlink:href="#DejaVuSans-48"/>
      </g>
     </g>
    </g>
    <g id="ytick_2">
     <g id="line2d_9">
      <g>
       <use style="stroke:#000000;stroke-width:0.8;" x="38.89" xlink:href="#m550f64a983" y="181.635361"/>
      </g>
     </g>
     <g id="text_10">
      <!-- 2 -->
      <g transform="translate(25.5275 185.434579)scale(0.1 -0.1)">
       <use xlink:href="#DejaVuSans-50"/>
      </g>
     </g>
    </g>
    <g id="ytick_3">
     <g id="line2d_10">
      <g>
       <use style="stroke:#000000;stroke-width:0.8;" x="38.89" xlink:href="#m550f64a983" y="152.392284"/>
      </g>
     </g>
     <g id="text_11">
      <!-- 4 -->
      <g transform="translate(25.5275 156.191502)scale(0.1 -0.1)">
       <use xlink:href="#DejaVuSans-52"/>
      </g>
     </g>
    </g>
    <g id="ytick_4">
     <g id="line2d_11">
      <g>
       <use style="stroke:#000000;stroke-width:0.8;" x="38.89" xlink:href="#m550f64a983" y="123.149207"/>
      </g>
     </g>
     <g id="text_12">
      <!-- 6 -->
      <g transform="translate(25.5275 126.948425)scale(0.1 -0.1)">
       <use xlink:href="#DejaVuSans-54"/>
      </g>
     </g>
    </g>
    <g id="ytick_5">
     <g id="line2d_12">
      <g>
       <use style="stroke:#000000;stroke-width:0.8;" x="38.89" xlink:href="#m550f64a983" y="93.90613"/>
      </g>
     </g>
     <g id="text_13">
      <!-- 8 -->
      <g transform="translate(25.5275 97.705349)scale(0.1 -0.1)">
       <use xlink:href="#DejaVuSans-56"/>
      </g>
     </g>
    </g>
    <g id="ytick_6">
     <g id="line2d_13">
      <g>
       <use style="stroke:#000000;stroke-width:0.8;" x="38.89" xlink:href="#m550f64a983" y="64.663053"/>
      </g>
     </g>
     <g id="text_14">
      <!-- 10 -->
      <g transform="translate(19.165 68.462272)scale(0.1 -0.1)">
       <use xlink:href="#DejaVuSans-49"/>
       <use x="63.623047" xlink:href="#DejaVuSans-48"/>
      </g>
     </g>
    </g>
    <g id="ytick_7">
     <g id="line2d_14">
      <g>
       <use style="stroke:#000000;stroke-width:0.8;" x="38.89" xlink:href="#m550f64a983" y="35.419976"/>
      </g>
     </g>
     <g id="text_15">
      <!-- 12 -->
      <g transform="translate(19.165 39.219195)scale(0.1 -0.1)">
       <use xlink:href="#DejaVuSans-49"/>
       <use x="63.623047" xlink:href="#DejaVuSans-50"/>
      </g>
     </g>
    </g>
    <g id="text_16">
     <!-- Clonotype size in CD8_Trm -->
     <g transform="translate(13.27875 169.066562)rotate(-90)scale(0.08 -0.08)">
      <use xlink:href="#DejaVuSans-67"/>
      <use x="69.824219" xlink:href="#DejaVuSans-108"/>
      <use x="97.607422" xlink:href="#DejaVuSans-111"/>
      <use x="158.789062" xlink:href="#DejaVuSans-110"/>
      <use x="222.167969" xlink:href="#DejaVuSans-111"/>
      <use x="283.349609" xlink:href="#DejaVuSans-116"/>
      <use x="322.558594" xlink:href="#DejaVuSans-121"/>
      <use x="381.738281" xlink:href="#DejaVuSans-112"/>
      <use x="445.214844" xlink:href="#DejaVuSans-101"/>
      <use x="506.738281" xlink:href="#DejaVuSans-32"/>
      <use x="538.525391" xlink:href="#DejaVuSans-115"/>
      <use x="590.625" xlink:href="#DejaVuSans-105"/>
      <use x="618.408203" xlink:href="#DejaVuSans-122"/>
      <use x="670.898438" xlink:href="#DejaVuSans-101"/>
      <use x="732.421875" xlink:href="#DejaVuSans-32"/>
      <use x="764.208984" xlink:href="#DejaVuSans-105"/>
      <use x="791.992188" xlink:href="#DejaVuSans-110"/>
      <use x="855.371094" xlink:href="#DejaVuSans-32"/>
      <use x="887.158203" xlink:href="#DejaVuSans-67"/>
      <use x="956.982422" xlink:href="#DejaVuSans-68"/>
      <use x="1033.984375" xlink:href="#DejaVuSans-56"/>
      <use x="1097.607422" xlink:href="#DejaVuSans-95"/>
      <use x="1147.607422" xlink:href="#DejaVuSans-84"/>
      <use x="1193.941406" xlink:href="#DejaVuSans-114"/>
      <use x="1233.304688" xlink:href="#DejaVuSans-109"/>
     </g>
    </g>
   </g>
   <g id="patch_3">
    <path d="M 38.89 210.878437 
L 38.89 20.798437 
" style="fill:none;stroke:#000000;stroke-linecap:square;stroke-linejoin:miter;stroke-width:0.8;"/>
   </g>
   <g id="patch_4">
    <path d="M 38.89 210.878437 
L 315.37 210.878437 
" style="fill:none;stroke:#000000;stroke-linecap:square;stroke-linejoin:miter;stroke-width:0.8;"/>
   </g>
   <g id="text_17">
    <!-- Repertoire overlap between CD4_Trm and CD8_Trm -->
    <defs>
     <path d="M 44.390625 34.1875 
Q 47.5625 33.109375 50.5625 29.59375 
Q 53.5625 26.078125 56.59375 19.921875 
L 66.609375 0 
L 56 0 
L 46.6875 18.703125 
Q 43.0625 26.03125 39.671875 28.421875 
Q 36.28125 30.8125 30.421875 30.8125 
L 19.671875 30.8125 
L 19.671875 0 
L 9.8125 0 
L 9.8125 72.90625 
L 32.078125 72.90625 
Q 44.578125 72.90625 50.734375 67.671875 
Q 56.890625 62.453125 56.890625 51.90625 
Q 56.890625 45.015625 53.6875 40.46875 
Q 50.484375 35.9375 44.390625 34.1875 
z
M 19.671875 64.796875 
L 19.671875 38.921875 
L 32.078125 38.921875 
Q 39.203125 38.921875 42.84375 42.21875 
Q 46.484375 45.515625 46.484375 51.90625 
Q 46.484375 58.296875 42.84375 61.546875 
Q 39.203125 64.796875 32.078125 64.796875 
z
" id="DejaVuSans-82"/>
     <path d="M 2.984375 54.6875 
L 12.5 54.6875 
L 29.59375 8.796875 
L 46.6875 54.6875 
L 56.203125 54.6875 
L 35.6875 0 
L 23.484375 0 
z
" id="DejaVuSans-118"/>
     <path d="M 34.28125 27.484375 
Q 23.390625 27.484375 19.1875 25 
Q 14.984375 22.515625 14.984375 16.5 
Q 14.984375 11.71875 18.140625 8.90625 
Q 21.296875 6.109375 26.703125 6.109375 
Q 34.1875 6.109375 38.703125 11.40625 
Q 43.21875 16.703125 43.21875 25.484375 
L 43.21875 27.484375 
z
M 52.203125 31.203125 
L 52.203125 0 
L 43.21875 0 
L 43.21875 8.296875 
Q 40.140625 3.328125 35.546875 0.953125 
Q 30.953125 -1.421875 24.3125 -1.421875 
Q 15.921875 -1.421875 10.953125 3.296875 
Q 6 8.015625 6 15.921875 
Q 6 25.140625 12.171875 29.828125 
Q 18.359375 34.515625 30.609375 34.515625 
L 43.21875 34.515625 
L 43.21875 35.40625 
Q 43.21875 41.609375 39.140625 45 
Q 35.0625 48.390625 27.6875 48.390625 
Q 23 48.390625 18.546875 47.265625 
Q 14.109375 46.140625 10.015625 43.890625 
L 10.015625 52.203125 
Q 14.9375 54.109375 19.578125 55.046875 
Q 24.21875 56 28.609375 56 
Q 40.484375 56 46.34375 49.84375 
Q 52.203125 43.703125 52.203125 31.203125 
z
" id="DejaVuSans-97"/>
     <path d="M 48.6875 27.296875 
Q 48.6875 37.203125 44.609375 42.84375 
Q 40.53125 48.484375 33.40625 48.484375 
Q 26.265625 48.484375 22.1875 42.84375 
Q 18.109375 37.203125 18.109375 27.296875 
Q 18.109375 17.390625 22.1875 11.75 
Q 26.265625 6.109375 33.40625 6.109375 
Q 40.53125 6.109375 44.609375 11.75 
Q 48.6875 17.390625 48.6875 27.296875 
z
M 18.109375 46.390625 
Q 20.953125 51.265625 25.265625 53.625 
Q 29.59375 56 35.59375 56 
Q 45.5625 56 51.78125 48.09375 
Q 58.015625 40.1875 58.015625 27.296875 
Q 58.015625 14.40625 51.78125 6.484375 
Q 45.5625 -1.421875 35.59375 -1.421875 
Q 29.59375 -1.421875 25.265625 0.953125 
Q 20.953125 3.328125 18.109375 8.203125 
L 18.109375 0 
L 9.078125 0 
L 9.078125 75.984375 
L 18.109375 75.984375 
z
" id="DejaVuSans-98"/>
     <path d="M 4.203125 54.6875 
L 13.1875 54.6875 
L 24.421875 12.015625 
L 35.59375 54.6875 
L 46.1875 54.6875 
L 57.421875 12.015625 
L 68.609375 54.6875 
L 77.59375 54.6875 
L 63.28125 0 
L 52.6875 0 
L 40.921875 44.828125 
L 29.109375 0 
L 18.5 0 
z
" id="DejaVuSans-119"/>
     <path d="M 45.40625 46.390625 
L 45.40625 75.984375 
L 54.390625 75.984375 
L 54.390625 0 
L 45.40625 0 
L 45.40625 8.203125 
Q 42.578125 3.328125 38.25 0.953125 
Q 33.9375 -1.421875 27.875 -1.421875 
Q 17.96875 -1.421875 11.734375 6.484375 
Q 5.515625 14.40625 5.515625 27.296875 
Q 5.515625 40.1875 11.734375 48.09375 
Q 17.96875 56 27.875 56 
Q 33.9375 56 38.25 53.625 
Q 42.578125 51.265625 45.40625 46.390625 
z
M 14.796875 27.296875 
Q 14.796875 17.390625 18.875 11.75 
Q 22.953125 6.109375 30.078125 6.109375 
Q 37.203125 6.109375 41.296875 11.75 
Q 45.40625 17.390625 45.40625 27.296875 
Q 45.40625 37.203125 41.296875 42.84375 
Q 37.203125 48.484375 30.078125 48.484375 
Q 22.953125 48.484375 18.875 42.84375 
Q 14.796875 37.203125 14.796875 27.296875 
z
" id="DejaVuSans-100"/>
    </defs>
    <g transform="translate(48.962813 14.798437)scale(0.1 -0.1)">
     <use xlink:href="#DejaVuSans-82"/>
     <use x="64.982422" xlink:href="#DejaVuSans-101"/>
     <use x="126.505859" xlink:href="#DejaVuSans-112"/>
     <use x="189.982422" xlink:href="#DejaVuSans-101"/>
     <use x="251.505859" xlink:href="#DejaVuSans-114"/>
     <use x="292.619141" xlink:href="#DejaVuSans-116"/>
     <use x="331.828125" xlink:href="#DejaVuSans-111"/>
     <use x="393.009766" xlink:href="#DejaVuSans-105"/>
     <use x="420.792969" xlink:href="#DejaVuSans-114"/>
     <use x="459.65625" xlink:href="#DejaVuSans-101"/>
     <use x="521.179688" xlink:href="#DejaVuSans-32"/>
     <use x="552.966797" xlink:href="#DejaVuSans-111"/>
     <use x="614.148438" xlink:href="#DejaVuSans-118"/>
     <use x="673.328125" xlink:href="#DejaVuSans-101"/>
     <use x="734.851562" xlink:href="#DejaVuSans-114"/>
     <use x="775.964844" xlink:href="#DejaVuSans-108"/>
     <use x="803.748047" xlink:href="#DejaVuSans-97"/>
     <use x="865.027344" xlink:href="#DejaVuSans-112"/>
     <use x="928.503906" xlink:href="#DejaVuSans-32"/>
     <use x="960.291016" xlink:href="#DejaVuSans-98"/>
     <use x="1023.767578" xlink:href="#DejaVuSans-101"/>
     <use x="1085.291016" xlink:href="#DejaVuSans-116"/>
     <use x="1124.5" xlink:href="#DejaVuSans-119"/>
     <use x="1206.287109" xlink:href="#DejaVuSans-101"/>
     <use x="1267.810547" xlink:href="#DejaVuSans-101"/>
     <use x="1329.333984" xlink:href="#DejaVuSans-110"/>
     <use x="1392.712891" xlink:href="#DejaVuSans-32"/>
     <use x="1424.5" xlink:href="#DejaVuSans-67"/>
     <use x="1494.324219" xlink:href="#DejaVuSans-68"/>
     <use x="1571.326172" xlink:href="#DejaVuSans-52"/>
     <use x="1634.949219" xlink:href="#DejaVuSans-95"/>
     <use x="1684.949219" xlink:href="#DejaVuSans-84"/>
     <use x="1731.283203" xlink:href="#DejaVuSans-114"/>
     <use x="1770.646484" xlink:href="#DejaVuSans-109"/>
     <use x="1868.058594" xlink:href="#DejaVuSans-32"/>
     <use x="1899.845703" xlink:href="#DejaVuSans-97"/>
     <use x="1961.125" xlink:href="#DejaVuSans-110"/>
     <use x="2024.503906" xlink:href="#DejaVuSans-100"/>
     <use x="2087.980469" xlink:href="#DejaVuSans-32"/>
     <use x="2119.767578" xlink:href="#DejaVuSans-67"/>
     <use x="2189.591797" xlink:href="#DejaVuSans-68"/>
     <use x="2266.59375" xlink:href="#DejaVuSans-56"/>
     <use x="2330.216797" xlink:href="#DejaVuSans-95"/>
     <use x="2380.216797" xlink:href="#DejaVuSans-84"/>
     <use x="2426.550781" xlink:href="#DejaVuSans-114"/>
     <use x="2465.914062" xlink:href="#DejaVuSans-109"/>
    </g>
   </g>
   <g id="legend_1"/>
  </g>
 </g>
 <defs>
  <clipPath id="p23a26e21ef">
   <rect height="190.08" width="276.48" x="38.89" y="20.798437"/>
  </clipPath>
 </defs>
</svg>
