<?xml version="1.0" encoding="utf-8" standalone="no"?>
<!DOCTYPE svg PUBLIC "-//W3C//DTD SVG 1.1//EN"
  "http://www.w3.org/Graphics/SVG/1.1/DTD/svg11.dtd">
<!-- Created with matplotlib (https://matplotlib.org/) -->
<svg height="163.204452pt" version="1.1" viewBox="0 0 314.609662 163.204452" width="314.609662pt" xmlns="http://www.w3.org/2000/svg" xmlns:xlink="http://www.w3.org/1999/xlink">
 <defs>
  <style type="text/css">
*{stroke-linecap:butt;stroke-linejoin:round;}
  </style>
 </defs>
 <g id="figure_1">
  <g id="patch_1">
   <path d="M 0 163.204452 
L 314.609662 163.204452 
L 314.609662 0 
L 0 0 
z
" style="fill:#ffffff;"/>
  </g>
  <g id="axes_1">
   <g id="patch_2">
    <path d="M 50.423812 124.486125 
L 199.031812 124.486125 
L 199.031812 22.318125 
L 50.423812 22.318125 
z
" style="fill:#ffffff;"/>
   </g>
   <g id="patch_3">
    <path clip-path="url(#pfd52ea4508)" d="M 54.139012 124.486125 
L 61.569412 124.486125 
L 61.569412 90.14394 
L 54.139012 90.14394 
z
" style="fill:#1f77b4;"/>
   </g>
   <g id="patch_4">
    <path clip-path="url(#pfd52ea4508)" d="M 68.999812 124.486125 
L 76.430212 124.486125 
L 76.430212 111.403388 
L 68.999812 111.403388 
z
" style="fill:#1f77b4;"/>
   </g>
   <g id="patch_5">
    <path clip-path="url(#pfd52ea4508)" d="M 83.860612 124.486125 
L 91.291012 124.486125 
L 91.291012 111.403388 
L 83.860612 111.403388 
z
" style="fill:#1f77b4;"/>
   </g>
   <g id="patch_6">
    <path clip-path="url(#pfd52ea4508)" d="M 98.721412 124.486125 
L 106.151812 124.486125 
L 106.151812 122.033112 
L 98.721412 122.033112 
z
" style="fill:#1f77b4;"/>
   </g>
   <g id="patch_7">
    <path clip-path="url(#pfd52ea4508)" d="M 113.582212 124.486125 
L 121.012612 124.486125 
L 121.012612 110.585717 
L 113.582212 110.585717 
z
" style="fill:#1f77b4;"/>
   </g>
   <g id="patch_8">
    <path clip-path="url(#pfd52ea4508)" d="M 128.443012 124.486125 
L 135.873412 124.486125 
L 135.873412 118.762428 
L 128.443012 118.762428 
z
" style="fill:#1f77b4;"/>
   </g>
   <g id="patch_9">
    <path clip-path="url(#pfd52ea4508)" d="M 143.303812 124.486125 
L 150.734212 124.486125 
L 150.734212 120.39777 
L 143.303812 120.39777 
z
" style="fill:#1f77b4;"/>
   </g>
   <g id="patch_10">
    <path clip-path="url(#pfd52ea4508)" d="M 158.164612 124.486125 
L 165.595012 124.486125 
L 165.595012 121.215441 
L 158.164612 121.215441 
z
" style="fill:#1f77b4;"/>
   </g>
   <g id="patch_11">
    <path clip-path="url(#pfd52ea4508)" d="M 173.025412 124.486125 
L 180.455812 124.486125 
L 180.455812 119.580099 
L 173.025412 119.580099 
z
" style="fill:#1f77b4;"/>
   </g>
   <g id="patch_12">
    <path clip-path="url(#pfd52ea4508)" d="M 187.886212 124.486125 
L 195.316612 124.486125 
L 195.316612 122.033112 
L 187.886212 122.033112 
z
" style="fill:#1f77b4;"/>
   </g>
   <g id="patch_13">
    <path clip-path="url(#pfd52ea4508)" d="M 54.139012 90.14394 
L 61.569412 90.14394 
L 61.569412 82.784901 
L 54.139012 82.784901 
z
" style="fill:#ff7f0e;"/>
   </g>
   <g id="patch_14">
    <path clip-path="url(#pfd52ea4508)" d="M 68.999812 111.403388 
L 76.430212 111.403388 
L 76.430212 105.67969 
L 68.999812 105.67969 
z
" style="fill:#ff7f0e;"/>
   </g>
   <g id="patch_15">
    <path clip-path="url(#pfd52ea4508)" d="M 83.860612 111.403388 
L 91.291012 111.403388 
L 91.291012 108.132704 
L 83.860612 108.132704 
z
" style="fill:#ff7f0e;"/>
   </g>
   <g id="patch_16">
    <path clip-path="url(#pfd52ea4508)" d="M 98.721412 122.033112 
L 106.151812 122.033112 
L 106.151812 117.944756 
L 98.721412 117.944756 
z
" style="fill:#ff7f0e;"/>
   </g>
   <g id="patch_17">
    <path clip-path="url(#pfd52ea4508)" d="M 113.582212 110.585717 
L 121.012612 110.585717 
L 121.012612 108.950375 
L 113.582212 108.950375 
z
" style="fill:#ff7f0e;"/>
   </g>
   <g id="patch_18">
    <path clip-path="url(#pfd52ea4508)" d="M 128.443012 124.486125 
L 135.873412 124.486125 
L 135.873412 124.486125 
L 128.443012 124.486125 
z
" style="fill:#ff7f0e;"/>
   </g>
   <g id="patch_19">
    <path clip-path="url(#pfd52ea4508)" d="M 143.303812 120.39777 
L 150.734212 120.39777 
L 150.734212 119.580099 
L 143.303812 119.580099 
z
" style="fill:#ff7f0e;"/>
   </g>
   <g id="patch_20">
    <path clip-path="url(#pfd52ea4508)" d="M 158.164612 121.215441 
L 165.595012 121.215441 
L 165.595012 119.580099 
L 158.164612 119.580099 
z
" style="fill:#ff7f0e;"/>
   </g>
   <g id="patch_21">
    <path clip-path="url(#pfd52ea4508)" d="M 173.025412 124.486125 
L 180.455812 124.486125 
L 180.455812 124.486125 
L 173.025412 124.486125 
z
" style="fill:#ff7f0e;"/>
   </g>
   <g id="patch_22">
    <path clip-path="url(#pfd52ea4508)" d="M 187.886212 122.033112 
L 195.316612 122.033112 
L 195.316612 118.762428 
L 187.886212 118.762428 
z
" style="fill:#ff7f0e;"/>
   </g>
   <g id="patch_23">
    <path clip-path="url(#pfd52ea4508)" d="M 54.139012 82.784901 
L 61.569412 82.784901 
L 61.569412 71.337506 
L 54.139012 71.337506 
z
" style="fill:#2ca02c;"/>
   </g>
   <g id="patch_24">
    <path clip-path="url(#pfd52ea4508)" d="M 68.999812 105.67969 
L 76.430212 105.67969 
L 76.430212 96.685309 
L 68.999812 96.685309 
z
" style="fill:#2ca02c;"/>
   </g>
   <g id="patch_25">
    <path clip-path="url(#pfd52ea4508)" d="M 83.860612 108.132704 
L 91.291012 108.132704 
L 91.291012 102.409006 
L 83.860612 102.409006 
z
" style="fill:#2ca02c;"/>
   </g>
   <g id="patch_26">
    <path clip-path="url(#pfd52ea4508)" d="M 98.721412 117.944756 
L 106.151812 117.944756 
L 106.151812 105.67969 
L 98.721412 105.67969 
z
" style="fill:#2ca02c;"/>
   </g>
   <g id="patch_27">
    <path clip-path="url(#pfd52ea4508)" d="M 113.582212 108.950375 
L 121.012612 108.950375 
L 121.012612 106.497361 
L 113.582212 106.497361 
z
" style="fill:#2ca02c;"/>
   </g>
   <g id="patch_28">
    <path clip-path="url(#pfd52ea4508)" d="M 128.443012 118.762428 
L 135.873412 118.762428 
L 135.873412 109.768046 
L 128.443012 109.768046 
z
" style="fill:#2ca02c;"/>
   </g>
   <g id="patch_29">
    <path clip-path="url(#pfd52ea4508)" d="M 143.303812 119.580099 
L 150.734212 119.580099 
L 150.734212 113.03873 
L 143.303812 113.03873 
z
" style="fill:#2ca02c;"/>
   </g>
   <g id="patch_30">
    <path clip-path="url(#pfd52ea4508)" d="M 158.164612 119.580099 
L 165.595012 119.580099 
L 165.595012 114.674072 
L 158.164612 114.674072 
z
" style="fill:#2ca02c;"/>
   </g>
   <g id="patch_31">
    <path clip-path="url(#pfd52ea4508)" d="M 173.025412 119.580099 
L 180.455812 119.580099 
L 180.455812 117.944756 
L 173.025412 117.944756 
z
" style="fill:#2ca02c;"/>
   </g>
   <g id="patch_32">
    <path clip-path="url(#pfd52ea4508)" d="M 187.886212 118.762428 
L 195.316612 118.762428 
L 195.316612 117.127085 
L 187.886212 117.127085 
z
" style="fill:#2ca02c;"/>
   </g>
   <g id="patch_33">
    <path clip-path="url(#pfd52ea4508)" d="M 54.139012 71.337506 
L 61.569412 71.337506 
L 61.569412 63.978466 
L 54.139012 63.978466 
z
" style="fill:#d62728;"/>
   </g>
   <g id="patch_34">
    <path clip-path="url(#pfd52ea4508)" d="M 68.999812 96.685309 
L 76.430212 96.685309 
L 76.430212 93.414624 
L 68.999812 93.414624 
z
" style="fill:#d62728;"/>
   </g>
   <g id="patch_35">
    <path clip-path="url(#pfd52ea4508)" d="M 83.860612 102.409006 
L 91.291012 102.409006 
L 91.291012 99.138322 
L 83.860612 99.138322 
z
" style="fill:#d62728;"/>
   </g>
   <g id="patch_36">
    <path clip-path="url(#pfd52ea4508)" d="M 98.721412 105.67969 
L 106.151812 105.67969 
L 106.151812 103.226677 
L 98.721412 103.226677 
z
" style="fill:#d62728;"/>
   </g>
   <g id="patch_37">
    <path clip-path="url(#pfd52ea4508)" d="M 113.582212 106.497361 
L 121.012612 106.497361 
L 121.012612 104.862019 
L 113.582212 104.862019 
z
" style="fill:#d62728;"/>
   </g>
   <g id="patch_38">
    <path clip-path="url(#pfd52ea4508)" d="M 128.443012 124.486125 
L 135.873412 124.486125 
L 135.873412 124.486125 
L 128.443012 124.486125 
z
" style="fill:#d62728;"/>
   </g>
   <g id="patch_39">
    <path clip-path="url(#pfd52ea4508)" d="M 143.303812 113.03873 
L 150.734212 113.03873 
L 150.734212 112.221059 
L 143.303812 112.221059 
z
" style="fill:#d62728;"/>
   </g>
   <g id="patch_40">
    <path clip-path="url(#pfd52ea4508)" d="M 158.164612 114.674072 
L 165.595012 114.674072 
L 165.595012 113.856401 
L 158.164612 113.856401 
z
" style="fill:#d62728;"/>
   </g>
   <g id="patch_41">
    <path clip-path="url(#pfd52ea4508)" d="M 173.025412 124.486125 
L 180.455812 124.486125 
L 180.455812 124.486125 
L 173.025412 124.486125 
z
" style="fill:#d62728;"/>
   </g>
   <g id="patch_42">
    <path clip-path="url(#pfd52ea4508)" d="M 187.886212 117.127085 
L 195.316612 117.127085 
L 195.316612 115.491743 
L 187.886212 115.491743 
z
" style="fill:#d62728;"/>
   </g>
   <g id="patch_43">
    <path clip-path="url(#pfd52ea4508)" d="M 54.139012 63.978466 
L 61.569412 63.978466 
L 61.569412 54.984084 
L 54.139012 54.984084 
z
" style="fill:#9467bd;"/>
   </g>
   <g id="patch_44">
    <path clip-path="url(#pfd52ea4508)" d="M 68.999812 93.414624 
L 76.430212 93.414624 
L 76.430212 86.055585 
L 68.999812 86.055585 
z
" style="fill:#9467bd;"/>
   </g>
   <g id="patch_45">
    <path clip-path="url(#pfd52ea4508)" d="M 83.860612 99.138322 
L 91.291012 99.138322 
L 91.291012 94.232295 
L 83.860612 94.232295 
z
" style="fill:#9467bd;"/>
   </g>
   <g id="patch_46">
    <path clip-path="url(#pfd52ea4508)" d="M 98.721412 103.226677 
L 106.151812 103.226677 
L 106.151812 98.320651 
L 98.721412 98.320651 
z
" style="fill:#9467bd;"/>
   </g>
   <g id="patch_47">
    <path clip-path="url(#pfd52ea4508)" d="M 113.582212 104.862019 
L 121.012612 104.862019 
L 121.012612 104.044348 
L 113.582212 104.044348 
z
" style="fill:#9467bd;"/>
   </g>
   <g id="patch_48">
    <path clip-path="url(#pfd52ea4508)" d="M 128.443012 124.486125 
L 135.873412 124.486125 
L 135.873412 124.486125 
L 128.443012 124.486125 
z
" style="fill:#9467bd;"/>
   </g>
   <g id="patch_49">
    <path clip-path="url(#pfd52ea4508)" d="M 143.303812 112.221059 
L 150.734212 112.221059 
L 150.734212 108.132704 
L 143.303812 108.132704 
z
" style="fill:#9467bd;"/>
   </g>
   <g id="patch_50">
    <path clip-path="url(#pfd52ea4508)" d="M 158.164612 113.856401 
L 165.595012 113.856401 
L 165.595012 113.03873 
L 158.164612 113.03873 
z
" style="fill:#9467bd;"/>
   </g>
   <g id="patch_51">
    <path clip-path="url(#pfd52ea4508)" d="M 173.025412 117.944756 
L 180.455812 117.944756 
L 180.455812 116.309414 
L 173.025412 116.309414 
z
" style="fill:#9467bd;"/>
   </g>
   <g id="patch_52">
    <path clip-path="url(#pfd52ea4508)" d="M 187.886212 115.491743 
L 195.316612 115.491743 
L 195.316612 114.674072 
L 187.886212 114.674072 
z
" style="fill:#9467bd;"/>
   </g>
   <g id="patch_53">
    <path clip-path="url(#pfd52ea4508)" d="M 54.139012 54.984084 
L 61.569412 54.984084 
L 61.569412 42.719018 
L 54.139012 42.719018 
z
" style="fill:#8c564b;"/>
   </g>
   <g id="patch_54">
    <path clip-path="url(#pfd52ea4508)" d="M 68.999812 86.055585 
L 76.430212 86.055585 
L 76.430212 59.890111 
L 68.999812 59.890111 
z
" style="fill:#8c564b;"/>
   </g>
   <g id="patch_55">
    <path clip-path="url(#pfd52ea4508)" d="M 83.860612 94.232295 
L 91.291012 94.232295 
L 91.291012 92.596953 
L 83.860612 92.596953 
z
" style="fill:#8c564b;"/>
   </g>
   <g id="patch_56">
    <path clip-path="url(#pfd52ea4508)" d="M 98.721412 98.320651 
L 106.151812 98.320651 
L 106.151812 97.50298 
L 98.721412 97.50298 
z
" style="fill:#8c564b;"/>
   </g>
   <g id="patch_57">
    <path clip-path="url(#pfd52ea4508)" d="M 113.582212 124.486125 
L 121.012612 124.486125 
L 121.012612 124.486125 
L 113.582212 124.486125 
z
" style="fill:#8c564b;"/>
   </g>
   <g id="patch_58">
    <path clip-path="url(#pfd52ea4508)" d="M 128.443012 109.768046 
L 135.873412 109.768046 
L 135.873412 99.955993 
L 128.443012 99.955993 
z
" style="fill:#8c564b;"/>
   </g>
   <g id="patch_59">
    <path clip-path="url(#pfd52ea4508)" d="M 143.303812 124.486125 
L 150.734212 124.486125 
L 150.734212 124.486125 
L 143.303812 124.486125 
z
" style="fill:#8c564b;"/>
   </g>
   <g id="patch_60">
    <path clip-path="url(#pfd52ea4508)" d="M 158.164612 113.03873 
L 165.595012 113.03873 
L 165.595012 112.221059 
L 158.164612 112.221059 
z
" style="fill:#8c564b;"/>
   </g>
   <g id="patch_61">
    <path clip-path="url(#pfd52ea4508)" d="M 173.025412 116.309414 
L 180.455812 116.309414 
L 180.455812 112.221059 
L 173.025412 112.221059 
z
" style="fill:#8c564b;"/>
   </g>
   <g id="patch_62">
    <path clip-path="url(#pfd52ea4508)" d="M 187.886212 114.674072 
L 195.316612 114.674072 
L 195.316612 113.856401 
L 187.886212 113.856401 
z
" style="fill:#8c564b;"/>
   </g>
   <g id="patch_63">
    <path clip-path="url(#pfd52ea4508)" d="M 54.139012 42.719018 
L 61.569412 42.719018 
L 61.569412 37.812992 
L 54.139012 37.812992 
z
" style="fill:#e377c2;"/>
   </g>
   <g id="patch_64">
    <path clip-path="url(#pfd52ea4508)" d="M 68.999812 59.890111 
L 76.430212 59.890111 
L 76.430212 56.619426 
L 68.999812 56.619426 
z
" style="fill:#e377c2;"/>
   </g>
   <g id="patch_65">
    <path clip-path="url(#pfd52ea4508)" d="M 83.860612 92.596953 
L 91.291012 92.596953 
L 91.291012 90.14394 
L 83.860612 90.14394 
z
" style="fill:#e377c2;"/>
   </g>
   <g id="patch_66">
    <path clip-path="url(#pfd52ea4508)" d="M 98.721412 97.50298 
L 106.151812 97.50298 
L 106.151812 96.685309 
L 98.721412 96.685309 
z
" style="fill:#e377c2;"/>
   </g>
   <g id="patch_67">
    <path clip-path="url(#pfd52ea4508)" d="M 113.582212 104.044348 
L 121.012612 104.044348 
L 121.012612 99.138322 
L 113.582212 99.138322 
z
" style="fill:#e377c2;"/>
   </g>
   <g id="patch_68">
    <path clip-path="url(#pfd52ea4508)" d="M 128.443012 124.486125 
L 135.873412 124.486125 
L 135.873412 124.486125 
L 128.443012 124.486125 
z
" style="fill:#e377c2;"/>
   </g>
   <g id="patch_69">
    <path clip-path="url(#pfd52ea4508)" d="M 143.303812 124.486125 
L 150.734212 124.486125 
L 150.734212 124.486125 
L 143.303812 124.486125 
z
" style="fill:#e377c2;"/>
   </g>
   <g id="patch_70">
    <path clip-path="url(#pfd52ea4508)" d="M 158.164612 112.221059 
L 165.595012 112.221059 
L 165.595012 110.585717 
L 158.164612 110.585717 
z
" style="fill:#e377c2;"/>
   </g>
   <g id="patch_71">
    <path clip-path="url(#pfd52ea4508)" d="M 173.025412 112.221059 
L 180.455812 112.221059 
L 180.455812 109.768046 
L 173.025412 109.768046 
z
" style="fill:#e377c2;"/>
   </g>
   <g id="patch_72">
    <path clip-path="url(#pfd52ea4508)" d="M 187.886212 124.486125 
L 195.316612 124.486125 
L 195.316612 124.486125 
L 187.886212 124.486125 
z
" style="fill:#e377c2;"/>
   </g>
   <g id="patch_73">
    <path clip-path="url(#pfd52ea4508)" d="M 54.139012 37.812992 
L 61.569412 37.812992 
L 61.569412 31.271623 
L 54.139012 31.271623 
z
" style="fill:#7f7f7f;"/>
   </g>
   <g id="patch_74">
    <path clip-path="url(#pfd52ea4508)" d="M 68.999812 56.619426 
L 76.430212 56.619426 
L 76.430212 52.531071 
L 68.999812 52.531071 
z
" style="fill:#7f7f7f;"/>
   </g>
   <g id="patch_75">
    <path clip-path="url(#pfd52ea4508)" d="M 83.860612 90.14394 
L 91.291012 90.14394 
L 91.291012 85.237914 
L 83.860612 85.237914 
z
" style="fill:#7f7f7f;"/>
   </g>
   <g id="patch_76">
    <path clip-path="url(#pfd52ea4508)" d="M 98.721412 96.685309 
L 106.151812 96.685309 
L 106.151812 92.596953 
L 98.721412 92.596953 
z
" style="fill:#7f7f7f;"/>
   </g>
   <g id="patch_77">
    <path clip-path="url(#pfd52ea4508)" d="M 113.582212 99.138322 
L 121.012612 99.138322 
L 121.012612 97.50298 
L 113.582212 97.50298 
z
" style="fill:#7f7f7f;"/>
   </g>
   <g id="patch_78">
    <path clip-path="url(#pfd52ea4508)" d="M 128.443012 124.486125 
L 135.873412 124.486125 
L 135.873412 124.486125 
L 128.443012 124.486125 
z
" style="fill:#7f7f7f;"/>
   </g>
   <g id="patch_79">
    <path clip-path="url(#pfd52ea4508)" d="M 143.303812 108.132704 
L 150.734212 108.132704 
L 150.734212 106.497361 
L 143.303812 106.497361 
z
" style="fill:#7f7f7f;"/>
   </g>
   <g id="patch_80">
    <path clip-path="url(#pfd52ea4508)" d="M 158.164612 110.585717 
L 165.595012 110.585717 
L 165.595012 109.768046 
L 158.164612 109.768046 
z
" style="fill:#7f7f7f;"/>
   </g>
   <g id="patch_81">
    <path clip-path="url(#pfd52ea4508)" d="M 173.025412 124.486125 
L 180.455812 124.486125 
L 180.455812 124.486125 
L 173.025412 124.486125 
z
" style="fill:#7f7f7f;"/>
   </g>
   <g id="patch_82">
    <path clip-path="url(#pfd52ea4508)" d="M 187.886212 124.486125 
L 195.316612 124.486125 
L 195.316612 124.486125 
L 187.886212 124.486125 
z
" style="fill:#7f7f7f;"/>
   </g>
   <g id="patch_83">
    <path clip-path="url(#pfd52ea4508)" d="M 54.139012 31.271623 
L 61.569412 31.271623 
L 61.569412 29.636281 
L 54.139012 29.636281 
z
" style="fill:#bcbd22;"/>
   </g>
   <g id="patch_84">
    <path clip-path="url(#pfd52ea4508)" d="M 68.999812 52.531071 
L 76.430212 52.531071 
L 76.430212 50.895729 
L 68.999812 50.895729 
z
" style="fill:#bcbd22;"/>
   </g>
   <g id="patch_85">
    <path clip-path="url(#pfd52ea4508)" d="M 83.860612 85.237914 
L 91.291012 85.237914 
L 91.291012 84.420243 
L 83.860612 84.420243 
z
" style="fill:#bcbd22;"/>
   </g>
   <g id="patch_86">
    <path clip-path="url(#pfd52ea4508)" d="M 98.721412 124.486125 
L 106.151812 124.486125 
L 106.151812 124.486125 
L 98.721412 124.486125 
z
" style="fill:#bcbd22;"/>
   </g>
   <g id="patch_87">
    <path clip-path="url(#pfd52ea4508)" d="M 113.582212 97.50298 
L 121.012612 97.50298 
L 121.012612 96.685309 
L 113.582212 96.685309 
z
" style="fill:#bcbd22;"/>
   </g>
   <g id="patch_88">
    <path clip-path="url(#pfd52ea4508)" d="M 128.443012 124.486125 
L 135.873412 124.486125 
L 135.873412 124.486125 
L 128.443012 124.486125 
z
" style="fill:#bcbd22;"/>
   </g>
   <g id="patch_89">
    <path clip-path="url(#pfd52ea4508)" d="M 143.303812 124.486125 
L 150.734212 124.486125 
L 150.734212 124.486125 
L 143.303812 124.486125 
z
" style="fill:#bcbd22;"/>
   </g>
   <g id="patch_90">
    <path clip-path="url(#pfd52ea4508)" d="M 158.164612 109.768046 
L 165.595012 109.768046 
L 165.595012 108.950375 
L 158.164612 108.950375 
z
" style="fill:#bcbd22;"/>
   </g>
   <g id="patch_91">
    <path clip-path="url(#pfd52ea4508)" d="M 173.025412 124.486125 
L 180.455812 124.486125 
L 180.455812 124.486125 
L 173.025412 124.486125 
z
" style="fill:#bcbd22;"/>
   </g>
   <g id="patch_92">
    <path clip-path="url(#pfd52ea4508)" d="M 187.886212 124.486125 
L 195.316612 124.486125 
L 195.316612 124.486125 
L 187.886212 124.486125 
z
" style="fill:#bcbd22;"/>
   </g>
   <g id="patch_93">
    <path clip-path="url(#pfd52ea4508)" d="M 54.139012 29.636281 
L 61.569412 29.636281 
L 61.569412 27.183268 
L 54.139012 27.183268 
z
" style="fill:#17becf;"/>
   </g>
   <g id="patch_94">
    <path clip-path="url(#pfd52ea4508)" d="M 68.999812 50.895729 
L 76.430212 50.895729 
L 76.430212 50.078058 
L 68.999812 50.078058 
z
" style="fill:#17becf;"/>
   </g>
   <g id="patch_95">
    <path clip-path="url(#pfd52ea4508)" d="M 83.860612 84.420243 
L 91.291012 84.420243 
L 91.291012 82.784901 
L 83.860612 82.784901 
z
" style="fill:#17becf;"/>
   </g>
   <g id="patch_96">
    <path clip-path="url(#pfd52ea4508)" d="M 98.721412 124.486125 
L 106.151812 124.486125 
L 106.151812 124.486125 
L 98.721412 124.486125 
z
" style="fill:#17becf;"/>
   </g>
   <g id="patch_97">
    <path clip-path="url(#pfd52ea4508)" d="M 113.582212 96.685309 
L 121.012612 96.685309 
L 121.012612 95.867638 
L 113.582212 95.867638 
z
" style="fill:#17becf;"/>
   </g>
   <g id="patch_98">
    <path clip-path="url(#pfd52ea4508)" d="M 128.443012 124.486125 
L 135.873412 124.486125 
L 135.873412 124.486125 
L 128.443012 124.486125 
z
" style="fill:#17becf;"/>
   </g>
   <g id="patch_99">
    <path clip-path="url(#pfd52ea4508)" d="M 143.303812 124.486125 
L 150.734212 124.486125 
L 150.734212 124.486125 
L 143.303812 124.486125 
z
" style="fill:#17becf;"/>
   </g>
   <g id="patch_100">
    <path clip-path="url(#pfd52ea4508)" d="M 158.164612 108.950375 
L 165.595012 108.950375 
L 165.595012 107.315033 
L 158.164612 107.315033 
z
" style="fill:#17becf;"/>
   </g>
   <g id="patch_101">
    <path clip-path="url(#pfd52ea4508)" d="M 173.025412 124.486125 
L 180.455812 124.486125 
L 180.455812 124.486125 
L 173.025412 124.486125 
z
" style="fill:#17becf;"/>
   </g>
   <g id="patch_102">
    <path clip-path="url(#pfd52ea4508)" d="M 187.886212 113.856401 
L 195.316612 113.856401 
L 195.316612 113.03873 
L 187.886212 113.03873 
z
" style="fill:#17becf;"/>
   </g>
   <g id="matplotlib.axis_1">
    <g id="xtick_1">
     <g id="line2d_1"/>
     <g id="text_1">
      <!-- 16 -->
      <defs>
       <path d="M 12.40625 8.296875 
L 28.515625 8.296875 
L 28.515625 63.921875 
L 10.984375 60.40625 
L 10.984375 69.390625 
L 28.421875 72.90625 
L 38.28125 72.90625 
L 38.28125 8.296875 
L 54.390625 8.296875 
L 54.390625 0 
L 12.40625 0 
z
" id="DejaVuSans-49"/>
       <path d="M 33.015625 40.375 
Q 26.375 40.375 22.484375 35.828125 
Q 18.609375 31.296875 18.609375 23.390625 
Q 18.609375 15.53125 22.484375 10.953125 
Q 26.375 6.390625 33.015625 6.390625 
Q 39.65625 6.390625 43.53125 10.953125 
Q 47.40625 15.53125 47.40625 23.390625 
Q 47.40625 31.296875 43.53125 35.828125 
Q 39.65625 40.375 33.015625 40.375 
z
M 52.59375 71.296875 
L 52.59375 62.3125 
Q 48.875 64.0625 45.09375 64.984375 
Q 41.3125 65.921875 37.59375 65.921875 
Q 27.828125 65.921875 22.671875 59.328125 
Q 17.53125 52.734375 16.796875 39.40625 
Q 19.671875 43.65625 24.015625 45.921875 
Q 28.375 48.1875 33.59375 48.1875 
Q 44.578125 48.1875 50.953125 41.515625 
Q 57.328125 34.859375 57.328125 23.390625 
Q 57.328125 12.15625 50.6875 5.359375 
Q 44.046875 -1.421875 33.015625 -1.421875 
Q 20.359375 -1.421875 13.671875 8.265625 
Q 6.984375 17.96875 6.984375 36.375 
Q 6.984375 53.65625 15.1875 63.9375 
Q 23.390625 74.21875 37.203125 74.21875 
Q 40.921875 74.21875 44.703125 73.484375 
Q 48.484375 72.75 52.59375 71.296875 
z
" id="DejaVuSans-54"/>
      </defs>
      <g transform="translate(48.206199 138.340477)rotate(-30)scale(0.08 -0.08)">
       <use xlink:href="#DejaVuSans-49"/>
       <use x="63.623047" xlink:href="#DejaVuSans-54"/>
      </g>
     </g>
    </g>
    <g id="xtick_2">
     <g id="line2d_2"/>
     <g id="text_2">
      <!-- 2 -->
      <defs>
       <path d="M 19.1875 8.296875 
L 53.609375 8.296875 
L 53.609375 0 
L 7.328125 0 
L 7.328125 8.296875 
Q 12.9375 14.109375 22.625 23.890625 
Q 32.328125 33.6875 34.8125 36.53125 
Q 39.546875 41.84375 41.421875 45.53125 
Q 43.3125 49.21875 43.3125 52.78125 
Q 43.3125 58.59375 39.234375 62.25 
Q 35.15625 65.921875 28.609375 65.921875 
Q 23.96875 65.921875 18.8125 64.3125 
Q 13.671875 62.703125 7.8125 59.421875 
L 7.8125 69.390625 
Q 13.765625 71.78125 18.9375 73 
Q 24.125 74.21875 28.421875 74.21875 
Q 39.75 74.21875 46.484375 68.546875 
Q 53.21875 62.890625 53.21875 53.421875 
Q 53.21875 48.921875 51.53125 44.890625 
Q 49.859375 40.875 45.40625 35.40625 
Q 44.1875 33.984375 37.640625 27.21875 
Q 31.109375 20.453125 19.1875 8.296875 
z
" id="DejaVuSans-50"/>
      </defs>
      <g transform="translate(67.475068 135.795477)rotate(-30)scale(0.08 -0.08)">
       <use xlink:href="#DejaVuSans-50"/>
      </g>
     </g>
    </g>
    <g id="xtick_3">
     <g id="line2d_3"/>
     <g id="text_3">
      <!-- 149 -->
      <defs>
       <path d="M 37.796875 64.3125 
L 12.890625 25.390625 
L 37.796875 25.390625 
z
M 35.203125 72.90625 
L 47.609375 72.90625 
L 47.609375 25.390625 
L 58.015625 25.390625 
L 58.015625 17.1875 
L 47.609375 17.1875 
L 47.609375 0 
L 37.796875 0 
L 37.796875 17.1875 
L 4.890625 17.1875 
L 4.890625 26.703125 
z
" id="DejaVuSans-52"/>
       <path d="M 10.984375 1.515625 
L 10.984375 10.5 
Q 14.703125 8.734375 18.5 7.8125 
Q 22.3125 6.890625 25.984375 6.890625 
Q 35.75 6.890625 40.890625 13.453125 
Q 46.046875 20.015625 46.78125 33.40625 
Q 43.953125 29.203125 39.59375 26.953125 
Q 35.25 24.703125 29.984375 24.703125 
Q 19.046875 24.703125 12.671875 31.3125 
Q 6.296875 37.9375 6.296875 49.421875 
Q 6.296875 60.640625 12.9375 67.421875 
Q 19.578125 74.21875 30.609375 74.21875 
Q 43.265625 74.21875 49.921875 64.515625 
Q 56.59375 54.828125 56.59375 36.375 
Q 56.59375 19.140625 48.40625 8.859375 
Q 40.234375 -1.421875 26.421875 -1.421875 
Q 22.703125 -1.421875 18.890625 -0.6875 
Q 15.09375 0.046875 10.984375 1.515625 
z
M 30.609375 32.421875 
Q 37.25 32.421875 41.125 36.953125 
Q 45.015625 41.5 45.015625 49.421875 
Q 45.015625 57.28125 41.125 61.84375 
Q 37.25 66.40625 30.609375 66.40625 
Q 23.96875 66.40625 20.09375 61.84375 
Q 16.21875 57.28125 16.21875 49.421875 
Q 16.21875 41.5 20.09375 36.953125 
Q 23.96875 32.421875 30.609375 32.421875 
z
" id="DejaVuSans-57"/>
      </defs>
      <g transform="translate(73.51973 140.885477)rotate(-30)scale(0.08 -0.08)">
       <use xlink:href="#DejaVuSans-49"/>
       <use x="63.623047" xlink:href="#DejaVuSans-52"/>
       <use x="127.246094" xlink:href="#DejaVuSans-57"/>
      </g>
     </g>
    </g>
    <g id="xtick_4">
     <g id="line2d_4"/>
     <g id="text_4">
      <!-- 89 -->
      <defs>
       <path d="M 31.78125 34.625 
Q 24.75 34.625 20.71875 30.859375 
Q 16.703125 27.09375 16.703125 20.515625 
Q 16.703125 13.921875 20.71875 10.15625 
Q 24.75 6.390625 31.78125 6.390625 
Q 38.8125 6.390625 42.859375 10.171875 
Q 46.921875 13.96875 46.921875 20.515625 
Q 46.921875 27.09375 42.890625 30.859375 
Q 38.875 34.625 31.78125 34.625 
z
M 21.921875 38.8125 
Q 15.578125 40.375 12.03125 44.71875 
Q 8.5 49.078125 8.5 55.328125 
Q 8.5 64.0625 14.71875 69.140625 
Q 20.953125 74.21875 31.78125 74.21875 
Q 42.671875 74.21875 48.875 69.140625 
Q 55.078125 64.0625 55.078125 55.328125 
Q 55.078125 49.078125 51.53125 44.71875 
Q 48 40.375 41.703125 38.8125 
Q 48.828125 37.15625 52.796875 32.3125 
Q 56.78125 27.484375 56.78125 20.515625 
Q 56.78125 9.90625 50.3125 4.234375 
Q 43.84375 -1.421875 31.78125 -1.421875 
Q 19.734375 -1.421875 13.25 4.234375 
Q 6.78125 9.90625 6.78125 20.515625 
Q 6.78125 27.484375 10.78125 32.3125 
Q 14.796875 37.15625 21.921875 38.8125 
z
M 18.3125 54.390625 
Q 18.3125 48.734375 21.84375 45.5625 
Q 25.390625 42.390625 31.78125 42.390625 
Q 38.140625 42.390625 41.71875 45.5625 
Q 45.3125 48.734375 45.3125 54.390625 
Q 45.3125 60.0625 41.71875 63.234375 
Q 38.140625 66.40625 31.78125 66.40625 
Q 25.390625 66.40625 21.84375 63.234375 
Q 18.3125 60.0625 18.3125 54.390625 
z
" id="DejaVuSans-56"/>
      </defs>
      <g transform="translate(92.788599 138.340477)rotate(-30)scale(0.08 -0.08)">
       <use xlink:href="#DejaVuSans-56"/>
       <use x="63.623047" xlink:href="#DejaVuSans-57"/>
      </g>
     </g>
    </g>
    <g id="xtick_5">
     <g id="line2d_5"/>
     <g id="text_5">
      <!-- 151 -->
      <defs>
       <path d="M 10.796875 72.90625 
L 49.515625 72.90625 
L 49.515625 64.59375 
L 19.828125 64.59375 
L 19.828125 46.734375 
Q 21.96875 47.46875 24.109375 47.828125 
Q 26.265625 48.1875 28.421875 48.1875 
Q 40.625 48.1875 47.75 41.5 
Q 54.890625 34.8125 54.890625 23.390625 
Q 54.890625 11.625 47.5625 5.09375 
Q 40.234375 -1.421875 26.90625 -1.421875 
Q 22.3125 -1.421875 17.546875 -0.640625 
Q 12.796875 0.140625 7.71875 1.703125 
L 7.71875 11.625 
Q 12.109375 9.234375 16.796875 8.0625 
Q 21.484375 6.890625 26.703125 6.890625 
Q 35.15625 6.890625 40.078125 11.328125 
Q 45.015625 15.765625 45.015625 23.390625 
Q 45.015625 31 40.078125 35.4375 
Q 35.15625 39.890625 26.703125 39.890625 
Q 22.75 39.890625 18.8125 39.015625 
Q 14.890625 38.140625 10.796875 36.28125 
z
" id="DejaVuSans-53"/>
      </defs>
      <g transform="translate(103.24133 140.885477)rotate(-30)scale(0.08 -0.08)">
       <use xlink:href="#DejaVuSans-49"/>
       <use x="63.623047" xlink:href="#DejaVuSans-53"/>
       <use x="127.246094" xlink:href="#DejaVuSans-49"/>
      </g>
     </g>
    </g>
    <g id="xtick_6">
     <g id="line2d_6"/>
     <g id="text_6">
      <!-- 279 -->
      <defs>
       <path d="M 8.203125 72.90625 
L 55.078125 72.90625 
L 55.078125 68.703125 
L 28.609375 0 
L 18.3125 0 
L 43.21875 64.59375 
L 8.203125 64.59375 
z
" id="DejaVuSans-55"/>
      </defs>
      <g transform="translate(118.10213 140.885477)rotate(-30)scale(0.08 -0.08)">
       <use xlink:href="#DejaVuSans-50"/>
       <use x="63.623047" xlink:href="#DejaVuSans-55"/>
       <use x="127.246094" xlink:href="#DejaVuSans-57"/>
      </g>
     </g>
    </g>
    <g id="xtick_7">
     <g id="line2d_7"/>
     <g id="text_7">
      <!-- 206 -->
      <defs>
       <path d="M 31.78125 66.40625 
Q 24.171875 66.40625 20.328125 58.90625 
Q 16.5 51.421875 16.5 36.375 
Q 16.5 21.390625 20.328125 13.890625 
Q 24.171875 6.390625 31.78125 6.390625 
Q 39.453125 6.390625 43.28125 13.890625 
Q 47.125 21.390625 47.125 36.375 
Q 47.125 51.421875 43.28125 58.90625 
Q 39.453125 66.40625 31.78125 66.40625 
z
M 31.78125 74.21875 
Q 44.046875 74.21875 50.515625 64.515625 
Q 56.984375 54.828125 56.984375 36.375 
Q 56.984375 17.96875 50.515625 8.265625 
Q 44.046875 -1.421875 31.78125 -1.421875 
Q 19.53125 -1.421875 13.0625 8.265625 
Q 6.59375 17.96875 6.59375 36.375 
Q 6.59375 54.828125 13.0625 64.515625 
Q 19.53125 74.21875 31.78125 74.21875 
z
" id="DejaVuSans-48"/>
      </defs>
      <g transform="translate(132.96293 140.885477)rotate(-30)scale(0.08 -0.08)">
       <use xlink:href="#DejaVuSans-50"/>
       <use x="63.623047" xlink:href="#DejaVuSans-48"/>
       <use x="127.246094" xlink:href="#DejaVuSans-54"/>
      </g>
     </g>
    </g>
    <g id="xtick_8">
     <g id="line2d_8"/>
     <g id="text_8">
      <!-- 18 -->
      <g transform="translate(152.231799 138.340477)rotate(-30)scale(0.08 -0.08)">
       <use xlink:href="#DejaVuSans-49"/>
       <use x="63.623047" xlink:href="#DejaVuSans-56"/>
      </g>
     </g>
    </g>
    <g id="xtick_9">
     <g id="line2d_9"/>
     <g id="text_9">
      <!-- 292 -->
      <g transform="translate(162.68453 140.885477)rotate(-30)scale(0.08 -0.08)">
       <use xlink:href="#DejaVuSans-50"/>
       <use x="63.623047" xlink:href="#DejaVuSans-57"/>
       <use x="127.246094" xlink:href="#DejaVuSans-50"/>
      </g>
     </g>
    </g>
    <g id="xtick_10">
     <g id="line2d_10"/>
     <g id="text_10">
      <!-- 434 -->
      <defs>
       <path d="M 40.578125 39.3125 
Q 47.65625 37.796875 51.625 33 
Q 55.609375 28.21875 55.609375 21.1875 
Q 55.609375 10.40625 48.1875 4.484375 
Q 40.765625 -1.421875 27.09375 -1.421875 
Q 22.515625 -1.421875 17.65625 -0.515625 
Q 12.796875 0.390625 7.625 2.203125 
L 7.625 11.71875 
Q 11.71875 9.328125 16.59375 8.109375 
Q 21.484375 6.890625 26.8125 6.890625 
Q 36.078125 6.890625 40.9375 10.546875 
Q 45.796875 14.203125 45.796875 21.1875 
Q 45.796875 27.640625 41.28125 31.265625 
Q 36.765625 34.90625 28.71875 34.90625 
L 20.21875 34.90625 
L 20.21875 43.015625 
L 29.109375 43.015625 
Q 36.375 43.015625 40.234375 45.921875 
Q 44.09375 48.828125 44.09375 54.296875 
Q 44.09375 59.90625 40.109375 62.90625 
Q 36.140625 65.921875 28.71875 65.921875 
Q 24.65625 65.921875 20.015625 65.03125 
Q 15.375 64.15625 9.8125 62.3125 
L 9.8125 71.09375 
Q 15.4375 72.65625 20.34375 73.4375 
Q 25.25 74.21875 29.59375 74.21875 
Q 40.828125 74.21875 47.359375 69.109375 
Q 53.90625 64.015625 53.90625 55.328125 
Q 53.90625 49.265625 50.4375 45.09375 
Q 46.96875 40.921875 40.578125 39.3125 
z
" id="DejaVuSans-51"/>
      </defs>
      <g transform="translate(177.54533 140.885477)rotate(-30)scale(0.08 -0.08)">
       <use xlink:href="#DejaVuSans-52"/>
       <use x="63.623047" xlink:href="#DejaVuSans-51"/>
       <use x="127.246094" xlink:href="#DejaVuSans-52"/>
      </g>
     </g>
    </g>
    <g id="text_11">
     <!-- Number of cells -->
     <defs>
      <path d="M 9.8125 72.90625 
L 23.09375 72.90625 
L 55.421875 11.921875 
L 55.421875 72.90625 
L 64.984375 72.90625 
L 64.984375 0 
L 51.703125 0 
L 19.390625 60.984375 
L 19.390625 0 
L 9.8125 0 
z
" id="DejaVuSans-78"/>
      <path d="M 8.5 21.578125 
L 8.5 54.6875 
L 17.484375 54.6875 
L 17.484375 21.921875 
Q 17.484375 14.15625 20.5 10.265625 
Q 23.53125 6.390625 29.59375 6.390625 
Q 36.859375 6.390625 41.078125 11.03125 
Q 45.3125 15.671875 45.3125 23.6875 
L 45.3125 54.6875 
L 54.296875 54.6875 
L 54.296875 0 
L 45.3125 0 
L 45.3125 8.40625 
Q 42.046875 3.421875 37.71875 1 
Q 33.40625 -1.421875 27.6875 -1.421875 
Q 18.265625 -1.421875 13.375 4.4375 
Q 8.5 10.296875 8.5 21.578125 
z
M 31.109375 56 
z
" id="DejaVuSans-117"/>
      <path d="M 52 44.1875 
Q 55.375 50.25 60.0625 53.125 
Q 64.75 56 71.09375 56 
Q 79.640625 56 84.28125 50.015625 
Q 88.921875 44.046875 88.921875 33.015625 
L 88.921875 0 
L 79.890625 0 
L 79.890625 32.71875 
Q 79.890625 40.578125 77.09375 44.375 
Q 74.3125 48.1875 68.609375 48.1875 
Q 61.625 48.1875 57.5625 43.546875 
Q 53.515625 38.921875 53.515625 30.90625 
L 53.515625 0 
L 44.484375 0 
L 44.484375 32.71875 
Q 44.484375 40.625 41.703125 44.40625 
Q 38.921875 48.1875 33.109375 48.1875 
Q 26.21875 48.1875 22.15625 43.53125 
Q 18.109375 38.875 18.109375 30.90625 
L 18.109375 0 
L 9.078125 0 
L 9.078125 54.6875 
L 18.109375 54.6875 
L 18.109375 46.1875 
Q 21.1875 51.21875 25.484375 53.609375 
Q 29.78125 56 35.6875 56 
Q 41.65625 56 45.828125 52.96875 
Q 50 49.953125 52 44.1875 
z
" id="DejaVuSans-109"/>
      <path d="M 48.6875 27.296875 
Q 48.6875 37.203125 44.609375 42.84375 
Q 40.53125 48.484375 33.40625 48.484375 
Q 26.265625 48.484375 22.1875 42.84375 
Q 18.109375 37.203125 18.109375 27.296875 
Q 18.109375 17.390625 22.1875 11.75 
Q 26.265625 6.109375 33.40625 6.109375 
Q 40.53125 6.109375 44.609375 11.75 
Q 48.6875 17.390625 48.6875 27.296875 
z
M 18.109375 46.390625 
Q 20.953125 51.265625 25.265625 53.625 
Q 29.59375 56 35.59375 56 
Q 45.5625 56 51.78125 48.09375 
Q 58.015625 40.1875 58.015625 27.296875 
Q 58.015625 14.40625 51.78125 6.484375 
Q 45.5625 -1.421875 35.59375 -1.421875 
Q 29.59375 -1.421875 25.265625 0.953125 
Q 20.953125 3.328125 18.109375 8.203125 
L 18.109375 0 
L 9.078125 0 
L 9.078125 75.984375 
L 18.109375 75.984375 
z
" id="DejaVuSans-98"/>
      <path d="M 56.203125 29.59375 
L 56.203125 25.203125 
L 14.890625 25.203125 
Q 15.484375 15.921875 20.484375 11.0625 
Q 25.484375 6.203125 34.421875 6.203125 
Q 39.59375 6.203125 44.453125 7.46875 
Q 49.3125 8.734375 54.109375 11.28125 
L 54.109375 2.78125 
Q 49.265625 0.734375 44.1875 -0.34375 
Q 39.109375 -1.421875 33.890625 -1.421875 
Q 20.796875 -1.421875 13.15625 6.1875 
Q 5.515625 13.8125 5.515625 26.8125 
Q 5.515625 40.234375 12.765625 48.109375 
Q 20.015625 56 32.328125 56 
Q 43.359375 56 49.78125 48.890625 
Q 56.203125 41.796875 56.203125 29.59375 
z
M 47.21875 32.234375 
Q 47.125 39.59375 43.09375 43.984375 
Q 39.0625 48.390625 32.421875 48.390625 
Q 24.90625 48.390625 20.390625 44.140625 
Q 15.875 39.890625 15.1875 32.171875 
z
" id="DejaVuSans-101"/>
      <path d="M 41.109375 46.296875 
Q 39.59375 47.171875 37.8125 47.578125 
Q 36.03125 48 33.890625 48 
Q 26.265625 48 22.1875 43.046875 
Q 18.109375 38.09375 18.109375 28.8125 
L 18.109375 0 
L 9.078125 0 
L 9.078125 54.6875 
L 18.109375 54.6875 
L 18.109375 46.1875 
Q 20.953125 51.171875 25.484375 53.578125 
Q 30.03125 56 36.53125 56 
Q 37.453125 56 38.578125 55.875 
Q 39.703125 55.765625 41.0625 55.515625 
z
" id="DejaVuSans-114"/>
      <path id="DejaVuSans-32"/>
      <path d="M 30.609375 48.390625 
Q 23.390625 48.390625 19.1875 42.75 
Q 14.984375 37.109375 14.984375 27.296875 
Q 14.984375 17.484375 19.15625 11.84375 
Q 23.34375 6.203125 30.609375 6.203125 
Q 37.796875 6.203125 41.984375 11.859375 
Q 46.1875 17.53125 46.1875 27.296875 
Q 46.1875 37.015625 41.984375 42.703125 
Q 37.796875 48.390625 30.609375 48.390625 
z
M 30.609375 56 
Q 42.328125 56 49.015625 48.375 
Q 55.71875 40.765625 55.71875 27.296875 
Q 55.71875 13.875 49.015625 6.21875 
Q 42.328125 -1.421875 30.609375 -1.421875 
Q 18.84375 -1.421875 12.171875 6.21875 
Q 5.515625 13.875 5.515625 27.296875 
Q 5.515625 40.765625 12.171875 48.375 
Q 18.84375 56 30.609375 56 
z
" id="DejaVuSans-111"/>
      <path d="M 37.109375 75.984375 
L 37.109375 68.5 
L 28.515625 68.5 
Q 23.6875 68.5 21.796875 66.546875 
Q 19.921875 64.59375 19.921875 59.515625 
L 19.921875 54.6875 
L 34.71875 54.6875 
L 34.71875 47.703125 
L 19.921875 47.703125 
L 19.921875 0 
L 10.890625 0 
L 10.890625 47.703125 
L 2.296875 47.703125 
L 2.296875 54.6875 
L 10.890625 54.6875 
L 10.890625 58.5 
Q 10.890625 67.625 15.140625 71.796875 
Q 19.390625 75.984375 28.609375 75.984375 
z
" id="DejaVuSans-102"/>
      <path d="M 48.78125 52.59375 
L 48.78125 44.1875 
Q 44.96875 46.296875 41.140625 47.34375 
Q 37.3125 48.390625 33.40625 48.390625 
Q 24.65625 48.390625 19.8125 42.84375 
Q 14.984375 37.3125 14.984375 27.296875 
Q 14.984375 17.28125 19.8125 11.734375 
Q 24.65625 6.203125 33.40625 6.203125 
Q 37.3125 6.203125 41.140625 7.25 
Q 44.96875 8.296875 48.78125 10.40625 
L 48.78125 2.09375 
Q 45.015625 0.34375 40.984375 -0.53125 
Q 36.96875 -1.421875 32.421875 -1.421875 
Q 20.0625 -1.421875 12.78125 6.34375 
Q 5.515625 14.109375 5.515625 27.296875 
Q 5.515625 40.671875 12.859375 48.328125 
Q 20.21875 56 33.015625 56 
Q 37.15625 56 41.109375 55.140625 
Q 45.0625 54.296875 48.78125 52.59375 
z
" id="DejaVuSans-99"/>
      <path d="M 9.421875 75.984375 
L 18.40625 75.984375 
L 18.40625 0 
L 9.421875 0 
z
" id="DejaVuSans-108"/>
      <path d="M 44.28125 53.078125 
L 44.28125 44.578125 
Q 40.484375 46.53125 36.375 47.5 
Q 32.28125 48.484375 27.875 48.484375 
Q 21.1875 48.484375 17.84375 46.4375 
Q 14.5 44.390625 14.5 40.28125 
Q 14.5 37.15625 16.890625 35.375 
Q 19.28125 33.59375 26.515625 31.984375 
L 29.59375 31.296875 
Q 39.15625 29.25 43.1875 25.515625 
Q 47.21875 21.78125 47.21875 15.09375 
Q 47.21875 7.46875 41.1875 3.015625 
Q 35.15625 -1.421875 24.609375 -1.421875 
Q 20.21875 -1.421875 15.453125 -0.5625 
Q 10.6875 0.296875 5.421875 2 
L 5.421875 11.28125 
Q 10.40625 8.6875 15.234375 7.390625 
Q 20.0625 6.109375 24.8125 6.109375 
Q 31.15625 6.109375 34.5625 8.28125 
Q 37.984375 10.453125 37.984375 14.40625 
Q 37.984375 18.0625 35.515625 20.015625 
Q 33.0625 21.96875 24.703125 23.78125 
L 21.578125 24.515625 
Q 13.234375 26.265625 9.515625 29.90625 
Q 5.8125 33.546875 5.8125 39.890625 
Q 5.8125 47.609375 11.28125 51.796875 
Q 16.75 56 26.8125 56 
Q 31.78125 56 36.171875 55.265625 
Q 40.578125 54.546875 44.28125 53.078125 
z
" id="DejaVuSans-115"/>
     </defs>
     <g transform="translate(85.435625 153.924764)scale(0.1 -0.1)">
      <use xlink:href="#DejaVuSans-78"/>
      <use x="74.804688" xlink:href="#DejaVuSans-117"/>
      <use x="138.183594" xlink:href="#DejaVuSans-109"/>
      <use x="235.595703" xlink:href="#DejaVuSans-98"/>
      <use x="299.072266" xlink:href="#DejaVuSans-101"/>
      <use x="360.595703" xlink:href="#DejaVuSans-114"/>
      <use x="401.708984" xlink:href="#DejaVuSans-32"/>
      <use x="433.496094" xlink:href="#DejaVuSans-111"/>
      <use x="494.677734" xlink:href="#DejaVuSans-102"/>
      <use x="529.882812" xlink:href="#DejaVuSans-32"/>
      <use x="561.669922" xlink:href="#DejaVuSans-99"/>
      <use x="616.650391" xlink:href="#DejaVuSans-101"/>
      <use x="678.173828" xlink:href="#DejaVuSans-108"/>
      <use x="705.957031" xlink:href="#DejaVuSans-108"/>
      <use x="733.740234" xlink:href="#DejaVuSans-115"/>
     </g>
    </g>
   </g>
   <g id="matplotlib.axis_2">
    <g id="ytick_1">
     <g id="line2d_11">
      <defs>
       <path d="M 0 0 
L -3.5 0 
" id="mcf480cb7dc" style="stroke:#000000;stroke-width:0.8;"/>
      </defs>
      <g>
       <use style="stroke:#000000;stroke-width:0.8;" x="50.423812" xlink:href="#mcf480cb7dc" y="124.486125"/>
      </g>
     </g>
     <g id="text_12">
      <!-- 0 -->
      <g transform="translate(37.061312 128.285344)scale(0.1 -0.1)">
       <use xlink:href="#DejaVuSans-48"/>
      </g>
     </g>
    </g>
    <g id="ytick_2">
     <g id="line2d_12">
      <g>
       <use style="stroke:#000000;stroke-width:0.8;" x="50.423812" xlink:href="#mcf480cb7dc" y="104.044348"/>
      </g>
     </g>
     <g id="text_13">
      <!-- 25 -->
      <g transform="translate(30.698812 107.843567)scale(0.1 -0.1)">
       <use xlink:href="#DejaVuSans-50"/>
       <use x="63.623047" xlink:href="#DejaVuSans-53"/>
      </g>
     </g>
    </g>
    <g id="ytick_3">
     <g id="line2d_13">
      <g>
       <use style="stroke:#000000;stroke-width:0.8;" x="50.423812" xlink:href="#mcf480cb7dc" y="83.602572"/>
      </g>
     </g>
     <g id="text_14">
      <!-- 50 -->
      <g transform="translate(30.698812 87.40179)scale(0.1 -0.1)">
       <use xlink:href="#DejaVuSans-53"/>
       <use x="63.623047" xlink:href="#DejaVuSans-48"/>
      </g>
     </g>
    </g>
    <g id="ytick_4">
     <g id="line2d_14">
      <g>
       <use style="stroke:#000000;stroke-width:0.8;" x="50.423812" xlink:href="#mcf480cb7dc" y="63.160795"/>
      </g>
     </g>
     <g id="text_15">
      <!-- 75 -->
      <g transform="translate(30.698812 66.960014)scale(0.1 -0.1)">
       <use xlink:href="#DejaVuSans-55"/>
       <use x="63.623047" xlink:href="#DejaVuSans-53"/>
      </g>
     </g>
    </g>
    <g id="ytick_5">
     <g id="line2d_15">
      <g>
       <use style="stroke:#000000;stroke-width:0.8;" x="50.423812" xlink:href="#mcf480cb7dc" y="42.719018"/>
      </g>
     </g>
     <g id="text_16">
      <!-- 100 -->
      <g transform="translate(24.336312 46.518237)scale(0.1 -0.1)">
       <use xlink:href="#DejaVuSans-49"/>
       <use x="63.623047" xlink:href="#DejaVuSans-48"/>
       <use x="127.246094" xlink:href="#DejaVuSans-48"/>
      </g>
     </g>
    </g>
    <g id="text_17">
     <!-- Number of cells -->
     <g transform="translate(18.256625 112.694313)rotate(-90)scale(0.1 -0.1)">
      <use xlink:href="#DejaVuSans-78"/>
      <use x="74.804688" xlink:href="#DejaVuSans-117"/>
      <use x="138.183594" xlink:href="#DejaVuSans-109"/>
      <use x="235.595703" xlink:href="#DejaVuSans-98"/>
      <use x="299.072266" xlink:href="#DejaVuSans-101"/>
      <use x="360.595703" xlink:href="#DejaVuSans-114"/>
      <use x="401.708984" xlink:href="#DejaVuSans-32"/>
      <use x="433.496094" xlink:href="#DejaVuSans-111"/>
      <use x="494.677734" xlink:href="#DejaVuSans-102"/>
      <use x="529.882812" xlink:href="#DejaVuSans-32"/>
      <use x="561.669922" xlink:href="#DejaVuSans-99"/>
      <use x="616.650391" xlink:href="#DejaVuSans-101"/>
      <use x="678.173828" xlink:href="#DejaVuSans-108"/>
      <use x="705.957031" xlink:href="#DejaVuSans-108"/>
      <use x="733.740234" xlink:href="#DejaVuSans-115"/>
     </g>
    </g>
   </g>
   <g id="patch_103">
    <path d="M 50.423812 124.486125 
L 50.423812 22.318125 
" style="fill:none;stroke:#000000;stroke-linecap:square;stroke-linejoin:miter;stroke-width:0.8;"/>
   </g>
   <g id="patch_104">
    <path d="M 50.423812 124.486125 
L 199.031812 124.486125 
" style="fill:none;stroke:#000000;stroke-linecap:square;stroke-linejoin:miter;stroke-width:0.8;"/>
   </g>
   <g id="text_18">
    <!-- Number of cells in clonotype by cluster -->
    <defs>
     <path d="M 9.421875 54.6875 
L 18.40625 54.6875 
L 18.40625 0 
L 9.421875 0 
z
M 9.421875 75.984375 
L 18.40625 75.984375 
L 18.40625 64.59375 
L 9.421875 64.59375 
z
" id="DejaVuSans-105"/>
     <path d="M 54.890625 33.015625 
L 54.890625 0 
L 45.90625 0 
L 45.90625 32.71875 
Q 45.90625 40.484375 42.875 44.328125 
Q 39.84375 48.1875 33.796875 48.1875 
Q 26.515625 48.1875 22.3125 43.546875 
Q 18.109375 38.921875 18.109375 30.90625 
L 18.109375 0 
L 9.078125 0 
L 9.078125 54.6875 
L 18.109375 54.6875 
L 18.109375 46.1875 
Q 21.34375 51.125 25.703125 53.5625 
Q 30.078125 56 35.796875 56 
Q 45.21875 56 50.046875 50.171875 
Q 54.890625 44.34375 54.890625 33.015625 
z
" id="DejaVuSans-110"/>
     <path d="M 18.3125 70.21875 
L 18.3125 54.6875 
L 36.8125 54.6875 
L 36.8125 47.703125 
L 18.3125 47.703125 
L 18.3125 18.015625 
Q 18.3125 11.328125 20.140625 9.421875 
Q 21.96875 7.515625 27.59375 7.515625 
L 36.8125 7.515625 
L 36.8125 0 
L 27.59375 0 
Q 17.1875 0 13.234375 3.875 
Q 9.28125 7.765625 9.28125 18.015625 
L 9.28125 47.703125 
L 2.6875 47.703125 
L 2.6875 54.6875 
L 9.28125 54.6875 
L 9.28125 70.21875 
z
" id="DejaVuSans-116"/>
     <path d="M 32.171875 -5.078125 
Q 28.375 -14.84375 24.75 -17.8125 
Q 21.140625 -20.796875 15.09375 -20.796875 
L 7.90625 -20.796875 
L 7.90625 -13.28125 
L 13.1875 -13.28125 
Q 16.890625 -13.28125 18.9375 -11.515625 
Q 21 -9.765625 23.484375 -3.21875 
L 25.09375 0.875 
L 2.984375 54.6875 
L 12.5 54.6875 
L 29.59375 11.921875 
L 46.6875 54.6875 
L 56.203125 54.6875 
z
" id="DejaVuSans-121"/>
     <path d="M 18.109375 8.203125 
L 18.109375 -20.796875 
L 9.078125 -20.796875 
L 9.078125 54.6875 
L 18.109375 54.6875 
L 18.109375 46.390625 
Q 20.953125 51.265625 25.265625 53.625 
Q 29.59375 56 35.59375 56 
Q 45.5625 56 51.78125 48.09375 
Q 58.015625 40.1875 58.015625 27.296875 
Q 58.015625 14.40625 51.78125 6.484375 
Q 45.5625 -1.421875 35.59375 -1.421875 
Q 29.59375 -1.421875 25.265625 0.953125 
Q 20.953125 3.328125 18.109375 8.203125 
z
M 48.6875 27.296875 
Q 48.6875 37.203125 44.609375 42.84375 
Q 40.53125 48.484375 33.40625 48.484375 
Q 26.265625 48.484375 22.1875 42.84375 
Q 18.109375 37.203125 18.109375 27.296875 
Q 18.109375 17.390625 22.1875 11.75 
Q 26.265625 6.109375 33.40625 6.109375 
Q 40.53125 6.109375 44.609375 11.75 
Q 48.6875 17.390625 48.6875 27.296875 
z
" id="DejaVuSans-112"/>
    </defs>
    <g transform="translate(7.2 16.318125)scale(0.12 -0.12)">
     <use xlink:href="#DejaVuSans-78"/>
     <use x="74.804688" xlink:href="#DejaVuSans-117"/>
     <use x="138.183594" xlink:href="#DejaVuSans-109"/>
     <use x="235.595703" xlink:href="#DejaVuSans-98"/>
     <use x="299.072266" xlink:href="#DejaVuSans-101"/>
     <use x="360.595703" xlink:href="#DejaVuSans-114"/>
     <use x="401.708984" xlink:href="#DejaVuSans-32"/>
     <use x="433.496094" xlink:href="#DejaVuSans-111"/>
     <use x="494.677734" xlink:href="#DejaVuSans-102"/>
     <use x="529.882812" xlink:href="#DejaVuSans-32"/>
     <use x="561.669922" xlink:href="#DejaVuSans-99"/>
     <use x="616.650391" xlink:href="#DejaVuSans-101"/>
     <use x="678.173828" xlink:href="#DejaVuSans-108"/>
     <use x="705.957031" xlink:href="#DejaVuSans-108"/>
     <use x="733.740234" xlink:href="#DejaVuSans-115"/>
     <use x="785.839844" xlink:href="#DejaVuSans-32"/>
     <use x="817.626953" xlink:href="#DejaVuSans-105"/>
     <use x="845.410156" xlink:href="#DejaVuSans-110"/>
     <use x="908.789062" xlink:href="#DejaVuSans-32"/>
     <use x="940.576172" xlink:href="#DejaVuSans-99"/>
     <use x="995.556641" xlink:href="#DejaVuSans-108"/>
     <use x="1023.339844" xlink:href="#DejaVuSans-111"/>
     <use x="1084.521484" xlink:href="#DejaVuSans-110"/>
     <use x="1147.900391" xlink:href="#DejaVuSans-111"/>
     <use x="1209.082031" xlink:href="#DejaVuSans-116"/>
     <use x="1248.291016" xlink:href="#DejaVuSans-121"/>
     <use x="1307.470703" xlink:href="#DejaVuSans-112"/>
     <use x="1370.947266" xlink:href="#DejaVuSans-101"/>
     <use x="1432.470703" xlink:href="#DejaVuSans-32"/>
     <use x="1464.257812" xlink:href="#DejaVuSans-98"/>
     <use x="1527.734375" xlink:href="#DejaVuSans-121"/>
     <use x="1586.914062" xlink:href="#DejaVuSans-32"/>
     <use x="1618.701172" xlink:href="#DejaVuSans-99"/>
     <use x="1673.681641" xlink:href="#DejaVuSans-108"/>
     <use x="1701.464844" xlink:href="#DejaVuSans-117"/>
     <use x="1764.84375" xlink:href="#DejaVuSans-115"/>
     <use x="1816.943359" xlink:href="#DejaVuSans-116"/>
     <use x="1856.152344" xlink:href="#DejaVuSans-101"/>
     <use x="1917.675781" xlink:href="#DejaVuSans-114"/>
    </g>
   </g>
   <g id="legend_1">
    <g id="patch_105">
     <path d="M 235.953412 35.596875 
L 251.953412 35.596875 
L 251.953412 29.996875 
L 235.953412 29.996875 
z
" style="fill:#1f77b4;"/>
    </g>
    <g id="text_19">
     <!-- CD8_Trm -->
     <defs>
      <path d="M 64.40625 67.28125 
L 64.40625 56.890625 
Q 59.421875 61.53125 53.78125 63.8125 
Q 48.140625 66.109375 41.796875 66.109375 
Q 29.296875 66.109375 22.65625 58.46875 
Q 16.015625 50.828125 16.015625 36.375 
Q 16.015625 21.96875 22.65625 14.328125 
Q 29.296875 6.6875 41.796875 6.6875 
Q 48.140625 6.6875 53.78125 8.984375 
Q 59.421875 11.28125 64.40625 15.921875 
L 64.40625 5.609375 
Q 59.234375 2.09375 53.4375 0.328125 
Q 47.65625 -1.421875 41.21875 -1.421875 
Q 24.65625 -1.421875 15.125 8.703125 
Q 5.609375 18.84375 5.609375 36.375 
Q 5.609375 53.953125 15.125 64.078125 
Q 24.65625 74.21875 41.21875 74.21875 
Q 47.75 74.21875 53.53125 72.484375 
Q 59.328125 70.75 64.40625 67.28125 
z
" id="DejaVuSans-67"/>
      <path d="M 19.671875 64.796875 
L 19.671875 8.109375 
L 31.59375 8.109375 
Q 46.6875 8.109375 53.6875 14.9375 
Q 60.6875 21.78125 60.6875 36.53125 
Q 60.6875 51.171875 53.6875 57.984375 
Q 46.6875 64.796875 31.59375 64.796875 
z
M 9.8125 72.90625 
L 30.078125 72.90625 
Q 51.265625 72.90625 61.171875 64.09375 
Q 71.09375 55.28125 71.09375 36.53125 
Q 71.09375 17.671875 61.125 8.828125 
Q 51.171875 0 30.078125 0 
L 9.8125 0 
z
" id="DejaVuSans-68"/>
      <path d="M 50.984375 -16.609375 
L 50.984375 -23.578125 
L -0.984375 -23.578125 
L -0.984375 -16.609375 
z
" id="DejaVuSans-95"/>
      <path d="M -0.296875 72.90625 
L 61.375 72.90625 
L 61.375 64.59375 
L 35.5 64.59375 
L 35.5 0 
L 25.59375 0 
L 25.59375 64.59375 
L -0.296875 64.59375 
z
" id="DejaVuSans-84"/>
     </defs>
     <g transform="translate(258.353412 35.596875)scale(0.08 -0.08)">
      <use xlink:href="#DejaVuSans-67"/>
      <use x="69.824219" xlink:href="#DejaVuSans-68"/>
      <use x="146.826172" xlink:href="#DejaVuSans-56"/>
      <use x="210.449219" xlink:href="#DejaVuSans-95"/>
      <use x="260.449219" xlink:href="#DejaVuSans-84"/>
      <use x="306.783203" xlink:href="#DejaVuSans-114"/>
      <use x="346.146484" xlink:href="#DejaVuSans-109"/>
     </g>
    </g>
    <g id="patch_106">
     <path d="M 235.953412 47.561875 
L 251.953412 47.561875 
L 251.953412 41.961875 
L 235.953412 41.961875 
z
" style="fill:#ff7f0e;"/>
    </g>
    <g id="text_20">
     <!-- CD4_TCF7 -->
     <defs>
      <path d="M 9.8125 72.90625 
L 51.703125 72.90625 
L 51.703125 64.59375 
L 19.671875 64.59375 
L 19.671875 43.109375 
L 48.578125 43.109375 
L 48.578125 34.8125 
L 19.671875 34.8125 
L 19.671875 0 
L 9.8125 0 
z
" id="DejaVuSans-70"/>
     </defs>
     <g transform="translate(258.353412 47.561875)scale(0.08 -0.08)">
      <use xlink:href="#DejaVuSans-67"/>
      <use x="69.824219" xlink:href="#DejaVuSans-68"/>
      <use x="146.826172" xlink:href="#DejaVuSans-52"/>
      <use x="210.449219" xlink:href="#DejaVuSans-95"/>
      <use x="260.449219" xlink:href="#DejaVuSans-84"/>
      <use x="315.658203" xlink:href="#DejaVuSans-67"/>
      <use x="385.482422" xlink:href="#DejaVuSans-70"/>
      <use x="443.001953" xlink:href="#DejaVuSans-55"/>
     </g>
    </g>
    <g id="patch_107">
     <path d="M 235.953412 59.526875 
L 251.953412 59.526875 
L 251.953412 53.926875 
L 235.953412 53.926875 
z
" style="fill:#2ca02c;"/>
    </g>
    <g id="text_21">
     <!-- CD8_Tem -->
     <g transform="translate(258.353412 59.526875)scale(0.08 -0.08)">
      <use xlink:href="#DejaVuSans-67"/>
      <use x="69.824219" xlink:href="#DejaVuSans-68"/>
      <use x="146.826172" xlink:href="#DejaVuSans-56"/>
      <use x="210.449219" xlink:href="#DejaVuSans-95"/>
      <use x="260.449219" xlink:href="#DejaVuSans-84"/>
      <use x="304.533203" xlink:href="#DejaVuSans-101"/>
      <use x="366.056641" xlink:href="#DejaVuSans-109"/>
     </g>
    </g>
    <g id="patch_108">
     <path d="M 235.953412 71.491875 
L 251.953412 71.491875 
L 251.953412 65.891875 
L 235.953412 65.891875 
z
" style="fill:#d62728;"/>
    </g>
    <g id="text_22">
     <!-- CD4_FOSS -->
     <defs>
      <path d="M 39.40625 66.21875 
Q 28.65625 66.21875 22.328125 58.203125 
Q 16.015625 50.203125 16.015625 36.375 
Q 16.015625 22.609375 22.328125 14.59375 
Q 28.65625 6.59375 39.40625 6.59375 
Q 50.140625 6.59375 56.421875 14.59375 
Q 62.703125 22.609375 62.703125 36.375 
Q 62.703125 50.203125 56.421875 58.203125 
Q 50.140625 66.21875 39.40625 66.21875 
z
M 39.40625 74.21875 
Q 54.734375 74.21875 63.90625 63.9375 
Q 73.09375 53.65625 73.09375 36.375 
Q 73.09375 19.140625 63.90625 8.859375 
Q 54.734375 -1.421875 39.40625 -1.421875 
Q 24.03125 -1.421875 14.8125 8.828125 
Q 5.609375 19.09375 5.609375 36.375 
Q 5.609375 53.65625 14.8125 63.9375 
Q 24.03125 74.21875 39.40625 74.21875 
z
" id="DejaVuSans-79"/>
      <path d="M 53.515625 70.515625 
L 53.515625 60.890625 
Q 47.90625 63.578125 42.921875 64.890625 
Q 37.9375 66.21875 33.296875 66.21875 
Q 25.25 66.21875 20.875 63.09375 
Q 16.5 59.96875 16.5 54.203125 
Q 16.5 49.359375 19.40625 46.890625 
Q 22.3125 44.4375 30.421875 42.921875 
L 36.375 41.703125 
Q 47.40625 39.59375 52.65625 34.296875 
Q 57.90625 29 57.90625 20.125 
Q 57.90625 9.515625 50.796875 4.046875 
Q 43.703125 -1.421875 29.984375 -1.421875 
Q 24.8125 -1.421875 18.96875 -0.25 
Q 13.140625 0.921875 6.890625 3.21875 
L 6.890625 13.375 
Q 12.890625 10.015625 18.65625 8.296875 
Q 24.421875 6.59375 29.984375 6.59375 
Q 38.421875 6.59375 43.015625 9.90625 
Q 47.609375 13.234375 47.609375 19.390625 
Q 47.609375 24.75 44.3125 27.78125 
Q 41.015625 30.8125 33.5 32.328125 
L 27.484375 33.5 
Q 16.453125 35.6875 11.515625 40.375 
Q 6.59375 45.0625 6.59375 53.421875 
Q 6.59375 63.09375 13.40625 68.65625 
Q 20.21875 74.21875 32.171875 74.21875 
Q 37.3125 74.21875 42.625 73.28125 
Q 47.953125 72.359375 53.515625 70.515625 
z
" id="DejaVuSans-83"/>
     </defs>
     <g transform="translate(258.353412 71.491875)scale(0.08 -0.08)">
      <use xlink:href="#DejaVuSans-67"/>
      <use x="69.824219" xlink:href="#DejaVuSans-68"/>
      <use x="146.826172" xlink:href="#DejaVuSans-52"/>
      <use x="210.449219" xlink:href="#DejaVuSans-95"/>
      <use x="260.449219" xlink:href="#DejaVuSans-70"/>
      <use x="317.96875" xlink:href="#DejaVuSans-79"/>
      <use x="396.679688" xlink:href="#DejaVuSans-83"/>
      <use x="460.15625" xlink:href="#DejaVuSans-83"/>
     </g>
    </g>
    <g id="patch_109">
     <path d="M 235.953412 83.456875 
L 251.953412 83.456875 
L 251.953412 77.856875 
L 235.953412 77.856875 
z
" style="fill:#9467bd;"/>
    </g>
    <g id="text_23">
     <!-- other -->
     <defs>
      <path d="M 54.890625 33.015625 
L 54.890625 0 
L 45.90625 0 
L 45.90625 32.71875 
Q 45.90625 40.484375 42.875 44.328125 
Q 39.84375 48.1875 33.796875 48.1875 
Q 26.515625 48.1875 22.3125 43.546875 
Q 18.109375 38.921875 18.109375 30.90625 
L 18.109375 0 
L 9.078125 0 
L 9.078125 75.984375 
L 18.109375 75.984375 
L 18.109375 46.1875 
Q 21.34375 51.125 25.703125 53.5625 
Q 30.078125 56 35.796875 56 
Q 45.21875 56 50.046875 50.171875 
Q 54.890625 44.34375 54.890625 33.015625 
z
" id="DejaVuSans-104"/>
     </defs>
     <g transform="translate(258.353412 83.456875)scale(0.08 -0.08)">
      <use xlink:href="#DejaVuSans-111"/>
      <use x="61.181641" xlink:href="#DejaVuSans-116"/>
      <use x="100.390625" xlink:href="#DejaVuSans-104"/>
      <use x="163.769531" xlink:href="#DejaVuSans-101"/>
      <use x="225.292969" xlink:href="#DejaVuSans-114"/>
     </g>
    </g>
    <g id="patch_110">
     <path d="M 235.953412 95.199375 
L 251.953412 95.199375 
L 251.953412 89.599375 
L 235.953412 89.599375 
z
" style="fill:#8c564b;"/>
    </g>
    <g id="text_24">
     <!-- CD8_Teff -->
     <g transform="translate(258.353412 95.199375)scale(0.08 -0.08)">
      <use xlink:href="#DejaVuSans-67"/>
      <use x="69.824219" xlink:href="#DejaVuSans-68"/>
      <use x="146.826172" xlink:href="#DejaVuSans-56"/>
      <use x="210.449219" xlink:href="#DejaVuSans-95"/>
      <use x="260.449219" xlink:href="#DejaVuSans-84"/>
      <use x="304.533203" xlink:href="#DejaVuSans-101"/>
      <use x="366.056641" xlink:href="#DejaVuSans-102"/>
      <use x="401.261719" xlink:href="#DejaVuSans-102"/>
     </g>
    </g>
    <g id="patch_111">
     <path d="M 235.953412 107.164375 
L 251.953412 107.164375 
L 251.953412 101.564375 
L 235.953412 101.564375 
z
" style="fill:#e377c2;"/>
    </g>
    <g id="text_25">
     <!-- CD4_Trm -->
     <g transform="translate(258.353412 107.164375)scale(0.08 -0.08)">
      <use xlink:href="#DejaVuSans-67"/>
      <use x="69.824219" xlink:href="#DejaVuSans-68"/>
      <use x="146.826172" xlink:href="#DejaVuSans-52"/>
      <use x="210.449219" xlink:href="#DejaVuSans-95"/>
      <use x="260.449219" xlink:href="#DejaVuSans-84"/>
      <use x="306.783203" xlink:href="#DejaVuSans-114"/>
      <use x="346.146484" xlink:href="#DejaVuSans-109"/>
     </g>
    </g>
    <g id="patch_112">
     <path d="M 235.953412 119.129375 
L 251.953412 119.129375 
L 251.953412 113.529375 
L 235.953412 113.529375 
z
" style="fill:#7f7f7f;"/>
    </g>
    <g id="text_26">
     <!-- CD4_Treg -->
     <defs>
      <path d="M 45.40625 27.984375 
Q 45.40625 37.75 41.375 43.109375 
Q 37.359375 48.484375 30.078125 48.484375 
Q 22.859375 48.484375 18.828125 43.109375 
Q 14.796875 37.75 14.796875 27.984375 
Q 14.796875 18.265625 18.828125 12.890625 
Q 22.859375 7.515625 30.078125 7.515625 
Q 37.359375 7.515625 41.375 12.890625 
Q 45.40625 18.265625 45.40625 27.984375 
z
M 54.390625 6.78125 
Q 54.390625 -7.171875 48.1875 -13.984375 
Q 42 -20.796875 29.203125 -20.796875 
Q 24.46875 -20.796875 20.265625 -20.09375 
Q 16.0625 -19.390625 12.109375 -17.921875 
L 12.109375 -9.1875 
Q 16.0625 -11.328125 19.921875 -12.34375 
Q 23.78125 -13.375 27.78125 -13.375 
Q 36.625 -13.375 41.015625 -8.765625 
Q 45.40625 -4.15625 45.40625 5.171875 
L 45.40625 9.625 
Q 42.625 4.78125 38.28125 2.390625 
Q 33.9375 0 27.875 0 
Q 17.828125 0 11.671875 7.65625 
Q 5.515625 15.328125 5.515625 27.984375 
Q 5.515625 40.671875 11.671875 48.328125 
Q 17.828125 56 27.875 56 
Q 33.9375 56 38.28125 53.609375 
Q 42.625 51.21875 45.40625 46.390625 
L 45.40625 54.6875 
L 54.390625 54.6875 
z
" id="DejaVuSans-103"/>
     </defs>
     <g transform="translate(258.353412 119.129375)scale(0.08 -0.08)">
      <use xlink:href="#DejaVuSans-67"/>
      <use x="69.824219" xlink:href="#DejaVuSans-68"/>
      <use x="146.826172" xlink:href="#DejaVuSans-52"/>
      <use x="210.449219" xlink:href="#DejaVuSans-95"/>
      <use x="260.449219" xlink:href="#DejaVuSans-84"/>
      <use x="306.783203" xlink:href="#DejaVuSans-114"/>
      <use x="345.646484" xlink:href="#DejaVuSans-101"/>
      <use x="407.169922" xlink:href="#DejaVuSans-103"/>
     </g>
    </g>
    <g id="patch_113">
     <path d="M 235.953412 131.094375 
L 251.953412 131.094375 
L 251.953412 125.494375 
L 235.953412 125.494375 
z
" style="fill:#bcbd22;"/>
    </g>
    <g id="text_27">
     <!-- CD4_RPL32 -->
     <defs>
      <path d="M 44.390625 34.1875 
Q 47.5625 33.109375 50.5625 29.59375 
Q 53.5625 26.078125 56.59375 19.921875 
L 66.609375 0 
L 56 0 
L 46.6875 18.703125 
Q 43.0625 26.03125 39.671875 28.421875 
Q 36.28125 30.8125 30.421875 30.8125 
L 19.671875 30.8125 
L 19.671875 0 
L 9.8125 0 
L 9.8125 72.90625 
L 32.078125 72.90625 
Q 44.578125 72.90625 50.734375 67.671875 
Q 56.890625 62.453125 56.890625 51.90625 
Q 56.890625 45.015625 53.6875 40.46875 
Q 50.484375 35.9375 44.390625 34.1875 
z
M 19.671875 64.796875 
L 19.671875 38.921875 
L 32.078125 38.921875 
Q 39.203125 38.921875 42.84375 42.21875 
Q 46.484375 45.515625 46.484375 51.90625 
Q 46.484375 58.296875 42.84375 61.546875 
Q 39.203125 64.796875 32.078125 64.796875 
z
" id="DejaVuSans-82"/>
      <path d="M 19.671875 64.796875 
L 19.671875 37.40625 
L 32.078125 37.40625 
Q 38.96875 37.40625 42.71875 40.96875 
Q 46.484375 44.53125 46.484375 51.125 
Q 46.484375 57.671875 42.71875 61.234375 
Q 38.96875 64.796875 32.078125 64.796875 
z
M 9.8125 72.90625 
L 32.078125 72.90625 
Q 44.34375 72.90625 50.609375 67.359375 
Q 56.890625 61.8125 56.890625 51.125 
Q 56.890625 40.328125 50.609375 34.8125 
Q 44.34375 29.296875 32.078125 29.296875 
L 19.671875 29.296875 
L 19.671875 0 
L 9.8125 0 
z
" id="DejaVuSans-80"/>
      <path d="M 9.8125 72.90625 
L 19.671875 72.90625 
L 19.671875 8.296875 
L 55.171875 8.296875 
L 55.171875 0 
L 9.8125 0 
z
" id="DejaVuSans-76"/>
     </defs>
     <g transform="translate(258.353412 131.094375)scale(0.08 -0.08)">
      <use xlink:href="#DejaVuSans-67"/>
      <use x="69.824219" xlink:href="#DejaVuSans-68"/>
      <use x="146.826172" xlink:href="#DejaVuSans-52"/>
      <use x="210.449219" xlink:href="#DejaVuSans-95"/>
      <use x="260.449219" xlink:href="#DejaVuSans-82"/>
      <use x="329.931641" xlink:href="#DejaVuSans-80"/>
      <use x="390.234375" xlink:href="#DejaVuSans-76"/>
      <use x="445.947266" xlink:href="#DejaVuSans-51"/>
      <use x="509.570312" xlink:href="#DejaVuSans-50"/>
     </g>
    </g>
    <g id="patch_114">
     <path d="M 235.953412 143.059375 
L 251.953412 143.059375 
L 251.953412 137.459375 
L 235.953412 137.459375 
z
" style="fill:#17becf;"/>
    </g>
    <g id="text_28">
     <!-- CD4_IL6ST -->
     <defs>
      <path d="M 9.8125 72.90625 
L 19.671875 72.90625 
L 19.671875 0 
L 9.8125 0 
z
" id="DejaVuSans-73"/>
     </defs>
     <g transform="translate(258.353412 143.059375)scale(0.08 -0.08)">
      <use xlink:href="#DejaVuSans-67"/>
      <use x="69.824219" xlink:href="#DejaVuSans-68"/>
      <use x="146.826172" xlink:href="#DejaVuSans-52"/>
      <use x="210.449219" xlink:href="#DejaVuSans-95"/>
      <use x="260.449219" xlink:href="#DejaVuSans-73"/>
      <use x="289.941406" xlink:href="#DejaVuSans-76"/>
      <use x="345.654297" xlink:href="#DejaVuSans-54"/>
      <use x="409.277344" xlink:href="#DejaVuSans-83"/>
      <use x="472.753906" xlink:href="#DejaVuSans-84"/>
     </g>
    </g>
   </g>
  </g>
 </g>
 <defs>
  <clipPath id="pfd52ea4508">
   <rect height="102.168" width="148.608" x="50.423812" y="22.318125"/>
  </clipPath>
 </defs>
</svg>
