<?xml version="1.0" encoding="utf-8" standalone="no"?>
<!DOCTYPE svg PUBLIC "-//W3C//DTD SVG 1.1//EN"
  "http://www.w3.org/Graphics/SVG/1.1/DTD/svg11.dtd">
<!-- Created with matplotlib (https://matplotlib.org/) -->
<svg height="263.137702pt" version="1.1" viewBox="0 0 461.4135 263.137702" width="461.4135pt" xmlns="http://www.w3.org/2000/svg" xmlns:xlink="http://www.w3.org/1999/xlink">
 <defs>
  <style type="text/css">
*{stroke-linecap:butt;stroke-linejoin:round;}
  </style>
 </defs>
 <g id="figure_1">
  <g id="patch_1">
   <path d="M 0 263.137702 
L 461.4135 263.137702 
L 461.4135 0 
L 0 0 
z
" style="fill:#ffffff;"/>
  </g>
  <g id="axes_1">
   <g id="patch_2">
    <path d="M 43.78125 212.398125 
L 320.26125 212.398125 
L 320.26125 22.318125 
L 43.78125 22.318125 
z
" style="fill:#ffffff;"/>
   </g>
   <g id="patch_3">
    <path clip-path="url(#p04aac95ae6)" d="M 50.69325 212.398125 
L 64.51725 212.398125 
L 64.51725 183.456045 
L 50.69325 183.456045 
z
" style="fill:#1f77b4;"/>
   </g>
   <g id="patch_4">
    <path clip-path="url(#p04aac95ae6)" d="M 78.34125 212.398125 
L 92.16525 212.398125 
L 92.16525 189.11676 
L 78.34125 189.11676 
z
" style="fill:#1f77b4;"/>
   </g>
   <g id="patch_5">
    <path clip-path="url(#p04aac95ae6)" d="M 105.98925 212.398125 
L 119.81325 212.398125 
L 119.81325 199.312007 
L 105.98925 199.312007 
z
" style="fill:#1f77b4;"/>
   </g>
   <g id="patch_6">
    <path clip-path="url(#p04aac95ae6)" d="M 133.63725 212.398125 
L 147.46125 212.398125 
L 147.46125 190.328773 
L 133.63725 190.328773 
z
" style="fill:#1f77b4;"/>
   </g>
   <g id="patch_7">
    <path clip-path="url(#p04aac95ae6)" d="M 161.28525 212.398125 
L 175.10925 212.398125 
L 175.10925 195.131142 
L 161.28525 195.131142 
z
" style="fill:#1f77b4;"/>
   </g>
   <g id="patch_8">
    <path clip-path="url(#p04aac95ae6)" d="M 188.93325 212.398125 
L 202.75725 212.398125 
L 202.75725 193.236799 
L 188.93325 193.236799 
z
" style="fill:#1f77b4;"/>
   </g>
   <g id="patch_9">
    <path clip-path="url(#p04aac95ae6)" d="M 216.58125 212.398125 
L 230.40525 212.398125 
L 230.40525 203.861969 
L 216.58125 203.861969 
z
" style="fill:#1f77b4;"/>
   </g>
   <g id="patch_10">
    <path clip-path="url(#p04aac95ae6)" d="M 244.22925 212.398125 
L 258.05325 212.398125 
L 258.05325 190.184399 
L 244.22925 190.184399 
z
" style="fill:#1f77b4;"/>
   </g>
   <g id="patch_11">
    <path clip-path="url(#p04aac95ae6)" d="M 271.87725 212.398125 
L 285.70125 212.398125 
L 285.70125 181.397811 
L 271.87725 181.397811 
z
" style="fill:#1f77b4;"/>
   </g>
   <g id="patch_12">
    <path clip-path="url(#p04aac95ae6)" d="M 299.52525 212.398125 
L 313.34925 212.398125 
L 313.34925 202.372184 
L 299.52525 202.372184 
z
" style="fill:#1f77b4;"/>
   </g>
   <g id="patch_13">
    <path clip-path="url(#p04aac95ae6)" d="M 50.69325 183.456045 
L 64.51725 183.456045 
L 64.51725 152.870479 
L 50.69325 152.870479 
z
" style="fill:#ff7f0e;"/>
   </g>
   <g id="patch_14">
    <path clip-path="url(#p04aac95ae6)" d="M 78.34125 189.11676 
L 92.16525 189.11676 
L 92.16525 177.017695 
L 78.34125 177.017695 
z
" style="fill:#ff7f0e;"/>
   </g>
   <g id="patch_15">
    <path clip-path="url(#p04aac95ae6)" d="M 105.98925 199.312007 
L 119.81325 199.312007 
L 119.81325 185.078045 
L 105.98925 185.078045 
z
" style="fill:#ff7f0e;"/>
   </g>
   <g id="patch_16">
    <path clip-path="url(#p04aac95ae6)" d="M 133.63725 190.328773 
L 147.46125 190.328773 
L 147.46125 183.028814 
L 133.63725 183.028814 
z
" style="fill:#ff7f0e;"/>
   </g>
   <g id="patch_17">
    <path clip-path="url(#p04aac95ae6)" d="M 161.28525 195.131142 
L 175.10925 195.131142 
L 175.10925 173.294367 
L 161.28525 173.294367 
z
" style="fill:#ff7f0e;"/>
   </g>
   <g id="patch_18">
    <path clip-path="url(#p04aac95ae6)" d="M 188.93325 193.236799 
L 202.75725 193.236799 
L 202.75725 183.100482 
L 188.93325 183.100482 
z
" style="fill:#ff7f0e;"/>
   </g>
   <g id="patch_19">
    <path clip-path="url(#p04aac95ae6)" d="M 216.58125 203.861969 
L 230.40525 203.861969 
L 230.40525 192.855692 
L 216.58125 192.855692 
z
" style="fill:#ff7f0e;"/>
   </g>
   <g id="patch_20">
    <path clip-path="url(#p04aac95ae6)" d="M 244.22925 190.184399 
L 258.05325 190.184399 
L 258.05325 180.100168 
L 244.22925 180.100168 
z
" style="fill:#ff7f0e;"/>
   </g>
   <g id="patch_21">
    <path clip-path="url(#p04aac95ae6)" d="M 271.87725 181.397811 
L 285.70125 181.397811 
L 285.70125 174.323717 
L 271.87725 174.323717 
z
" style="fill:#ff7f0e;"/>
   </g>
   <g id="patch_22">
    <path clip-path="url(#p04aac95ae6)" d="M 299.52525 202.372184 
L 313.34925 202.372184 
L 313.34925 184.166718 
L 299.52525 184.166718 
z
" style="fill:#ff7f0e;"/>
   </g>
   <g id="patch_23">
    <path clip-path="url(#p04aac95ae6)" d="M 50.69325 152.870479 
L 64.51725 152.870479 
L 64.51725 141.912942 
L 50.69325 141.912942 
z
" style="fill:#2ca02c;"/>
   </g>
   <g id="patch_24">
    <path clip-path="url(#p04aac95ae6)" d="M 78.34125 177.017695 
L 92.16525 177.017695 
L 92.16525 149.465715 
L 78.34125 149.465715 
z
" style="fill:#2ca02c;"/>
   </g>
   <g id="patch_25">
    <path clip-path="url(#p04aac95ae6)" d="M 105.98925 185.078045 
L 119.81325 185.078045 
L 119.81325 183.67486 
L 105.98925 183.67486 
z
" style="fill:#2ca02c;"/>
   </g>
   <g id="patch_26">
    <path clip-path="url(#p04aac95ae6)" d="M 133.63725 183.028814 
L 147.46125 183.028814 
L 147.46125 176.6964 
L 133.63725 176.6964 
z
" style="fill:#2ca02c;"/>
   </g>
   <g id="patch_27">
    <path clip-path="url(#p04aac95ae6)" d="M 161.28525 173.294367 
L 175.10925 173.294367 
L 175.10925 156.59506 
L 161.28525 156.59506 
z
" style="fill:#2ca02c;"/>
   </g>
   <g id="patch_28">
    <path clip-path="url(#p04aac95ae6)" d="M 188.93325 183.100482 
L 202.75725 183.100482 
L 202.75725 173.071508 
L 188.93325 173.071508 
z
" style="fill:#2ca02c;"/>
   </g>
   <g id="patch_29">
    <path clip-path="url(#p04aac95ae6)" d="M 216.58125 192.855692 
L 230.40525 192.855692 
L 230.40525 183.913664 
L 216.58125 183.913664 
z
" style="fill:#2ca02c;"/>
   </g>
   <g id="patch_30">
    <path clip-path="url(#p04aac95ae6)" d="M 244.22925 180.100168 
L 258.05325 180.100168 
L 258.05325 166.260553 
L 244.22925 166.260553 
z
" style="fill:#2ca02c;"/>
   </g>
   <g id="patch_31">
    <path clip-path="url(#p04aac95ae6)" d="M 271.87725 174.323717 
L 285.70125 174.323717 
L 285.70125 155.106533 
L 271.87725 155.106533 
z
" style="fill:#2ca02c;"/>
   </g>
   <g id="patch_32">
    <path clip-path="url(#p04aac95ae6)" d="M 299.52525 184.166718 
L 313.34925 184.166718 
L 313.34925 179.495936 
L 299.52525 179.495936 
z
" style="fill:#2ca02c;"/>
   </g>
   <g id="patch_33">
    <path clip-path="url(#p04aac95ae6)" d="M 50.69325 141.912942 
L 64.51725 141.912942 
L 64.51725 118.137124 
L 50.69325 118.137124 
z
" style="fill:#d62728;"/>
   </g>
   <g id="patch_34">
    <path clip-path="url(#p04aac95ae6)" d="M 78.34125 149.465715 
L 92.16525 149.465715 
L 92.16525 144.636245 
L 78.34125 144.636245 
z
" style="fill:#d62728;"/>
   </g>
   <g id="patch_35">
    <path clip-path="url(#p04aac95ae6)" d="M 105.98925 183.67486 
L 119.81325 183.67486 
L 119.81325 170.873858 
L 105.98925 170.873858 
z
" style="fill:#d62728;"/>
   </g>
   <g id="patch_36">
    <path clip-path="url(#p04aac95ae6)" d="M 133.63725 176.6964 
L 147.46125 176.6964 
L 147.46125 172.282441 
L 133.63725 172.282441 
z
" style="fill:#d62728;"/>
   </g>
   <g id="patch_37">
    <path clip-path="url(#p04aac95ae6)" d="M 161.28525 156.59506 
L 175.10925 156.59506 
L 175.10925 143.307665 
L 161.28525 143.307665 
z
" style="fill:#d62728;"/>
   </g>
   <g id="patch_38">
    <path clip-path="url(#p04aac95ae6)" d="M 188.93325 173.071508 
L 202.75725 173.071508 
L 202.75725 163.081942 
L 188.93325 163.081942 
z
" style="fill:#d62728;"/>
   </g>
   <g id="patch_39">
    <path clip-path="url(#p04aac95ae6)" d="M 216.58125 183.913664 
L 230.40525 183.913664 
L 230.40525 176.141879 
L 216.58125 176.141879 
z
" style="fill:#d62728;"/>
   </g>
   <g id="patch_40">
    <path clip-path="url(#p04aac95ae6)" d="M 244.22925 166.260553 
L 258.05325 166.260553 
L 258.05325 162.669112 
L 244.22925 162.669112 
z
" style="fill:#d62728;"/>
   </g>
   <g id="patch_41">
    <path clip-path="url(#p04aac95ae6)" d="M 271.87725 155.106533 
L 285.70125 155.106533 
L 285.70125 111.311279 
L 271.87725 111.311279 
z
" style="fill:#d62728;"/>
   </g>
   <g id="patch_42">
    <path clip-path="url(#p04aac95ae6)" d="M 299.52525 179.495936 
L 313.34925 179.495936 
L 313.34925 172.80281 
L 299.52525 172.80281 
z
" style="fill:#d62728;"/>
   </g>
   <g id="patch_43">
    <path clip-path="url(#p04aac95ae6)" d="M 50.69325 118.137124 
L 64.51725 118.137124 
L 64.51725 98.230618 
L 50.69325 98.230618 
z
" style="fill:#9467bd;"/>
   </g>
   <g id="patch_44">
    <path clip-path="url(#p04aac95ae6)" d="M 78.34125 144.636245 
L 92.16525 144.636245 
L 92.16525 139.248507 
L 78.34125 139.248507 
z
" style="fill:#9467bd;"/>
   </g>
   <g id="patch_45">
    <path clip-path="url(#p04aac95ae6)" d="M 105.98925 170.873858 
L 119.81325 170.873858 
L 119.81325 165.189609 
L 105.98925 165.189609 
z
" style="fill:#9467bd;"/>
   </g>
   <g id="patch_46">
    <path clip-path="url(#p04aac95ae6)" d="M 133.63725 172.282441 
L 147.46125 172.282441 
L 147.46125 161.57235 
L 133.63725 161.57235 
z
" style="fill:#9467bd;"/>
   </g>
   <g id="patch_47">
    <path clip-path="url(#p04aac95ae6)" d="M 161.28525 143.307665 
L 175.10925 143.307665 
L 175.10925 129.381248 
L 161.28525 129.381248 
z
" style="fill:#9467bd;"/>
   </g>
   <g id="patch_48">
    <path clip-path="url(#p04aac95ae6)" d="M 188.93325 163.081942 
L 202.75725 163.081942 
L 202.75725 154.806627 
L 188.93325 154.806627 
z
" style="fill:#9467bd;"/>
   </g>
   <g id="patch_49">
    <path clip-path="url(#p04aac95ae6)" d="M 216.58125 176.141879 
L 230.40525 176.141879 
L 230.40525 171.654372 
L 216.58125 171.654372 
z
" style="fill:#9467bd;"/>
   </g>
   <g id="patch_50">
    <path clip-path="url(#p04aac95ae6)" d="M 244.22925 162.669112 
L 258.05325 162.669112 
L 258.05325 159.445956 
L 244.22925 159.445956 
z
" style="fill:#9467bd;"/>
   </g>
   <g id="patch_51">
    <path clip-path="url(#p04aac95ae6)" d="M 271.87725 111.311279 
L 285.70125 111.311279 
L 285.70125 106.755949 
L 271.87725 106.755949 
z
" style="fill:#9467bd;"/>
   </g>
   <g id="patch_52">
    <path clip-path="url(#p04aac95ae6)" d="M 299.52525 172.80281 
L 313.34925 172.80281 
L 313.34925 168.975824 
L 299.52525 168.975824 
z
" style="fill:#9467bd;"/>
   </g>
   <g id="patch_53">
    <path clip-path="url(#p04aac95ae6)" d="M 50.69325 98.230618 
L 64.51725 98.230618 
L 64.51725 81.959155 
L 50.69325 81.959155 
z
" style="fill:#8c564b;"/>
   </g>
   <g id="patch_54">
    <path clip-path="url(#p04aac95ae6)" d="M 78.34125 139.248507 
L 92.16525 139.248507 
L 92.16525 136.727826 
L 78.34125 136.727826 
z
" style="fill:#8c564b;"/>
   </g>
   <g id="patch_55">
    <path clip-path="url(#p04aac95ae6)" d="M 105.98925 165.189609 
L 119.81325 165.189609 
L 119.81325 156.90836 
L 105.98925 156.90836 
z
" style="fill:#8c564b;"/>
   </g>
   <g id="patch_56">
    <path clip-path="url(#p04aac95ae6)" d="M 133.63725 161.57235 
L 147.46125 161.57235 
L 147.46125 156.294495 
L 133.63725 156.294495 
z
" style="fill:#8c564b;"/>
   </g>
   <g id="patch_57">
    <path clip-path="url(#p04aac95ae6)" d="M 161.28525 129.381248 
L 175.10925 129.381248 
L 175.10925 121.513304 
L 161.28525 121.513304 
z
" style="fill:#8c564b;"/>
   </g>
   <g id="patch_58">
    <path clip-path="url(#p04aac95ae6)" d="M 188.93325 154.806627 
L 202.75725 154.806627 
L 202.75725 150.456461 
L 188.93325 150.456461 
z
" style="fill:#8c564b;"/>
   </g>
   <g id="patch_59">
    <path clip-path="url(#p04aac95ae6)" d="M 216.58125 171.654372 
L 230.40525 171.654372 
L 230.40525 164.732451 
L 216.58125 164.732451 
z
" style="fill:#8c564b;"/>
   </g>
   <g id="patch_60">
    <path clip-path="url(#p04aac95ae6)" d="M 244.22925 159.445956 
L 258.05325 159.445956 
L 258.05325 152.953099 
L 244.22925 152.953099 
z
" style="fill:#8c564b;"/>
   </g>
   <g id="patch_61">
    <path clip-path="url(#p04aac95ae6)" d="M 271.87725 106.755949 
L 285.70125 106.755949 
L 285.70125 104.350881 
L 271.87725 104.350881 
z
" style="fill:#8c564b;"/>
   </g>
   <g id="patch_62">
    <path clip-path="url(#p04aac95ae6)" d="M 299.52525 168.975824 
L 313.34925 168.975824 
L 313.34925 165.990838 
L 299.52525 165.990838 
z
" style="fill:#8c564b;"/>
   </g>
   <g id="patch_63">
    <path clip-path="url(#p04aac95ae6)" d="M 50.69325 81.959155 
L 64.51725 81.959155 
L 64.51725 62.120096 
L 50.69325 62.120096 
z
" style="fill:#e377c2;"/>
   </g>
   <g id="patch_64">
    <path clip-path="url(#p04aac95ae6)" d="M 78.34125 136.727826 
L 92.16525 136.727826 
L 92.16525 131.119757 
L 78.34125 131.119757 
z
" style="fill:#e377c2;"/>
   </g>
   <g id="patch_65">
    <path clip-path="url(#p04aac95ae6)" d="M 105.98925 156.90836 
L 119.81325 156.90836 
L 119.81325 146.525981 
L 105.98925 146.525981 
z
" style="fill:#e377c2;"/>
   </g>
   <g id="patch_66">
    <path clip-path="url(#p04aac95ae6)" d="M 133.63725 156.294495 
L 147.46125 156.294495 
L 147.46125 143.094499 
L 133.63725 143.094499 
z
" style="fill:#e377c2;"/>
   </g>
   <g id="patch_67">
    <path clip-path="url(#p04aac95ae6)" d="M 161.28525 121.513304 
L 175.10925 121.513304 
L 175.10925 115.523329 
L 161.28525 115.523329 
z
" style="fill:#e377c2;"/>
   </g>
   <g id="patch_68">
    <path clip-path="url(#p04aac95ae6)" d="M 188.93325 150.456461 
L 202.75725 150.456461 
L 202.75725 143.666685 
L 188.93325 143.666685 
z
" style="fill:#e377c2;"/>
   </g>
   <g id="patch_69">
    <path clip-path="url(#p04aac95ae6)" d="M 216.58125 164.732451 
L 230.40525 164.732451 
L 230.40525 162.005238 
L 216.58125 162.005238 
z
" style="fill:#e377c2;"/>
   </g>
   <g id="patch_70">
    <path clip-path="url(#p04aac95ae6)" d="M 244.22925 152.953099 
L 258.05325 152.953099 
L 258.05325 147.238821 
L 244.22925 147.238821 
z
" style="fill:#e377c2;"/>
   </g>
   <g id="patch_71">
    <path clip-path="url(#p04aac95ae6)" d="M 271.87725 104.350881 
L 285.70125 104.350881 
L 285.70125 97.191691 
L 271.87725 97.191691 
z
" style="fill:#e377c2;"/>
   </g>
   <g id="patch_72">
    <path clip-path="url(#p04aac95ae6)" d="M 299.52525 165.990838 
L 313.34925 165.990838 
L 313.34925 161.782747 
L 299.52525 161.782747 
z
" style="fill:#e377c2;"/>
   </g>
   <g id="patch_73">
    <path clip-path="url(#p04aac95ae6)" d="M 50.69325 62.120096 
L 64.51725 62.120096 
L 64.51725 46.097496 
L 50.69325 46.097496 
z
" style="fill:#7f7f7f;"/>
   </g>
   <g id="patch_74">
    <path clip-path="url(#p04aac95ae6)" d="M 78.34125 131.119757 
L 92.16525 131.119757 
L 92.16525 112.720921 
L 78.34125 112.720921 
z
" style="fill:#7f7f7f;"/>
   </g>
   <g id="patch_75">
    <path clip-path="url(#p04aac95ae6)" d="M 105.98925 146.525981 
L 119.81325 146.525981 
L 119.81325 132.923544 
L 105.98925 132.923544 
z
" style="fill:#7f7f7f;"/>
   </g>
   <g id="patch_76">
    <path clip-path="url(#p04aac95ae6)" d="M 133.63725 143.094499 
L 147.46125 143.094499 
L 147.46125 126.851847 
L 133.63725 126.851847 
z
" style="fill:#7f7f7f;"/>
   </g>
   <g id="patch_77">
    <path clip-path="url(#p04aac95ae6)" d="M 161.28525 115.523329 
L 175.10925 115.523329 
L 175.10925 113.737092 
L 161.28525 113.737092 
z
" style="fill:#7f7f7f;"/>
   </g>
   <g id="patch_78">
    <path clip-path="url(#p04aac95ae6)" d="M 188.93325 143.666685 
L 202.75725 143.666685 
L 202.75725 133.521051 
L 188.93325 133.521051 
z
" style="fill:#7f7f7f;"/>
   </g>
   <g id="patch_79">
    <path clip-path="url(#p04aac95ae6)" d="M 216.58125 162.005238 
L 230.40525 162.005238 
L 230.40525 158.526294 
L 216.58125 158.526294 
z
" style="fill:#7f7f7f;"/>
   </g>
   <g id="patch_80">
    <path clip-path="url(#p04aac95ae6)" d="M 244.22925 147.238821 
L 258.05325 147.238821 
L 258.05325 138.346574 
L 244.22925 138.346574 
z
" style="fill:#7f7f7f;"/>
   </g>
   <g id="patch_81">
    <path clip-path="url(#p04aac95ae6)" d="M 271.87725 97.191691 
L 285.70125 97.191691 
L 285.70125 82.486454 
L 271.87725 82.486454 
z
" style="fill:#7f7f7f;"/>
   </g>
   <g id="patch_82">
    <path clip-path="url(#p04aac95ae6)" d="M 299.52525 161.782747 
L 313.34925 161.782747 
L 313.34925 156.865545 
L 299.52525 156.865545 
z
" style="fill:#7f7f7f;"/>
   </g>
   <g id="patch_83">
    <path clip-path="url(#p04aac95ae6)" d="M 50.69325 46.097496 
L 64.51725 46.097496 
L 64.51725 39.376096 
L 50.69325 39.376096 
z
" style="fill:#bcbd22;"/>
   </g>
   <g id="patch_84">
    <path clip-path="url(#p04aac95ae6)" d="M 78.34125 112.720921 
L 92.16525 112.720921 
L 92.16525 111.821275 
L 78.34125 111.821275 
z
" style="fill:#bcbd22;"/>
   </g>
   <g id="patch_85">
    <path clip-path="url(#p04aac95ae6)" d="M 105.98925 132.923544 
L 119.81325 132.923544 
L 119.81325 126.387837 
L 105.98925 126.387837 
z
" style="fill:#bcbd22;"/>
   </g>
   <g id="patch_86">
    <path clip-path="url(#p04aac95ae6)" d="M 133.63725 126.851847 
L 147.46125 126.851847 
L 147.46125 110.263084 
L 133.63725 110.263084 
z
" style="fill:#bcbd22;"/>
   </g>
   <g id="patch_87">
    <path clip-path="url(#p04aac95ae6)" d="M 161.28525 113.737092 
L 175.10925 113.737092 
L 175.10925 109.681649 
L 161.28525 109.681649 
z
" style="fill:#bcbd22;"/>
   </g>
   <g id="patch_88">
    <path clip-path="url(#p04aac95ae6)" d="M 188.93325 133.521051 
L 202.75725 133.521051 
L 202.75725 131.506458 
L 188.93325 131.506458 
z
" style="fill:#bcbd22;"/>
   </g>
   <g id="patch_89">
    <path clip-path="url(#p04aac95ae6)" d="M 216.58125 158.526294 
L 230.40525 158.526294 
L 230.40525 154.829728 
L 216.58125 154.829728 
z
" style="fill:#bcbd22;"/>
   </g>
   <g id="patch_90">
    <path clip-path="url(#p04aac95ae6)" d="M 244.22925 138.346574 
L 258.05325 138.346574 
L 258.05325 136.139678 
L 244.22925 136.139678 
z
" style="fill:#bcbd22;"/>
   </g>
   <g id="patch_91">
    <path clip-path="url(#p04aac95ae6)" d="M 271.87725 82.486454 
L 285.70125 82.486454 
L 285.70125 81.992871 
L 271.87725 81.992871 
z
" style="fill:#bcbd22;"/>
   </g>
   <g id="patch_92">
    <path clip-path="url(#p04aac95ae6)" d="M 299.52525 156.865545 
L 313.34925 156.865545 
L 313.34925 150.453875 
L 299.52525 150.453875 
z
" style="fill:#bcbd22;"/>
   </g>
   <g id="patch_93">
    <path clip-path="url(#p04aac95ae6)" d="M 50.69325 39.376096 
L 64.51725 39.376096 
L 64.51725 31.369554 
L 50.69325 31.369554 
z
" style="fill:#17becf;"/>
   </g>
   <g id="patch_94">
    <path clip-path="url(#p04aac95ae6)" d="M 78.34125 111.821275 
L 92.16525 111.821275 
L 92.16525 109.219907 
L 78.34125 109.219907 
z
" style="fill:#17becf;"/>
   </g>
   <g id="patch_95">
    <path clip-path="url(#p04aac95ae6)" d="M 105.98925 126.387837 
L 119.81325 126.387837 
L 119.81325 122.390396 
L 105.98925 122.390396 
z
" style="fill:#17becf;"/>
   </g>
   <g id="patch_96">
    <path clip-path="url(#p04aac95ae6)" d="M 133.63725 110.263084 
L 147.46125 110.263084 
L 147.46125 108.819171 
L 133.63725 108.819171 
z
" style="fill:#17becf;"/>
   </g>
   <g id="patch_97">
    <path clip-path="url(#p04aac95ae6)" d="M 161.28525 109.681649 
L 175.10925 109.681649 
L 175.10925 106.115581 
L 161.28525 106.115581 
z
" style="fill:#17becf;"/>
   </g>
   <g id="patch_98">
    <path clip-path="url(#p04aac95ae6)" d="M 188.93325 131.506458 
L 202.75725 131.506458 
L 202.75725 130.147972 
L 188.93325 130.147972 
z
" style="fill:#17becf;"/>
   </g>
   <g id="patch_99">
    <path clip-path="url(#p04aac95ae6)" d="M 216.58125 154.829728 
L 230.40525 154.829728 
L 230.40525 150.918005 
L 216.58125 150.918005 
z
" style="fill:#17becf;"/>
   </g>
   <g id="patch_100">
    <path clip-path="url(#p04aac95ae6)" d="M 244.22925 212.398125 
L 258.05325 212.398125 
L 258.05325 212.398125 
L 244.22925 212.398125 
z
" style="fill:#17becf;"/>
   </g>
   <g id="patch_101">
    <path clip-path="url(#p04aac95ae6)" d="M 271.87725 81.992871 
L 285.70125 81.992871 
L 285.70125 78.485698 
L 271.87725 78.485698 
z
" style="fill:#17becf;"/>
   </g>
   <g id="patch_102">
    <path clip-path="url(#p04aac95ae6)" d="M 299.52525 150.453875 
L 313.34925 150.453875 
L 313.34925 147.79322 
L 299.52525 147.79322 
z
" style="fill:#17becf;"/>
   </g>
   <g id="matplotlib.axis_1">
    <g id="xtick_1">
     <g id="line2d_1"/>
     <g id="text_1">
      <!-- TRBV20-1 -->
      <defs>
       <path d="M -0.296875 72.90625 
L 61.375 72.90625 
L 61.375 64.59375 
L 35.5 64.59375 
L 35.5 0 
L 25.59375 0 
L 25.59375 64.59375 
L -0.296875 64.59375 
z
" id="DejaVuSans-84"/>
       <path d="M 44.390625 34.1875 
Q 47.5625 33.109375 50.5625 29.59375 
Q 53.5625 26.078125 56.59375 19.921875 
L 66.609375 0 
L 56 0 
L 46.6875 18.703125 
Q 43.0625 26.03125 39.671875 28.421875 
Q 36.28125 30.8125 30.421875 30.8125 
L 19.671875 30.8125 
L 19.671875 0 
L 9.8125 0 
L 9.8125 72.90625 
L 32.078125 72.90625 
Q 44.578125 72.90625 50.734375 67.671875 
Q 56.890625 62.453125 56.890625 51.90625 
Q 56.890625 45.015625 53.6875 40.46875 
Q 50.484375 35.9375 44.390625 34.1875 
z
M 19.671875 64.796875 
L 19.671875 38.921875 
L 32.078125 38.921875 
Q 39.203125 38.921875 42.84375 42.21875 
Q 46.484375 45.515625 46.484375 51.90625 
Q 46.484375 58.296875 42.84375 61.546875 
Q 39.203125 64.796875 32.078125 64.796875 
z
" id="DejaVuSans-82"/>
       <path d="M 19.671875 34.8125 
L 19.671875 8.109375 
L 35.5 8.109375 
Q 43.453125 8.109375 47.28125 11.40625 
Q 51.125 14.703125 51.125 21.484375 
Q 51.125 28.328125 47.28125 31.5625 
Q 43.453125 34.8125 35.5 34.8125 
z
M 19.671875 64.796875 
L 19.671875 42.828125 
L 34.28125 42.828125 
Q 41.5 42.828125 45.03125 45.53125 
Q 48.578125 48.25 48.578125 53.8125 
Q 48.578125 59.328125 45.03125 62.0625 
Q 41.5 64.796875 34.28125 64.796875 
z
M 9.8125 72.90625 
L 35.015625 72.90625 
Q 46.296875 72.90625 52.390625 68.21875 
Q 58.5 63.53125 58.5 54.890625 
Q 58.5 48.1875 55.375 44.234375 
Q 52.25 40.28125 46.1875 39.3125 
Q 53.46875 37.75 57.5 32.78125 
Q 61.53125 27.828125 61.53125 20.40625 
Q 61.53125 10.640625 54.890625 5.3125 
Q 48.25 0 35.984375 0 
L 9.8125 0 
z
" id="DejaVuSans-66"/>
       <path d="M 28.609375 0 
L 0.78125 72.90625 
L 11.078125 72.90625 
L 34.1875 11.53125 
L 57.328125 72.90625 
L 67.578125 72.90625 
L 39.796875 0 
z
" id="DejaVuSans-86"/>
       <path d="M 19.1875 8.296875 
L 53.609375 8.296875 
L 53.609375 0 
L 7.328125 0 
L 7.328125 8.296875 
Q 12.9375 14.109375 22.625 23.890625 
Q 32.328125 33.6875 34.8125 36.53125 
Q 39.546875 41.84375 41.421875 45.53125 
Q 43.3125 49.21875 43.3125 52.78125 
Q 43.3125 58.59375 39.234375 62.25 
Q 35.15625 65.921875 28.609375 65.921875 
Q 23.96875 65.921875 18.8125 64.3125 
Q 13.671875 62.703125 7.8125 59.421875 
L 7.8125 69.390625 
Q 13.765625 71.78125 18.9375 73 
Q 24.125 74.21875 28.421875 74.21875 
Q 39.75 74.21875 46.484375 68.546875 
Q 53.21875 62.890625 53.21875 53.421875 
Q 53.21875 48.921875 51.53125 44.890625 
Q 49.859375 40.875 45.40625 35.40625 
Q 44.1875 33.984375 37.640625 27.21875 
Q 31.109375 20.453125 19.1875 8.296875 
z
" id="DejaVuSans-50"/>
       <path d="M 31.78125 66.40625 
Q 24.171875 66.40625 20.328125 58.90625 
Q 16.5 51.421875 16.5 36.375 
Q 16.5 21.390625 20.328125 13.890625 
Q 24.171875 6.390625 31.78125 6.390625 
Q 39.453125 6.390625 43.28125 13.890625 
Q 47.125 21.390625 47.125 36.375 
Q 47.125 51.421875 43.28125 58.90625 
Q 39.453125 66.40625 31.78125 66.40625 
z
M 31.78125 74.21875 
Q 44.046875 74.21875 50.515625 64.515625 
Q 56.984375 54.828125 56.984375 36.375 
Q 56.984375 17.96875 50.515625 8.265625 
Q 44.046875 -1.421875 31.78125 -1.421875 
Q 19.53125 -1.421875 13.0625 8.265625 
Q 6.59375 17.96875 6.59375 36.375 
Q 6.59375 54.828125 13.0625 64.515625 
Q 19.53125 74.21875 31.78125 74.21875 
z
" id="DejaVuSans-48"/>
       <path d="M 4.890625 31.390625 
L 31.203125 31.390625 
L 31.203125 23.390625 
L 4.890625 23.390625 
z
" id="DejaVuSans-45"/>
       <path d="M 12.40625 8.296875 
L 28.515625 8.296875 
L 28.515625 63.921875 
L 10.984375 60.40625 
L 10.984375 69.390625 
L 28.421875 72.90625 
L 38.28125 72.90625 
L 38.28125 8.296875 
L 54.390625 8.296875 
L 54.390625 0 
L 12.40625 0 
z
" id="DejaVuSans-49"/>
      </defs>
      <g transform="translate(22.727751 240.818727)rotate(-30)scale(0.08 -0.08)">
       <use xlink:href="#DejaVuSans-84"/>
       <use x="61.083984" xlink:href="#DejaVuSans-82"/>
       <use x="130.566406" xlink:href="#DejaVuSans-66"/>
       <use x="196.044922" xlink:href="#DejaVuSans-86"/>
       <use x="264.453125" xlink:href="#DejaVuSans-50"/>
       <use x="328.076172" xlink:href="#DejaVuSans-48"/>
       <use x="391.699219" xlink:href="#DejaVuSans-45"/>
       <use x="427.783203" xlink:href="#DejaVuSans-49"/>
      </g>
     </g>
    </g>
    <g id="xtick_2">
     <g id="line2d_2"/>
     <g id="text_2">
      <!-- TRBV19 -->
      <defs>
       <path d="M 10.984375 1.515625 
L 10.984375 10.5 
Q 14.703125 8.734375 18.5 7.8125 
Q 22.3125 6.890625 25.984375 6.890625 
Q 35.75 6.890625 40.890625 13.453125 
Q 46.046875 20.015625 46.78125 33.40625 
Q 43.953125 29.203125 39.59375 26.953125 
Q 35.25 24.703125 29.984375 24.703125 
Q 19.046875 24.703125 12.671875 31.3125 
Q 6.296875 37.9375 6.296875 49.421875 
Q 6.296875 60.640625 12.9375 67.421875 
Q 19.578125 74.21875 30.609375 74.21875 
Q 43.265625 74.21875 49.921875 64.515625 
Q 56.59375 54.828125 56.59375 36.375 
Q 56.59375 19.140625 48.40625 8.859375 
Q 40.234375 -1.421875 26.421875 -1.421875 
Q 22.703125 -1.421875 18.890625 -0.6875 
Q 15.09375 0.046875 10.984375 1.515625 
z
M 30.609375 32.421875 
Q 37.25 32.421875 41.125 36.953125 
Q 45.015625 41.5 45.015625 49.421875 
Q 45.015625 57.28125 41.125 61.84375 
Q 37.25 66.40625 30.609375 66.40625 
Q 23.96875 66.40625 20.09375 61.84375 
Q 16.21875 57.28125 16.21875 49.421875 
Q 16.21875 41.5 20.09375 36.953125 
Q 23.96875 32.421875 30.609375 32.421875 
z
" id="DejaVuSans-57"/>
      </defs>
      <g transform="translate(57.283386 236.830602)rotate(-30)scale(0.08 -0.08)">
       <use xlink:href="#DejaVuSans-84"/>
       <use x="61.083984" xlink:href="#DejaVuSans-82"/>
       <use x="130.566406" xlink:href="#DejaVuSans-66"/>
       <use x="196.044922" xlink:href="#DejaVuSans-86"/>
       <use x="264.453125" xlink:href="#DejaVuSans-49"/>
       <use x="328.076172" xlink:href="#DejaVuSans-57"/>
      </g>
     </g>
    </g>
    <g id="xtick_3">
     <g id="line2d_3"/>
     <g id="text_3">
      <!-- TRBV5-1 -->
      <defs>
       <path d="M 10.796875 72.90625 
L 49.515625 72.90625 
L 49.515625 64.59375 
L 19.828125 64.59375 
L 19.828125 46.734375 
Q 21.96875 47.46875 24.109375 47.828125 
Q 26.265625 48.1875 28.421875 48.1875 
Q 40.625 48.1875 47.75 41.5 
Q 54.890625 34.8125 54.890625 23.390625 
Q 54.890625 11.625 47.5625 5.09375 
Q 40.234375 -1.421875 26.90625 -1.421875 
Q 22.3125 -1.421875 17.546875 -0.640625 
Q 12.796875 0.140625 7.71875 1.703125 
L 7.71875 11.625 
Q 12.109375 9.234375 16.796875 8.0625 
Q 21.484375 6.890625 26.703125 6.890625 
Q 35.15625 6.890625 40.078125 11.328125 
Q 45.015625 15.765625 45.015625 23.390625 
Q 45.015625 31 40.078125 35.4375 
Q 35.15625 39.890625 26.703125 39.890625 
Q 22.75 39.890625 18.8125 39.015625 
Q 14.890625 38.140625 10.796875 36.28125 
z
" id="DejaVuSans-53"/>
      </defs>
      <g transform="translate(82.431821 238.273727)rotate(-30)scale(0.08 -0.08)">
       <use xlink:href="#DejaVuSans-84"/>
       <use x="61.083984" xlink:href="#DejaVuSans-82"/>
       <use x="130.566406" xlink:href="#DejaVuSans-66"/>
       <use x="196.044922" xlink:href="#DejaVuSans-86"/>
       <use x="264.453125" xlink:href="#DejaVuSans-53"/>
       <use x="328.076172" xlink:href="#DejaVuSans-45"/>
       <use x="364.160156" xlink:href="#DejaVuSans-49"/>
      </g>
     </g>
    </g>
    <g id="xtick_4">
     <g id="line2d_4"/>
     <g id="text_4">
      <!-- TRBV6-5 -->
      <defs>
       <path d="M 33.015625 40.375 
Q 26.375 40.375 22.484375 35.828125 
Q 18.609375 31.296875 18.609375 23.390625 
Q 18.609375 15.53125 22.484375 10.953125 
Q 26.375 6.390625 33.015625 6.390625 
Q 39.65625 6.390625 43.53125 10.953125 
Q 47.40625 15.53125 47.40625 23.390625 
Q 47.40625 31.296875 43.53125 35.828125 
Q 39.65625 40.375 33.015625 40.375 
z
M 52.59375 71.296875 
L 52.59375 62.3125 
Q 48.875 64.0625 45.09375 64.984375 
Q 41.3125 65.921875 37.59375 65.921875 
Q 27.828125 65.921875 22.671875 59.328125 
Q 17.53125 52.734375 16.796875 39.40625 
Q 19.671875 43.65625 24.015625 45.921875 
Q 28.375 48.1875 33.59375 48.1875 
Q 44.578125 48.1875 50.953125 41.515625 
Q 57.328125 34.859375 57.328125 23.390625 
Q 57.328125 12.15625 50.6875 5.359375 
Q 44.046875 -1.421875 33.015625 -1.421875 
Q 20.359375 -1.421875 13.671875 8.265625 
Q 6.984375 17.96875 6.984375 36.375 
Q 6.984375 53.65625 15.1875 63.9375 
Q 23.390625 74.21875 37.203125 74.21875 
Q 40.921875 74.21875 44.703125 73.484375 
Q 48.484375 72.75 52.59375 71.296875 
z
" id="DejaVuSans-54"/>
      </defs>
      <g transform="translate(110.079821 238.273727)rotate(-30)scale(0.08 -0.08)">
       <use xlink:href="#DejaVuSans-84"/>
       <use x="61.083984" xlink:href="#DejaVuSans-82"/>
       <use x="130.566406" xlink:href="#DejaVuSans-66"/>
       <use x="196.044922" xlink:href="#DejaVuSans-86"/>
       <use x="264.453125" xlink:href="#DejaVuSans-54"/>
       <use x="328.076172" xlink:href="#DejaVuSans-45"/>
       <use x="364.160156" xlink:href="#DejaVuSans-53"/>
      </g>
     </g>
    </g>
    <g id="xtick_5">
     <g id="line2d_5"/>
     <g id="text_5">
      <!-- TRBV7-9 -->
      <defs>
       <path d="M 8.203125 72.90625 
L 55.078125 72.90625 
L 55.078125 68.703125 
L 28.609375 0 
L 18.3125 0 
L 43.21875 64.59375 
L 8.203125 64.59375 
z
" id="DejaVuSans-55"/>
      </defs>
      <g transform="translate(137.727821 238.273727)rotate(-30)scale(0.08 -0.08)">
       <use xlink:href="#DejaVuSans-84"/>
       <use x="61.083984" xlink:href="#DejaVuSans-82"/>
       <use x="130.566406" xlink:href="#DejaVuSans-66"/>
       <use x="196.044922" xlink:href="#DejaVuSans-86"/>
       <use x="264.453125" xlink:href="#DejaVuSans-55"/>
       <use x="328.076172" xlink:href="#DejaVuSans-45"/>
       <use x="364.160156" xlink:href="#DejaVuSans-57"/>
      </g>
     </g>
    </g>
    <g id="xtick_6">
     <g id="line2d_6"/>
     <g id="text_6">
      <!-- TRBV28 -->
      <defs>
       <path d="M 31.78125 34.625 
Q 24.75 34.625 20.71875 30.859375 
Q 16.703125 27.09375 16.703125 20.515625 
Q 16.703125 13.921875 20.71875 10.15625 
Q 24.75 6.390625 31.78125 6.390625 
Q 38.8125 6.390625 42.859375 10.171875 
Q 46.921875 13.96875 46.921875 20.515625 
Q 46.921875 27.09375 42.890625 30.859375 
Q 38.875 34.625 31.78125 34.625 
z
M 21.921875 38.8125 
Q 15.578125 40.375 12.03125 44.71875 
Q 8.5 49.078125 8.5 55.328125 
Q 8.5 64.0625 14.71875 69.140625 
Q 20.953125 74.21875 31.78125 74.21875 
Q 42.671875 74.21875 48.875 69.140625 
Q 55.078125 64.0625 55.078125 55.328125 
Q 55.078125 49.078125 51.53125 44.71875 
Q 48 40.375 41.703125 38.8125 
Q 48.828125 37.15625 52.796875 32.3125 
Q 56.78125 27.484375 56.78125 20.515625 
Q 56.78125 9.90625 50.3125 4.234375 
Q 43.84375 -1.421875 31.78125 -1.421875 
Q 19.734375 -1.421875 13.25 4.234375 
Q 6.78125 9.90625 6.78125 20.515625 
Q 6.78125 27.484375 10.78125 32.3125 
Q 14.796875 37.15625 21.921875 38.8125 
z
M 18.3125 54.390625 
Q 18.3125 48.734375 21.84375 45.5625 
Q 25.390625 42.390625 31.78125 42.390625 
Q 38.140625 42.390625 41.71875 45.5625 
Q 45.3125 48.734375 45.3125 54.390625 
Q 45.3125 60.0625 41.71875 63.234375 
Q 38.140625 66.40625 31.78125 66.40625 
Q 25.390625 66.40625 21.84375 63.234375 
Q 18.3125 60.0625 18.3125 54.390625 
z
" id="DejaVuSans-56"/>
      </defs>
      <g transform="translate(167.875386 236.830602)rotate(-30)scale(0.08 -0.08)">
       <use xlink:href="#DejaVuSans-84"/>
       <use x="61.083984" xlink:href="#DejaVuSans-82"/>
       <use x="130.566406" xlink:href="#DejaVuSans-66"/>
       <use x="196.044922" xlink:href="#DejaVuSans-86"/>
       <use x="264.453125" xlink:href="#DejaVuSans-50"/>
       <use x="328.076172" xlink:href="#DejaVuSans-56"/>
      </g>
     </g>
    </g>
    <g id="xtick_7">
     <g id="line2d_7"/>
     <g id="text_7">
      <!-- TRBV7-2 -->
      <g transform="translate(193.023821 238.273727)rotate(-30)scale(0.08 -0.08)">
       <use xlink:href="#DejaVuSans-84"/>
       <use x="61.083984" xlink:href="#DejaVuSans-82"/>
       <use x="130.566406" xlink:href="#DejaVuSans-66"/>
       <use x="196.044922" xlink:href="#DejaVuSans-86"/>
       <use x="264.453125" xlink:href="#DejaVuSans-55"/>
       <use x="328.076172" xlink:href="#DejaVuSans-45"/>
       <use x="364.160156" xlink:href="#DejaVuSans-50"/>
      </g>
     </g>
    </g>
    <g id="xtick_8">
     <g id="line2d_8"/>
     <g id="text_8">
      <!-- TRBV2 -->
      <g transform="translate(227.579456 234.285602)rotate(-30)scale(0.08 -0.08)">
       <use xlink:href="#DejaVuSans-84"/>
       <use x="61.083984" xlink:href="#DejaVuSans-82"/>
       <use x="130.566406" xlink:href="#DejaVuSans-66"/>
       <use x="196.044922" xlink:href="#DejaVuSans-86"/>
       <use x="264.453125" xlink:href="#DejaVuSans-50"/>
      </g>
     </g>
    </g>
    <g id="xtick_9">
     <g id="line2d_9"/>
     <g id="text_9">
      <!-- TRBV9 -->
      <g transform="translate(255.227456 234.285602)rotate(-30)scale(0.08 -0.08)">
       <use xlink:href="#DejaVuSans-84"/>
       <use x="61.083984" xlink:href="#DejaVuSans-82"/>
       <use x="130.566406" xlink:href="#DejaVuSans-66"/>
       <use x="196.044922" xlink:href="#DejaVuSans-86"/>
       <use x="264.453125" xlink:href="#DejaVuSans-57"/>
      </g>
     </g>
    </g>
    <g id="xtick_10">
     <g id="line2d_10"/>
     <g id="text_10">
      <!-- TRBV3-1 -->
      <defs>
       <path d="M 40.578125 39.3125 
Q 47.65625 37.796875 51.625 33 
Q 55.609375 28.21875 55.609375 21.1875 
Q 55.609375 10.40625 48.1875 4.484375 
Q 40.765625 -1.421875 27.09375 -1.421875 
Q 22.515625 -1.421875 17.65625 -0.515625 
Q 12.796875 0.390625 7.625 2.203125 
L 7.625 11.71875 
Q 11.71875 9.328125 16.59375 8.109375 
Q 21.484375 6.890625 26.8125 6.890625 
Q 36.078125 6.890625 40.9375 10.546875 
Q 45.796875 14.203125 45.796875 21.1875 
Q 45.796875 27.640625 41.28125 31.265625 
Q 36.765625 34.90625 28.71875 34.90625 
L 20.21875 34.90625 
L 20.21875 43.015625 
L 29.109375 43.015625 
Q 36.375 43.015625 40.234375 45.921875 
Q 44.09375 48.828125 44.09375 54.296875 
Q 44.09375 59.90625 40.109375 62.90625 
Q 36.140625 65.921875 28.71875 65.921875 
Q 24.65625 65.921875 20.015625 65.03125 
Q 15.375 64.15625 9.8125 62.3125 
L 9.8125 71.09375 
Q 15.4375 72.65625 20.34375 73.4375 
Q 25.25 74.21875 29.59375 74.21875 
Q 40.828125 74.21875 47.359375 69.109375 
Q 53.90625 64.015625 53.90625 55.328125 
Q 53.90625 49.265625 50.4375 45.09375 
Q 46.96875 40.921875 40.578125 39.3125 
z
" id="DejaVuSans-51"/>
      </defs>
      <g transform="translate(275.967821 238.273727)rotate(-30)scale(0.08 -0.08)">
       <use xlink:href="#DejaVuSans-84"/>
       <use x="61.083984" xlink:href="#DejaVuSans-82"/>
       <use x="130.566406" xlink:href="#DejaVuSans-66"/>
       <use x="196.044922" xlink:href="#DejaVuSans-86"/>
       <use x="264.453125" xlink:href="#DejaVuSans-51"/>
       <use x="328.076172" xlink:href="#DejaVuSans-45"/>
       <use x="364.160156" xlink:href="#DejaVuSans-49"/>
      </g>
     </g>
    </g>
    <g id="text_11">
     <!-- Fraction of cells in sample -->
     <defs>
      <path d="M 9.8125 72.90625 
L 51.703125 72.90625 
L 51.703125 64.59375 
L 19.671875 64.59375 
L 19.671875 43.109375 
L 48.578125 43.109375 
L 48.578125 34.8125 
L 19.671875 34.8125 
L 19.671875 0 
L 9.8125 0 
z
" id="DejaVuSans-70"/>
      <path d="M 41.109375 46.296875 
Q 39.59375 47.171875 37.8125 47.578125 
Q 36.03125 48 33.890625 48 
Q 26.265625 48 22.1875 43.046875 
Q 18.109375 38.09375 18.109375 28.8125 
L 18.109375 0 
L 9.078125 0 
L 9.078125 54.6875 
L 18.109375 54.6875 
L 18.109375 46.1875 
Q 20.953125 51.171875 25.484375 53.578125 
Q 30.03125 56 36.53125 56 
Q 37.453125 56 38.578125 55.875 
Q 39.703125 55.765625 41.0625 55.515625 
z
" id="DejaVuSans-114"/>
      <path d="M 34.28125 27.484375 
Q 23.390625 27.484375 19.1875 25 
Q 14.984375 22.515625 14.984375 16.5 
Q 14.984375 11.71875 18.140625 8.90625 
Q 21.296875 6.109375 26.703125 6.109375 
Q 34.1875 6.109375 38.703125 11.40625 
Q 43.21875 16.703125 43.21875 25.484375 
L 43.21875 27.484375 
z
M 52.203125 31.203125 
L 52.203125 0 
L 43.21875 0 
L 43.21875 8.296875 
Q 40.140625 3.328125 35.546875 0.953125 
Q 30.953125 -1.421875 24.3125 -1.421875 
Q 15.921875 -1.421875 10.953125 3.296875 
Q 6 8.015625 6 15.921875 
Q 6 25.140625 12.171875 29.828125 
Q 18.359375 34.515625 30.609375 34.515625 
L 43.21875 34.515625 
L 43.21875 35.40625 
Q 43.21875 41.609375 39.140625 45 
Q 35.0625 48.390625 27.6875 48.390625 
Q 23 48.390625 18.546875 47.265625 
Q 14.109375 46.140625 10.015625 43.890625 
L 10.015625 52.203125 
Q 14.9375 54.109375 19.578125 55.046875 
Q 24.21875 56 28.609375 56 
Q 40.484375 56 46.34375 49.84375 
Q 52.203125 43.703125 52.203125 31.203125 
z
" id="DejaVuSans-97"/>
      <path d="M 48.78125 52.59375 
L 48.78125 44.1875 
Q 44.96875 46.296875 41.140625 47.34375 
Q 37.3125 48.390625 33.40625 48.390625 
Q 24.65625 48.390625 19.8125 42.84375 
Q 14.984375 37.3125 14.984375 27.296875 
Q 14.984375 17.28125 19.8125 11.734375 
Q 24.65625 6.203125 33.40625 6.203125 
Q 37.3125 6.203125 41.140625 7.25 
Q 44.96875 8.296875 48.78125 10.40625 
L 48.78125 2.09375 
Q 45.015625 0.34375 40.984375 -0.53125 
Q 36.96875 -1.421875 32.421875 -1.421875 
Q 20.0625 -1.421875 12.78125 6.34375 
Q 5.515625 14.109375 5.515625 27.296875 
Q 5.515625 40.671875 12.859375 48.328125 
Q 20.21875 56 33.015625 56 
Q 37.15625 56 41.109375 55.140625 
Q 45.0625 54.296875 48.78125 52.59375 
z
" id="DejaVuSans-99"/>
      <path d="M 18.3125 70.21875 
L 18.3125 54.6875 
L 36.8125 54.6875 
L 36.8125 47.703125 
L 18.3125 47.703125 
L 18.3125 18.015625 
Q 18.3125 11.328125 20.140625 9.421875 
Q 21.96875 7.515625 27.59375 7.515625 
L 36.8125 7.515625 
L 36.8125 0 
L 27.59375 0 
Q 17.1875 0 13.234375 3.875 
Q 9.28125 7.765625 9.28125 18.015625 
L 9.28125 47.703125 
L 2.6875 47.703125 
L 2.6875 54.6875 
L 9.28125 54.6875 
L 9.28125 70.21875 
z
" id="DejaVuSans-116"/>
      <path d="M 9.421875 54.6875 
L 18.40625 54.6875 
L 18.40625 0 
L 9.421875 0 
z
M 9.421875 75.984375 
L 18.40625 75.984375 
L 18.40625 64.59375 
L 9.421875 64.59375 
z
" id="DejaVuSans-105"/>
      <path d="M 30.609375 48.390625 
Q 23.390625 48.390625 19.1875 42.75 
Q 14.984375 37.109375 14.984375 27.296875 
Q 14.984375 17.484375 19.15625 11.84375 
Q 23.34375 6.203125 30.609375 6.203125 
Q 37.796875 6.203125 41.984375 11.859375 
Q 46.1875 17.53125 46.1875 27.296875 
Q 46.1875 37.015625 41.984375 42.703125 
Q 37.796875 48.390625 30.609375 48.390625 
z
M 30.609375 56 
Q 42.328125 56 49.015625 48.375 
Q 55.71875 40.765625 55.71875 27.296875 
Q 55.71875 13.875 49.015625 6.21875 
Q 42.328125 -1.421875 30.609375 -1.421875 
Q 18.84375 -1.421875 12.171875 6.21875 
Q 5.515625 13.875 5.515625 27.296875 
Q 5.515625 40.765625 12.171875 48.375 
Q 18.84375 56 30.609375 56 
z
" id="DejaVuSans-111"/>
      <path d="M 54.890625 33.015625 
L 54.890625 0 
L 45.90625 0 
L 45.90625 32.71875 
Q 45.90625 40.484375 42.875 44.328125 
Q 39.84375 48.1875 33.796875 48.1875 
Q 26.515625 48.1875 22.3125 43.546875 
Q 18.109375 38.921875 18.109375 30.90625 
L 18.109375 0 
L 9.078125 0 
L 9.078125 54.6875 
L 18.109375 54.6875 
L 18.109375 46.1875 
Q 21.34375 51.125 25.703125 53.5625 
Q 30.078125 56 35.796875 56 
Q 45.21875 56 50.046875 50.171875 
Q 54.890625 44.34375 54.890625 33.015625 
z
" id="DejaVuSans-110"/>
      <path id="DejaVuSans-32"/>
      <path d="M 37.109375 75.984375 
L 37.109375 68.5 
L 28.515625 68.5 
Q 23.6875 68.5 21.796875 66.546875 
Q 19.921875 64.59375 19.921875 59.515625 
L 19.921875 54.6875 
L 34.71875 54.6875 
L 34.71875 47.703125 
L 19.921875 47.703125 
L 19.921875 0 
L 10.890625 0 
L 10.890625 47.703125 
L 2.296875 47.703125 
L 2.296875 54.6875 
L 10.890625 54.6875 
L 10.890625 58.5 
Q 10.890625 67.625 15.140625 71.796875 
Q 19.390625 75.984375 28.609375 75.984375 
z
" id="DejaVuSans-102"/>
      <path d="M 56.203125 29.59375 
L 56.203125 25.203125 
L 14.890625 25.203125 
Q 15.484375 15.921875 20.484375 11.0625 
Q 25.484375 6.203125 34.421875 6.203125 
Q 39.59375 6.203125 44.453125 7.46875 
Q 49.3125 8.734375 54.109375 11.28125 
L 54.109375 2.78125 
Q 49.265625 0.734375 44.1875 -0.34375 
Q 39.109375 -1.421875 33.890625 -1.421875 
Q 20.796875 -1.421875 13.15625 6.1875 
Q 5.515625 13.8125 5.515625 26.8125 
Q 5.515625 40.234375 12.765625 48.109375 
Q 20.015625 56 32.328125 56 
Q 43.359375 56 49.78125 48.890625 
Q 56.203125 41.796875 56.203125 29.59375 
z
M 47.21875 32.234375 
Q 47.125 39.59375 43.09375 43.984375 
Q 39.0625 48.390625 32.421875 48.390625 
Q 24.90625 48.390625 20.390625 44.140625 
Q 15.875 39.890625 15.1875 32.171875 
z
" id="DejaVuSans-101"/>
      <path d="M 9.421875 75.984375 
L 18.40625 75.984375 
L 18.40625 0 
L 9.421875 0 
z
" id="DejaVuSans-108"/>
      <path d="M 44.28125 53.078125 
L 44.28125 44.578125 
Q 40.484375 46.53125 36.375 47.5 
Q 32.28125 48.484375 27.875 48.484375 
Q 21.1875 48.484375 17.84375 46.4375 
Q 14.5 44.390625 14.5 40.28125 
Q 14.5 37.15625 16.890625 35.375 
Q 19.28125 33.59375 26.515625 31.984375 
L 29.59375 31.296875 
Q 39.15625 29.25 43.1875 25.515625 
Q 47.21875 21.78125 47.21875 15.09375 
Q 47.21875 7.46875 41.1875 3.015625 
Q 35.15625 -1.421875 24.609375 -1.421875 
Q 20.21875 -1.421875 15.453125 -0.5625 
Q 10.6875 0.296875 5.421875 2 
L 5.421875 11.28125 
Q 10.40625 8.6875 15.234375 7.390625 
Q 20.0625 6.109375 24.8125 6.109375 
Q 31.15625 6.109375 34.5625 8.28125 
Q 37.984375 10.453125 37.984375 14.40625 
Q 37.984375 18.0625 35.515625 20.015625 
Q 33.0625 21.96875 24.703125 23.78125 
L 21.578125 24.515625 
Q 13.234375 26.265625 9.515625 29.90625 
Q 5.8125 33.546875 5.8125 39.890625 
Q 5.8125 47.609375 11.28125 51.796875 
Q 16.75 56 26.8125 56 
Q 31.78125 56 36.171875 55.265625 
Q 40.578125 54.546875 44.28125 53.078125 
z
" id="DejaVuSans-115"/>
      <path d="M 52 44.1875 
Q 55.375 50.25 60.0625 53.125 
Q 64.75 56 71.09375 56 
Q 79.640625 56 84.28125 50.015625 
Q 88.921875 44.046875 88.921875 33.015625 
L 88.921875 0 
L 79.890625 0 
L 79.890625 32.71875 
Q 79.890625 40.578125 77.09375 44.375 
Q 74.3125 48.1875 68.609375 48.1875 
Q 61.625 48.1875 57.5625 43.546875 
Q 53.515625 38.921875 53.515625 30.90625 
L 53.515625 0 
L 44.484375 0 
L 44.484375 32.71875 
Q 44.484375 40.625 41.703125 44.40625 
Q 38.921875 48.1875 33.109375 48.1875 
Q 26.21875 48.1875 22.15625 43.53125 
Q 18.109375 38.875 18.109375 30.90625 
L 18.109375 0 
L 9.078125 0 
L 9.078125 54.6875 
L 18.109375 54.6875 
L 18.109375 46.1875 
Q 21.1875 51.21875 25.484375 53.609375 
Q 29.78125 56 35.6875 56 
Q 41.65625 56 45.828125 52.96875 
Q 50 49.953125 52 44.1875 
z
" id="DejaVuSans-109"/>
      <path d="M 18.109375 8.203125 
L 18.109375 -20.796875 
L 9.078125 -20.796875 
L 9.078125 54.6875 
L 18.109375 54.6875 
L 18.109375 46.390625 
Q 20.953125 51.265625 25.265625 53.625 
Q 29.59375 56 35.59375 56 
Q 45.5625 56 51.78125 48.09375 
Q 58.015625 40.1875 58.015625 27.296875 
Q 58.015625 14.40625 51.78125 6.484375 
Q 45.5625 -1.421875 35.59375 -1.421875 
Q 29.59375 -1.421875 25.265625 0.953125 
Q 20.953125 3.328125 18.109375 8.203125 
z
M 48.6875 27.296875 
Q 48.6875 37.203125 44.609375 42.84375 
Q 40.53125 48.484375 33.40625 48.484375 
Q 26.265625 48.484375 22.1875 42.84375 
Q 18.109375 37.203125 18.109375 27.296875 
Q 18.109375 17.390625 22.1875 11.75 
Q 26.265625 6.109375 33.40625 6.109375 
Q 40.53125 6.109375 44.609375 11.75 
Q 48.6875 17.390625 48.6875 27.296875 
z
" id="DejaVuSans-112"/>
     </defs>
     <g transform="translate(116.940781 253.858014)scale(0.1 -0.1)">
      <use xlink:href="#DejaVuSans-70"/>
      <use x="50.269531" xlink:href="#DejaVuSans-114"/>
      <use x="91.382812" xlink:href="#DejaVuSans-97"/>
      <use x="152.662109" xlink:href="#DejaVuSans-99"/>
      <use x="207.642578" xlink:href="#DejaVuSans-116"/>
      <use x="246.851562" xlink:href="#DejaVuSans-105"/>
      <use x="274.634766" xlink:href="#DejaVuSans-111"/>
      <use x="335.816406" xlink:href="#DejaVuSans-110"/>
      <use x="399.195312" xlink:href="#DejaVuSans-32"/>
      <use x="430.982422" xlink:href="#DejaVuSans-111"/>
      <use x="492.164062" xlink:href="#DejaVuSans-102"/>
      <use x="527.369141" xlink:href="#DejaVuSans-32"/>
      <use x="559.15625" xlink:href="#DejaVuSans-99"/>
      <use x="614.136719" xlink:href="#DejaVuSans-101"/>
      <use x="675.660156" xlink:href="#DejaVuSans-108"/>
      <use x="703.443359" xlink:href="#DejaVuSans-108"/>
      <use x="731.226562" xlink:href="#DejaVuSans-115"/>
      <use x="783.326172" xlink:href="#DejaVuSans-32"/>
      <use x="815.113281" xlink:href="#DejaVuSans-105"/>
      <use x="842.896484" xlink:href="#DejaVuSans-110"/>
      <use x="906.275391" xlink:href="#DejaVuSans-32"/>
      <use x="938.0625" xlink:href="#DejaVuSans-115"/>
      <use x="990.162109" xlink:href="#DejaVuSans-97"/>
      <use x="1051.441406" xlink:href="#DejaVuSans-109"/>
      <use x="1148.853516" xlink:href="#DejaVuSans-112"/>
      <use x="1212.330078" xlink:href="#DejaVuSans-108"/>
      <use x="1240.113281" xlink:href="#DejaVuSans-101"/>
     </g>
    </g>
   </g>
   <g id="matplotlib.axis_2">
    <g id="ytick_1">
     <g id="line2d_11">
      <defs>
       <path d="M 0 0 
L -3.5 0 
" id="m5487455033" style="stroke:#000000;stroke-width:0.8;"/>
      </defs>
      <g>
       <use style="stroke:#000000;stroke-width:0.8;" x="43.78125" xlink:href="#m5487455033" y="212.398125"/>
      </g>
     </g>
     <g id="text_12">
      <!-- 0.0 -->
      <defs>
       <path d="M 10.6875 12.40625 
L 21 12.40625 
L 21 0 
L 10.6875 0 
z
" id="DejaVuSans-46"/>
      </defs>
      <g transform="translate(20.878125 216.197344)scale(0.1 -0.1)">
       <use xlink:href="#DejaVuSans-48"/>
       <use x="63.623047" xlink:href="#DejaVuSans-46"/>
       <use x="95.410156" xlink:href="#DejaVuSans-48"/>
      </g>
     </g>
    </g>
    <g id="ytick_2">
     <g id="line2d_12">
      <g>
       <use style="stroke:#000000;stroke-width:0.8;" x="43.78125" xlink:href="#m5487455033" y="180.562044"/>
      </g>
     </g>
     <g id="text_13">
      <!-- 0.5 -->
      <g transform="translate(20.878125 184.361263)scale(0.1 -0.1)">
       <use xlink:href="#DejaVuSans-48"/>
       <use x="63.623047" xlink:href="#DejaVuSans-46"/>
       <use x="95.410156" xlink:href="#DejaVuSans-53"/>
      </g>
     </g>
    </g>
    <g id="ytick_3">
     <g id="line2d_13">
      <g>
       <use style="stroke:#000000;stroke-width:0.8;" x="43.78125" xlink:href="#m5487455033" y="148.725963"/>
      </g>
     </g>
     <g id="text_14">
      <!-- 1.0 -->
      <g transform="translate(20.878125 152.525182)scale(0.1 -0.1)">
       <use xlink:href="#DejaVuSans-49"/>
       <use x="63.623047" xlink:href="#DejaVuSans-46"/>
       <use x="95.410156" xlink:href="#DejaVuSans-48"/>
      </g>
     </g>
    </g>
    <g id="ytick_4">
     <g id="line2d_14">
      <g>
       <use style="stroke:#000000;stroke-width:0.8;" x="43.78125" xlink:href="#m5487455033" y="116.889882"/>
      </g>
     </g>
     <g id="text_15">
      <!-- 1.5 -->
      <g transform="translate(20.878125 120.689101)scale(0.1 -0.1)">
       <use xlink:href="#DejaVuSans-49"/>
       <use x="63.623047" xlink:href="#DejaVuSans-46"/>
       <use x="95.410156" xlink:href="#DejaVuSans-53"/>
      </g>
     </g>
    </g>
    <g id="ytick_5">
     <g id="line2d_15">
      <g>
       <use style="stroke:#000000;stroke-width:0.8;" x="43.78125" xlink:href="#m5487455033" y="85.053802"/>
      </g>
     </g>
     <g id="text_16">
      <!-- 2.0 -->
      <g transform="translate(20.878125 88.85302)scale(0.1 -0.1)">
       <use xlink:href="#DejaVuSans-50"/>
       <use x="63.623047" xlink:href="#DejaVuSans-46"/>
       <use x="95.410156" xlink:href="#DejaVuSans-48"/>
      </g>
     </g>
    </g>
    <g id="ytick_6">
     <g id="line2d_16">
      <g>
       <use style="stroke:#000000;stroke-width:0.8;" x="43.78125" xlink:href="#m5487455033" y="53.217721"/>
      </g>
     </g>
     <g id="text_17">
      <!-- 2.5 -->
      <g transform="translate(20.878125 57.016939)scale(0.1 -0.1)">
       <use xlink:href="#DejaVuSans-50"/>
       <use x="63.623047" xlink:href="#DejaVuSans-46"/>
       <use x="95.410156" xlink:href="#DejaVuSans-53"/>
      </g>
     </g>
    </g>
    <g id="text_18">
     <!-- Fraction of cells in sample -->
     <g transform="translate(14.798438 182.438594)rotate(-90)scale(0.1 -0.1)">
      <use xlink:href="#DejaVuSans-70"/>
      <use x="50.269531" xlink:href="#DejaVuSans-114"/>
      <use x="91.382812" xlink:href="#DejaVuSans-97"/>
      <use x="152.662109" xlink:href="#DejaVuSans-99"/>
      <use x="207.642578" xlink:href="#DejaVuSans-116"/>
      <use x="246.851562" xlink:href="#DejaVuSans-105"/>
      <use x="274.634766" xlink:href="#DejaVuSans-111"/>
      <use x="335.816406" xlink:href="#DejaVuSans-110"/>
      <use x="399.195312" xlink:href="#DejaVuSans-32"/>
      <use x="430.982422" xlink:href="#DejaVuSans-111"/>
      <use x="492.164062" xlink:href="#DejaVuSans-102"/>
      <use x="527.369141" xlink:href="#DejaVuSans-32"/>
      <use x="559.15625" xlink:href="#DejaVuSans-99"/>
      <use x="614.136719" xlink:href="#DejaVuSans-101"/>
      <use x="675.660156" xlink:href="#DejaVuSans-108"/>
      <use x="703.443359" xlink:href="#DejaVuSans-108"/>
      <use x="731.226562" xlink:href="#DejaVuSans-115"/>
      <use x="783.326172" xlink:href="#DejaVuSans-32"/>
      <use x="815.113281" xlink:href="#DejaVuSans-105"/>
      <use x="842.896484" xlink:href="#DejaVuSans-110"/>
      <use x="906.275391" xlink:href="#DejaVuSans-32"/>
      <use x="938.0625" xlink:href="#DejaVuSans-115"/>
      <use x="990.162109" xlink:href="#DejaVuSans-97"/>
      <use x="1051.441406" xlink:href="#DejaVuSans-109"/>
      <use x="1148.853516" xlink:href="#DejaVuSans-112"/>
      <use x="1212.330078" xlink:href="#DejaVuSans-108"/>
      <use x="1240.113281" xlink:href="#DejaVuSans-101"/>
     </g>
    </g>
   </g>
   <g id="patch_103">
    <path d="M 43.78125 212.398125 
L 43.78125 22.318125 
" style="fill:none;stroke:#000000;stroke-linecap:square;stroke-linejoin:miter;stroke-width:0.8;"/>
   </g>
   <g id="patch_104">
    <path d="M 43.78125 212.398125 
L 320.26125 212.398125 
" style="fill:none;stroke:#000000;stroke-linecap:square;stroke-linejoin:miter;stroke-width:0.8;"/>
   </g>
   <g id="text_19">
    <!-- Fraction of cluster in each TRB_1_v_gene -->
    <defs>
     <path d="M 8.5 21.578125 
L 8.5 54.6875 
L 17.484375 54.6875 
L 17.484375 21.921875 
Q 17.484375 14.15625 20.5 10.265625 
Q 23.53125 6.390625 29.59375 6.390625 
Q 36.859375 6.390625 41.078125 11.03125 
Q 45.3125 15.671875 45.3125 23.6875 
L 45.3125 54.6875 
L 54.296875 54.6875 
L 54.296875 0 
L 45.3125 0 
L 45.3125 8.40625 
Q 42.046875 3.421875 37.71875 1 
Q 33.40625 -1.421875 27.6875 -1.421875 
Q 18.265625 -1.421875 13.375 4.4375 
Q 8.5 10.296875 8.5 21.578125 
z
M 31.109375 56 
z
" id="DejaVuSans-117"/>
     <path d="M 54.890625 33.015625 
L 54.890625 0 
L 45.90625 0 
L 45.90625 32.71875 
Q 45.90625 40.484375 42.875 44.328125 
Q 39.84375 48.1875 33.796875 48.1875 
Q 26.515625 48.1875 22.3125 43.546875 
Q 18.109375 38.921875 18.109375 30.90625 
L 18.109375 0 
L 9.078125 0 
L 9.078125 75.984375 
L 18.109375 75.984375 
L 18.109375 46.1875 
Q 21.34375 51.125 25.703125 53.5625 
Q 30.078125 56 35.796875 56 
Q 45.21875 56 50.046875 50.171875 
Q 54.890625 44.34375 54.890625 33.015625 
z
" id="DejaVuSans-104"/>
     <path d="M 50.984375 -16.609375 
L 50.984375 -23.578125 
L -0.984375 -23.578125 
L -0.984375 -16.609375 
z
" id="DejaVuSans-95"/>
     <path d="M 2.984375 54.6875 
L 12.5 54.6875 
L 29.59375 8.796875 
L 46.6875 54.6875 
L 56.203125 54.6875 
L 35.6875 0 
L 23.484375 0 
z
" id="DejaVuSans-118"/>
     <path d="M 45.40625 27.984375 
Q 45.40625 37.75 41.375 43.109375 
Q 37.359375 48.484375 30.078125 48.484375 
Q 22.859375 48.484375 18.828125 43.109375 
Q 14.796875 37.75 14.796875 27.984375 
Q 14.796875 18.265625 18.828125 12.890625 
Q 22.859375 7.515625 30.078125 7.515625 
Q 37.359375 7.515625 41.375 12.890625 
Q 45.40625 18.265625 45.40625 27.984375 
z
M 54.390625 6.78125 
Q 54.390625 -7.171875 48.1875 -13.984375 
Q 42 -20.796875 29.203125 -20.796875 
Q 24.46875 -20.796875 20.265625 -20.09375 
Q 16.0625 -19.390625 12.109375 -17.921875 
L 12.109375 -9.1875 
Q 16.0625 -11.328125 19.921875 -12.34375 
Q 23.78125 -13.375 27.78125 -13.375 
Q 36.625 -13.375 41.015625 -8.765625 
Q 45.40625 -4.15625 45.40625 5.171875 
L 45.40625 9.625 
Q 42.625 4.78125 38.28125 2.390625 
Q 33.9375 0 27.875 0 
Q 17.828125 0 11.671875 7.65625 
Q 5.515625 15.328125 5.515625 27.984375 
Q 5.515625 40.671875 11.671875 48.328125 
Q 17.828125 56 27.875 56 
Q 33.9375 56 38.28125 53.609375 
Q 42.625 51.21875 45.40625 46.390625 
L 45.40625 54.6875 
L 54.390625 54.6875 
z
" id="DejaVuSans-103"/>
    </defs>
    <g transform="translate(59.093438 16.318125)scale(0.12 -0.12)">
     <use xlink:href="#DejaVuSans-70"/>
     <use x="50.269531" xlink:href="#DejaVuSans-114"/>
     <use x="91.382812" xlink:href="#DejaVuSans-97"/>
     <use x="152.662109" xlink:href="#DejaVuSans-99"/>
     <use x="207.642578" xlink:href="#DejaVuSans-116"/>
     <use x="246.851562" xlink:href="#DejaVuSans-105"/>
     <use x="274.634766" xlink:href="#DejaVuSans-111"/>
     <use x="335.816406" xlink:href="#DejaVuSans-110"/>
     <use x="399.195312" xlink:href="#DejaVuSans-32"/>
     <use x="430.982422" xlink:href="#DejaVuSans-111"/>
     <use x="492.164062" xlink:href="#DejaVuSans-102"/>
     <use x="527.369141" xlink:href="#DejaVuSans-32"/>
     <use x="559.15625" xlink:href="#DejaVuSans-99"/>
     <use x="614.136719" xlink:href="#DejaVuSans-108"/>
     <use x="641.919922" xlink:href="#DejaVuSans-117"/>
     <use x="705.298828" xlink:href="#DejaVuSans-115"/>
     <use x="757.398438" xlink:href="#DejaVuSans-116"/>
     <use x="796.607422" xlink:href="#DejaVuSans-101"/>
     <use x="858.130859" xlink:href="#DejaVuSans-114"/>
     <use x="899.244141" xlink:href="#DejaVuSans-32"/>
     <use x="931.03125" xlink:href="#DejaVuSans-105"/>
     <use x="958.814453" xlink:href="#DejaVuSans-110"/>
     <use x="1022.193359" xlink:href="#DejaVuSans-32"/>
     <use x="1053.980469" xlink:href="#DejaVuSans-101"/>
     <use x="1115.503906" xlink:href="#DejaVuSans-97"/>
     <use x="1176.783203" xlink:href="#DejaVuSans-99"/>
     <use x="1231.763672" xlink:href="#DejaVuSans-104"/>
     <use x="1295.142578" xlink:href="#DejaVuSans-32"/>
     <use x="1326.929688" xlink:href="#DejaVuSans-84"/>
     <use x="1388.013672" xlink:href="#DejaVuSans-82"/>
     <use x="1457.496094" xlink:href="#DejaVuSans-66"/>
     <use x="1526.099609" xlink:href="#DejaVuSans-95"/>
     <use x="1576.099609" xlink:href="#DejaVuSans-49"/>
     <use x="1639.722656" xlink:href="#DejaVuSans-95"/>
     <use x="1689.722656" xlink:href="#DejaVuSans-118"/>
     <use x="1748.902344" xlink:href="#DejaVuSans-95"/>
     <use x="1798.902344" xlink:href="#DejaVuSans-103"/>
     <use x="1862.378906" xlink:href="#DejaVuSans-101"/>
     <use x="1923.902344" xlink:href="#DejaVuSans-110"/>
     <use x="1987.28125" xlink:href="#DejaVuSans-101"/>
    </g>
   </g>
   <g id="legend_1">
    <g id="patch_105">
     <path d="M 382.75725 35.596875 
L 398.75725 35.596875 
L 398.75725 29.996875 
L 382.75725 29.996875 
z
" style="fill:#1f77b4;"/>
    </g>
    <g id="text_20">
     <!-- CD8_Trm -->
     <defs>
      <path d="M 64.40625 67.28125 
L 64.40625 56.890625 
Q 59.421875 61.53125 53.78125 63.8125 
Q 48.140625 66.109375 41.796875 66.109375 
Q 29.296875 66.109375 22.65625 58.46875 
Q 16.015625 50.828125 16.015625 36.375 
Q 16.015625 21.96875 22.65625 14.328125 
Q 29.296875 6.6875 41.796875 6.6875 
Q 48.140625 6.6875 53.78125 8.984375 
Q 59.421875 11.28125 64.40625 15.921875 
L 64.40625 5.609375 
Q 59.234375 2.09375 53.4375 0.328125 
Q 47.65625 -1.421875 41.21875 -1.421875 
Q 24.65625 -1.421875 15.125 8.703125 
Q 5.609375 18.84375 5.609375 36.375 
Q 5.609375 53.953125 15.125 64.078125 
Q 24.65625 74.21875 41.21875 74.21875 
Q 47.75 74.21875 53.53125 72.484375 
Q 59.328125 70.75 64.40625 67.28125 
z
" id="DejaVuSans-67"/>
      <path d="M 19.671875 64.796875 
L 19.671875 8.109375 
L 31.59375 8.109375 
Q 46.6875 8.109375 53.6875 14.9375 
Q 60.6875 21.78125 60.6875 36.53125 
Q 60.6875 51.171875 53.6875 57.984375 
Q 46.6875 64.796875 31.59375 64.796875 
z
M 9.8125 72.90625 
L 30.078125 72.90625 
Q 51.265625 72.90625 61.171875 64.09375 
Q 71.09375 55.28125 71.09375 36.53125 
Q 71.09375 17.671875 61.125 8.828125 
Q 51.171875 0 30.078125 0 
L 9.8125 0 
z
" id="DejaVuSans-68"/>
     </defs>
     <g transform="translate(405.15725 35.596875)scale(0.08 -0.08)">
      <use xlink:href="#DejaVuSans-67"/>
      <use x="69.824219" xlink:href="#DejaVuSans-68"/>
      <use x="146.826172" xlink:href="#DejaVuSans-56"/>
      <use x="210.449219" xlink:href="#DejaVuSans-95"/>
      <use x="260.449219" xlink:href="#DejaVuSans-84"/>
      <use x="306.783203" xlink:href="#DejaVuSans-114"/>
      <use x="346.146484" xlink:href="#DejaVuSans-109"/>
     </g>
    </g>
    <g id="patch_106">
     <path d="M 382.75725 47.561875 
L 398.75725 47.561875 
L 398.75725 41.961875 
L 382.75725 41.961875 
z
" style="fill:#ff7f0e;"/>
    </g>
    <g id="text_21">
     <!-- CD4_TCF7 -->
     <defs>
      <path d="M 37.796875 64.3125 
L 12.890625 25.390625 
L 37.796875 25.390625 
z
M 35.203125 72.90625 
L 47.609375 72.90625 
L 47.609375 25.390625 
L 58.015625 25.390625 
L 58.015625 17.1875 
L 47.609375 17.1875 
L 47.609375 0 
L 37.796875 0 
L 37.796875 17.1875 
L 4.890625 17.1875 
L 4.890625 26.703125 
z
" id="DejaVuSans-52"/>
     </defs>
     <g transform="translate(405.15725 47.561875)scale(0.08 -0.08)">
      <use xlink:href="#DejaVuSans-67"/>
      <use x="69.824219" xlink:href="#DejaVuSans-68"/>
      <use x="146.826172" xlink:href="#DejaVuSans-52"/>
      <use x="210.449219" xlink:href="#DejaVuSans-95"/>
      <use x="260.449219" xlink:href="#DejaVuSans-84"/>
      <use x="315.658203" xlink:href="#DejaVuSans-67"/>
      <use x="385.482422" xlink:href="#DejaVuSans-70"/>
      <use x="443.001953" xlink:href="#DejaVuSans-55"/>
     </g>
    </g>
    <g id="patch_107">
     <path d="M 382.75725 59.526875 
L 398.75725 59.526875 
L 398.75725 53.926875 
L 382.75725 53.926875 
z
" style="fill:#2ca02c;"/>
    </g>
    <g id="text_22">
     <!-- CD8_Tem -->
     <g transform="translate(405.15725 59.526875)scale(0.08 -0.08)">
      <use xlink:href="#DejaVuSans-67"/>
      <use x="69.824219" xlink:href="#DejaVuSans-68"/>
      <use x="146.826172" xlink:href="#DejaVuSans-56"/>
      <use x="210.449219" xlink:href="#DejaVuSans-95"/>
      <use x="260.449219" xlink:href="#DejaVuSans-84"/>
      <use x="304.533203" xlink:href="#DejaVuSans-101"/>
      <use x="366.056641" xlink:href="#DejaVuSans-109"/>
     </g>
    </g>
    <g id="patch_108">
     <path d="M 382.75725 71.491875 
L 398.75725 71.491875 
L 398.75725 65.891875 
L 382.75725 65.891875 
z
" style="fill:#d62728;"/>
    </g>
    <g id="text_23">
     <!-- CD4_FOSS -->
     <defs>
      <path d="M 39.40625 66.21875 
Q 28.65625 66.21875 22.328125 58.203125 
Q 16.015625 50.203125 16.015625 36.375 
Q 16.015625 22.609375 22.328125 14.59375 
Q 28.65625 6.59375 39.40625 6.59375 
Q 50.140625 6.59375 56.421875 14.59375 
Q 62.703125 22.609375 62.703125 36.375 
Q 62.703125 50.203125 56.421875 58.203125 
Q 50.140625 66.21875 39.40625 66.21875 
z
M 39.40625 74.21875 
Q 54.734375 74.21875 63.90625 63.9375 
Q 73.09375 53.65625 73.09375 36.375 
Q 73.09375 19.140625 63.90625 8.859375 
Q 54.734375 -1.421875 39.40625 -1.421875 
Q 24.03125 -1.421875 14.8125 8.828125 
Q 5.609375 19.09375 5.609375 36.375 
Q 5.609375 53.65625 14.8125 63.9375 
Q 24.03125 74.21875 39.40625 74.21875 
z
" id="DejaVuSans-79"/>
      <path d="M 53.515625 70.515625 
L 53.515625 60.890625 
Q 47.90625 63.578125 42.921875 64.890625 
Q 37.9375 66.21875 33.296875 66.21875 
Q 25.25 66.21875 20.875 63.09375 
Q 16.5 59.96875 16.5 54.203125 
Q 16.5 49.359375 19.40625 46.890625 
Q 22.3125 44.4375 30.421875 42.921875 
L 36.375 41.703125 
Q 47.40625 39.59375 52.65625 34.296875 
Q 57.90625 29 57.90625 20.125 
Q 57.90625 9.515625 50.796875 4.046875 
Q 43.703125 -1.421875 29.984375 -1.421875 
Q 24.8125 -1.421875 18.96875 -0.25 
Q 13.140625 0.921875 6.890625 3.21875 
L 6.890625 13.375 
Q 12.890625 10.015625 18.65625 8.296875 
Q 24.421875 6.59375 29.984375 6.59375 
Q 38.421875 6.59375 43.015625 9.90625 
Q 47.609375 13.234375 47.609375 19.390625 
Q 47.609375 24.75 44.3125 27.78125 
Q 41.015625 30.8125 33.5 32.328125 
L 27.484375 33.5 
Q 16.453125 35.6875 11.515625 40.375 
Q 6.59375 45.0625 6.59375 53.421875 
Q 6.59375 63.09375 13.40625 68.65625 
Q 20.21875 74.21875 32.171875 74.21875 
Q 37.3125 74.21875 42.625 73.28125 
Q 47.953125 72.359375 53.515625 70.515625 
z
" id="DejaVuSans-83"/>
     </defs>
     <g transform="translate(405.15725 71.491875)scale(0.08 -0.08)">
      <use xlink:href="#DejaVuSans-67"/>
      <use x="69.824219" xlink:href="#DejaVuSans-68"/>
      <use x="146.826172" xlink:href="#DejaVuSans-52"/>
      <use x="210.449219" xlink:href="#DejaVuSans-95"/>
      <use x="260.449219" xlink:href="#DejaVuSans-70"/>
      <use x="317.96875" xlink:href="#DejaVuSans-79"/>
      <use x="396.679688" xlink:href="#DejaVuSans-83"/>
      <use x="460.15625" xlink:href="#DejaVuSans-83"/>
     </g>
    </g>
    <g id="patch_109">
     <path d="M 382.75725 83.456875 
L 398.75725 83.456875 
L 398.75725 77.856875 
L 382.75725 77.856875 
z
" style="fill:#9467bd;"/>
    </g>
    <g id="text_24">
     <!-- other -->
     <g transform="translate(405.15725 83.456875)scale(0.08 -0.08)">
      <use xlink:href="#DejaVuSans-111"/>
      <use x="61.181641" xlink:href="#DejaVuSans-116"/>
      <use x="100.390625" xlink:href="#DejaVuSans-104"/>
      <use x="163.769531" xlink:href="#DejaVuSans-101"/>
      <use x="225.292969" xlink:href="#DejaVuSans-114"/>
     </g>
    </g>
    <g id="patch_110">
     <path d="M 382.75725 95.199375 
L 398.75725 95.199375 
L 398.75725 89.599375 
L 382.75725 89.599375 
z
" style="fill:#8c564b;"/>
    </g>
    <g id="text_25">
     <!-- CD4_Trm -->
     <g transform="translate(405.15725 95.199375)scale(0.08 -0.08)">
      <use xlink:href="#DejaVuSans-67"/>
      <use x="69.824219" xlink:href="#DejaVuSans-68"/>
      <use x="146.826172" xlink:href="#DejaVuSans-52"/>
      <use x="210.449219" xlink:href="#DejaVuSans-95"/>
      <use x="260.449219" xlink:href="#DejaVuSans-84"/>
      <use x="306.783203" xlink:href="#DejaVuSans-114"/>
      <use x="346.146484" xlink:href="#DejaVuSans-109"/>
     </g>
    </g>
    <g id="patch_111">
     <path d="M 382.75725 107.164375 
L 398.75725 107.164375 
L 398.75725 101.564375 
L 382.75725 101.564375 
z
" style="fill:#e377c2;"/>
    </g>
    <g id="text_26">
     <!-- CD4_Treg -->
     <g transform="translate(405.15725 107.164375)scale(0.08 -0.08)">
      <use xlink:href="#DejaVuSans-67"/>
      <use x="69.824219" xlink:href="#DejaVuSans-68"/>
      <use x="146.826172" xlink:href="#DejaVuSans-52"/>
      <use x="210.449219" xlink:href="#DejaVuSans-95"/>
      <use x="260.449219" xlink:href="#DejaVuSans-84"/>
      <use x="306.783203" xlink:href="#DejaVuSans-114"/>
      <use x="345.646484" xlink:href="#DejaVuSans-101"/>
      <use x="407.169922" xlink:href="#DejaVuSans-103"/>
     </g>
    </g>
    <g id="patch_112">
     <path d="M 382.75725 119.129375 
L 398.75725 119.129375 
L 398.75725 113.529375 
L 382.75725 113.529375 
z
" style="fill:#7f7f7f;"/>
    </g>
    <g id="text_27">
     <!-- CD8_Teff -->
     <g transform="translate(405.15725 119.129375)scale(0.08 -0.08)">
      <use xlink:href="#DejaVuSans-67"/>
      <use x="69.824219" xlink:href="#DejaVuSans-68"/>
      <use x="146.826172" xlink:href="#DejaVuSans-56"/>
      <use x="210.449219" xlink:href="#DejaVuSans-95"/>
      <use x="260.449219" xlink:href="#DejaVuSans-84"/>
      <use x="304.533203" xlink:href="#DejaVuSans-101"/>
      <use x="366.056641" xlink:href="#DejaVuSans-102"/>
      <use x="401.261719" xlink:href="#DejaVuSans-102"/>
     </g>
    </g>
    <g id="patch_113">
     <path d="M 382.75725 131.094375 
L 398.75725 131.094375 
L 398.75725 125.494375 
L 382.75725 125.494375 
z
" style="fill:#bcbd22;"/>
    </g>
    <g id="text_28">
     <!-- CD4_RPL32 -->
     <defs>
      <path d="M 19.671875 64.796875 
L 19.671875 37.40625 
L 32.078125 37.40625 
Q 38.96875 37.40625 42.71875 40.96875 
Q 46.484375 44.53125 46.484375 51.125 
Q 46.484375 57.671875 42.71875 61.234375 
Q 38.96875 64.796875 32.078125 64.796875 
z
M 9.8125 72.90625 
L 32.078125 72.90625 
Q 44.34375 72.90625 50.609375 67.359375 
Q 56.890625 61.8125 56.890625 51.125 
Q 56.890625 40.328125 50.609375 34.8125 
Q 44.34375 29.296875 32.078125 29.296875 
L 19.671875 29.296875 
L 19.671875 0 
L 9.8125 0 
z
" id="DejaVuSans-80"/>
      <path d="M 9.8125 72.90625 
L 19.671875 72.90625 
L 19.671875 8.296875 
L 55.171875 8.296875 
L 55.171875 0 
L 9.8125 0 
z
" id="DejaVuSans-76"/>
     </defs>
     <g transform="translate(405.15725 131.094375)scale(0.08 -0.08)">
      <use xlink:href="#DejaVuSans-67"/>
      <use x="69.824219" xlink:href="#DejaVuSans-68"/>
      <use x="146.826172" xlink:href="#DejaVuSans-52"/>
      <use x="210.449219" xlink:href="#DejaVuSans-95"/>
      <use x="260.449219" xlink:href="#DejaVuSans-82"/>
      <use x="329.931641" xlink:href="#DejaVuSans-80"/>
      <use x="390.234375" xlink:href="#DejaVuSans-76"/>
      <use x="445.947266" xlink:href="#DejaVuSans-51"/>
      <use x="509.570312" xlink:href="#DejaVuSans-50"/>
     </g>
    </g>
    <g id="patch_114">
     <path d="M 382.75725 143.059375 
L 398.75725 143.059375 
L 398.75725 137.459375 
L 382.75725 137.459375 
z
" style="fill:#17becf;"/>
    </g>
    <g id="text_29">
     <!-- CD4_IL6ST -->
     <defs>
      <path d="M 9.8125 72.90625 
L 19.671875 72.90625 
L 19.671875 0 
L 9.8125 0 
z
" id="DejaVuSans-73"/>
     </defs>
     <g transform="translate(405.15725 143.059375)scale(0.08 -0.08)">
      <use xlink:href="#DejaVuSans-67"/>
      <use x="69.824219" xlink:href="#DejaVuSans-68"/>
      <use x="146.826172" xlink:href="#DejaVuSans-52"/>
      <use x="210.449219" xlink:href="#DejaVuSans-95"/>
      <use x="260.449219" xlink:href="#DejaVuSans-73"/>
      <use x="289.941406" xlink:href="#DejaVuSans-76"/>
      <use x="345.654297" xlink:href="#DejaVuSans-54"/>
      <use x="409.277344" xlink:href="#DejaVuSans-83"/>
      <use x="472.753906" xlink:href="#DejaVuSans-84"/>
     </g>
    </g>
   </g>
  </g>
 </g>
 <defs>
  <clipPath id="p04aac95ae6">
   <rect height="190.08" width="276.48" x="43.78125" y="22.318125"/>
  </clipPath>
 </defs>
</svg>
