<?xml version="1.0" encoding="utf-8" standalone="no"?>
<!DOCTYPE svg PUBLIC "-//W3C//DTD SVG 1.1//EN"
  "http://www.w3.org/Graphics/SVG/1.1/DTD/svg11.dtd">
<!-- Created with matplotlib (https://matplotlib.org/) -->
<svg height="246.721562pt" version="1.1" viewBox="0 0 469.02475 246.721562" width="469.02475pt" xmlns="http://www.w3.org/2000/svg" xmlns:xlink="http://www.w3.org/1999/xlink">
 <defs>
  <style type="text/css">
*{stroke-linecap:butt;stroke-linejoin:round;}
  </style>
 </defs>
 <g id="figure_1">
  <g id="patch_1">
   <path d="M 0 246.721562 
L 469.02475 246.721562 
L 469.02475 0 
L 0 0 
z
" style="fill:#ffffff;"/>
  </g>
  <g id="axes_1">
   <g id="patch_2">
    <path d="M 51.3925 210.878437 
L 327.8725 210.878437 
L 327.8725 20.798437 
L 51.3925 20.798437 
z
" style="fill:#ffffff;"/>
   </g>
   <g id="matplotlib.axis_1">
    <g id="xtick_1">
     <g id="line2d_1">
      <defs>
       <path d="M 0 0 
L 0 3.5 
" id="mebbe80b825" style="stroke:#000000;stroke-width:0.8;"/>
      </defs>
      <g>
       <use style="stroke:#000000;stroke-width:0.8;" x="63.959773" xlink:href="#mebbe80b825" y="210.878437"/>
      </g>
     </g>
     <g id="text_1">
      <!-- 0 -->
      <defs>
       <path d="M 31.78125 66.40625 
Q 24.171875 66.40625 20.328125 58.90625 
Q 16.5 51.421875 16.5 36.375 
Q 16.5 21.390625 20.328125 13.890625 
Q 24.171875 6.390625 31.78125 6.390625 
Q 39.453125 6.390625 43.28125 13.890625 
Q 47.125 21.390625 47.125 36.375 
Q 47.125 51.421875 43.28125 58.90625 
Q 39.453125 66.40625 31.78125 66.40625 
z
M 31.78125 74.21875 
Q 44.046875 74.21875 50.515625 64.515625 
Q 56.984375 54.828125 56.984375 36.375 
Q 56.984375 17.96875 50.515625 8.265625 
Q 44.046875 -1.421875 31.78125 -1.421875 
Q 19.53125 -1.421875 13.0625 8.265625 
Q 6.59375 17.96875 6.59375 36.375 
Q 6.59375 54.828125 13.0625 64.515625 
Q 19.53125 74.21875 31.78125 74.21875 
z
" id="DejaVuSans-48"/>
      </defs>
      <g transform="translate(60.778523 225.476875)scale(0.1 -0.1)">
       <use xlink:href="#DejaVuSans-48"/>
      </g>
     </g>
    </g>
    <g id="xtick_2">
     <g id="line2d_2">
      <g>
       <use style="stroke:#000000;stroke-width:0.8;" x="124.090264" xlink:href="#mebbe80b825" y="210.878437"/>
      </g>
     </g>
     <g id="text_2">
      <!-- 5 -->
      <defs>
       <path d="M 10.796875 72.90625 
L 49.515625 72.90625 
L 49.515625 64.59375 
L 19.828125 64.59375 
L 19.828125 46.734375 
Q 21.96875 47.46875 24.109375 47.828125 
Q 26.265625 48.1875 28.421875 48.1875 
Q 40.625 48.1875 47.75 41.5 
Q 54.890625 34.8125 54.890625 23.390625 
Q 54.890625 11.625 47.5625 5.09375 
Q 40.234375 -1.421875 26.90625 -1.421875 
Q 22.3125 -1.421875 17.546875 -0.640625 
Q 12.796875 0.140625 7.71875 1.703125 
L 7.71875 11.625 
Q 12.109375 9.234375 16.796875 8.0625 
Q 21.484375 6.890625 26.703125 6.890625 
Q 35.15625 6.890625 40.078125 11.328125 
Q 45.015625 15.765625 45.015625 23.390625 
Q 45.015625 31 40.078125 35.4375 
Q 35.15625 39.890625 26.703125 39.890625 
Q 22.75 39.890625 18.8125 39.015625 
Q 14.890625 38.140625 10.796875 36.28125 
z
" id="DejaVuSans-53"/>
      </defs>
      <g transform="translate(120.909014 225.476875)scale(0.1 -0.1)">
       <use xlink:href="#DejaVuSans-53"/>
      </g>
     </g>
    </g>
    <g id="xtick_3">
     <g id="line2d_3">
      <g>
       <use style="stroke:#000000;stroke-width:0.8;" x="184.220756" xlink:href="#mebbe80b825" y="210.878437"/>
      </g>
     </g>
     <g id="text_3">
      <!-- 10 -->
      <defs>
       <path d="M 12.40625 8.296875 
L 28.515625 8.296875 
L 28.515625 63.921875 
L 10.984375 60.40625 
L 10.984375 69.390625 
L 28.421875 72.90625 
L 38.28125 72.90625 
L 38.28125 8.296875 
L 54.390625 8.296875 
L 54.390625 0 
L 12.40625 0 
z
" id="DejaVuSans-49"/>
      </defs>
      <g transform="translate(177.858256 225.476875)scale(0.1 -0.1)">
       <use xlink:href="#DejaVuSans-49"/>
       <use x="63.623047" xlink:href="#DejaVuSans-48"/>
      </g>
     </g>
    </g>
    <g id="xtick_4">
     <g id="line2d_4">
      <g>
       <use style="stroke:#000000;stroke-width:0.8;" x="244.351247" xlink:href="#mebbe80b825" y="210.878437"/>
      </g>
     </g>
     <g id="text_4">
      <!-- 15 -->
      <g transform="translate(237.988747 225.476875)scale(0.1 -0.1)">
       <use xlink:href="#DejaVuSans-49"/>
       <use x="63.623047" xlink:href="#DejaVuSans-53"/>
      </g>
     </g>
    </g>
    <g id="xtick_5">
     <g id="line2d_5">
      <g>
       <use style="stroke:#000000;stroke-width:0.8;" x="304.481739" xlink:href="#mebbe80b825" y="210.878437"/>
      </g>
     </g>
     <g id="text_5">
      <!-- 20 -->
      <defs>
       <path d="M 19.1875 8.296875 
L 53.609375 8.296875 
L 53.609375 0 
L 7.328125 0 
L 7.328125 8.296875 
Q 12.9375 14.109375 22.625 23.890625 
Q 32.328125 33.6875 34.8125 36.53125 
Q 39.546875 41.84375 41.421875 45.53125 
Q 43.3125 49.21875 43.3125 52.78125 
Q 43.3125 58.59375 39.234375 62.25 
Q 35.15625 65.921875 28.609375 65.921875 
Q 23.96875 65.921875 18.8125 64.3125 
Q 13.671875 62.703125 7.8125 59.421875 
L 7.8125 69.390625 
Q 13.765625 71.78125 18.9375 73 
Q 24.125 74.21875 28.421875 74.21875 
Q 39.75 74.21875 46.484375 68.546875 
Q 53.21875 62.890625 53.21875 53.421875 
Q 53.21875 48.921875 51.53125 44.890625 
Q 49.859375 40.875 45.40625 35.40625 
Q 44.1875 33.984375 37.640625 27.21875 
Q 31.109375 20.453125 19.1875 8.296875 
z
" id="DejaVuSans-50"/>
      </defs>
      <g transform="translate(298.119239 225.476875)scale(0.1 -0.1)">
       <use xlink:href="#DejaVuSans-50"/>
       <use x="63.623047" xlink:href="#DejaVuSans-48"/>
      </g>
     </g>
    </g>
    <g id="text_6">
     <!-- TRA_1_cdr3 length -->
     <defs>
      <path d="M -0.296875 72.90625 
L 61.375 72.90625 
L 61.375 64.59375 
L 35.5 64.59375 
L 35.5 0 
L 25.59375 0 
L 25.59375 64.59375 
L -0.296875 64.59375 
z
" id="DejaVuSans-84"/>
      <path d="M 44.390625 34.1875 
Q 47.5625 33.109375 50.5625 29.59375 
Q 53.5625 26.078125 56.59375 19.921875 
L 66.609375 0 
L 56 0 
L 46.6875 18.703125 
Q 43.0625 26.03125 39.671875 28.421875 
Q 36.28125 30.8125 30.421875 30.8125 
L 19.671875 30.8125 
L 19.671875 0 
L 9.8125 0 
L 9.8125 72.90625 
L 32.078125 72.90625 
Q 44.578125 72.90625 50.734375 67.671875 
Q 56.890625 62.453125 56.890625 51.90625 
Q 56.890625 45.015625 53.6875 40.46875 
Q 50.484375 35.9375 44.390625 34.1875 
z
M 19.671875 64.796875 
L 19.671875 38.921875 
L 32.078125 38.921875 
Q 39.203125 38.921875 42.84375 42.21875 
Q 46.484375 45.515625 46.484375 51.90625 
Q 46.484375 58.296875 42.84375 61.546875 
Q 39.203125 64.796875 32.078125 64.796875 
z
" id="DejaVuSans-82"/>
      <path d="M 34.1875 63.1875 
L 20.796875 26.90625 
L 47.609375 26.90625 
z
M 28.609375 72.90625 
L 39.796875 72.90625 
L 67.578125 0 
L 57.328125 0 
L 50.6875 18.703125 
L 17.828125 18.703125 
L 11.1875 0 
L 0.78125 0 
z
" id="DejaVuSans-65"/>
      <path d="M 50.984375 -16.609375 
L 50.984375 -23.578125 
L -0.984375 -23.578125 
L -0.984375 -16.609375 
z
" id="DejaVuSans-95"/>
      <path d="M 48.78125 52.59375 
L 48.78125 44.1875 
Q 44.96875 46.296875 41.140625 47.34375 
Q 37.3125 48.390625 33.40625 48.390625 
Q 24.65625 48.390625 19.8125 42.84375 
Q 14.984375 37.3125 14.984375 27.296875 
Q 14.984375 17.28125 19.8125 11.734375 
Q 24.65625 6.203125 33.40625 6.203125 
Q 37.3125 6.203125 41.140625 7.25 
Q 44.96875 8.296875 48.78125 10.40625 
L 48.78125 2.09375 
Q 45.015625 0.34375 40.984375 -0.53125 
Q 36.96875 -1.421875 32.421875 -1.421875 
Q 20.0625 -1.421875 12.78125 6.34375 
Q 5.515625 14.109375 5.515625 27.296875 
Q 5.515625 40.671875 12.859375 48.328125 
Q 20.21875 56 33.015625 56 
Q 37.15625 56 41.109375 55.140625 
Q 45.0625 54.296875 48.78125 52.59375 
z
" id="DejaVuSans-99"/>
      <path d="M 45.40625 46.390625 
L 45.40625 75.984375 
L 54.390625 75.984375 
L 54.390625 0 
L 45.40625 0 
L 45.40625 8.203125 
Q 42.578125 3.328125 38.25 0.953125 
Q 33.9375 -1.421875 27.875 -1.421875 
Q 17.96875 -1.421875 11.734375 6.484375 
Q 5.515625 14.40625 5.515625 27.296875 
Q 5.515625 40.1875 11.734375 48.09375 
Q 17.96875 56 27.875 56 
Q 33.9375 56 38.25 53.625 
Q 42.578125 51.265625 45.40625 46.390625 
z
M 14.796875 27.296875 
Q 14.796875 17.390625 18.875 11.75 
Q 22.953125 6.109375 30.078125 6.109375 
Q 37.203125 6.109375 41.296875 11.75 
Q 45.40625 17.390625 45.40625 27.296875 
Q 45.40625 37.203125 41.296875 42.84375 
Q 37.203125 48.484375 30.078125 48.484375 
Q 22.953125 48.484375 18.875 42.84375 
Q 14.796875 37.203125 14.796875 27.296875 
z
" id="DejaVuSans-100"/>
      <path d="M 41.109375 46.296875 
Q 39.59375 47.171875 37.8125 47.578125 
Q 36.03125 48 33.890625 48 
Q 26.265625 48 22.1875 43.046875 
Q 18.109375 38.09375 18.109375 28.8125 
L 18.109375 0 
L 9.078125 0 
L 9.078125 54.6875 
L 18.109375 54.6875 
L 18.109375 46.1875 
Q 20.953125 51.171875 25.484375 53.578125 
Q 30.03125 56 36.53125 56 
Q 37.453125 56 38.578125 55.875 
Q 39.703125 55.765625 41.0625 55.515625 
z
" id="DejaVuSans-114"/>
      <path d="M 40.578125 39.3125 
Q 47.65625 37.796875 51.625 33 
Q 55.609375 28.21875 55.609375 21.1875 
Q 55.609375 10.40625 48.1875 4.484375 
Q 40.765625 -1.421875 27.09375 -1.421875 
Q 22.515625 -1.421875 17.65625 -0.515625 
Q 12.796875 0.390625 7.625 2.203125 
L 7.625 11.71875 
Q 11.71875 9.328125 16.59375 8.109375 
Q 21.484375 6.890625 26.8125 6.890625 
Q 36.078125 6.890625 40.9375 10.546875 
Q 45.796875 14.203125 45.796875 21.1875 
Q 45.796875 27.640625 41.28125 31.265625 
Q 36.765625 34.90625 28.71875 34.90625 
L 20.21875 34.90625 
L 20.21875 43.015625 
L 29.109375 43.015625 
Q 36.375 43.015625 40.234375 45.921875 
Q 44.09375 48.828125 44.09375 54.296875 
Q 44.09375 59.90625 40.109375 62.90625 
Q 36.140625 65.921875 28.71875 65.921875 
Q 24.65625 65.921875 20.015625 65.03125 
Q 15.375 64.15625 9.8125 62.3125 
L 9.8125 71.09375 
Q 15.4375 72.65625 20.34375 73.4375 
Q 25.25 74.21875 29.59375 74.21875 
Q 40.828125 74.21875 47.359375 69.109375 
Q 53.90625 64.015625 53.90625 55.328125 
Q 53.90625 49.265625 50.4375 45.09375 
Q 46.96875 40.921875 40.578125 39.3125 
z
" id="DejaVuSans-51"/>
      <path id="DejaVuSans-32"/>
      <path d="M 9.421875 75.984375 
L 18.40625 75.984375 
L 18.40625 0 
L 9.421875 0 
z
" id="DejaVuSans-108"/>
      <path d="M 56.203125 29.59375 
L 56.203125 25.203125 
L 14.890625 25.203125 
Q 15.484375 15.921875 20.484375 11.0625 
Q 25.484375 6.203125 34.421875 6.203125 
Q 39.59375 6.203125 44.453125 7.46875 
Q 49.3125 8.734375 54.109375 11.28125 
L 54.109375 2.78125 
Q 49.265625 0.734375 44.1875 -0.34375 
Q 39.109375 -1.421875 33.890625 -1.421875 
Q 20.796875 -1.421875 13.15625 6.1875 
Q 5.515625 13.8125 5.515625 26.8125 
Q 5.515625 40.234375 12.765625 48.109375 
Q 20.015625 56 32.328125 56 
Q 43.359375 56 49.78125 48.890625 
Q 56.203125 41.796875 56.203125 29.59375 
z
M 47.21875 32.234375 
Q 47.125 39.59375 43.09375 43.984375 
Q 39.0625 48.390625 32.421875 48.390625 
Q 24.90625 48.390625 20.390625 44.140625 
Q 15.875 39.890625 15.1875 32.171875 
z
" id="DejaVuSans-101"/>
      <path d="M 54.890625 33.015625 
L 54.890625 0 
L 45.90625 0 
L 45.90625 32.71875 
Q 45.90625 40.484375 42.875 44.328125 
Q 39.84375 48.1875 33.796875 48.1875 
Q 26.515625 48.1875 22.3125 43.546875 
Q 18.109375 38.921875 18.109375 30.90625 
L 18.109375 0 
L 9.078125 0 
L 9.078125 54.6875 
L 18.109375 54.6875 
L 18.109375 46.1875 
Q 21.34375 51.125 25.703125 53.5625 
Q 30.078125 56 35.796875 56 
Q 45.21875 56 50.046875 50.171875 
Q 54.890625 44.34375 54.890625 33.015625 
z
" id="DejaVuSans-110"/>
      <path d="M 45.40625 27.984375 
Q 45.40625 37.75 41.375 43.109375 
Q 37.359375 48.484375 30.078125 48.484375 
Q 22.859375 48.484375 18.828125 43.109375 
Q 14.796875 37.75 14.796875 27.984375 
Q 14.796875 18.265625 18.828125 12.890625 
Q 22.859375 7.515625 30.078125 7.515625 
Q 37.359375 7.515625 41.375 12.890625 
Q 45.40625 18.265625 45.40625 27.984375 
z
M 54.390625 6.78125 
Q 54.390625 -7.171875 48.1875 -13.984375 
Q 42 -20.796875 29.203125 -20.796875 
Q 24.46875 -20.796875 20.265625 -20.09375 
Q 16.0625 -19.390625 12.109375 -17.921875 
L 12.109375 -9.1875 
Q 16.0625 -11.328125 19.921875 -12.34375 
Q 23.78125 -13.375 27.78125 -13.375 
Q 36.625 -13.375 41.015625 -8.765625 
Q 45.40625 -4.15625 45.40625 5.171875 
L 45.40625 9.625 
Q 42.625 4.78125 38.28125 2.390625 
Q 33.9375 0 27.875 0 
Q 17.828125 0 11.671875 7.65625 
Q 5.515625 15.328125 5.515625 27.984375 
Q 5.515625 40.671875 11.671875 48.328125 
Q 17.828125 56 27.875 56 
Q 33.9375 56 38.28125 53.609375 
Q 42.625 51.21875 45.40625 46.390625 
L 45.40625 54.6875 
L 54.390625 54.6875 
z
" id="DejaVuSans-103"/>
      <path d="M 18.3125 70.21875 
L 18.3125 54.6875 
L 36.8125 54.6875 
L 36.8125 47.703125 
L 18.3125 47.703125 
L 18.3125 18.015625 
Q 18.3125 11.328125 20.140625 9.421875 
Q 21.96875 7.515625 27.59375 7.515625 
L 36.8125 7.515625 
L 36.8125 0 
L 27.59375 0 
Q 17.1875 0 13.234375 3.875 
Q 9.28125 7.765625 9.28125 18.015625 
L 9.28125 47.703125 
L 2.6875 47.703125 
L 2.6875 54.6875 
L 9.28125 54.6875 
L 9.28125 70.21875 
z
" id="DejaVuSans-116"/>
      <path d="M 54.890625 33.015625 
L 54.890625 0 
L 45.90625 0 
L 45.90625 32.71875 
Q 45.90625 40.484375 42.875 44.328125 
Q 39.84375 48.1875 33.796875 48.1875 
Q 26.515625 48.1875 22.3125 43.546875 
Q 18.109375 38.921875 18.109375 30.90625 
L 18.109375 0 
L 9.078125 0 
L 9.078125 75.984375 
L 18.109375 75.984375 
L 18.109375 46.1875 
Q 21.34375 51.125 25.703125 53.5625 
Q 30.078125 56 35.796875 56 
Q 45.21875 56 50.046875 50.171875 
Q 54.890625 44.34375 54.890625 33.015625 
z
" id="DejaVuSans-104"/>
     </defs>
     <g transform="translate(152.339375 237.635312)scale(0.08 -0.08)">
      <use xlink:href="#DejaVuSans-84"/>
      <use x="61.083984" xlink:href="#DejaVuSans-82"/>
      <use x="126.566406" xlink:href="#DejaVuSans-65"/>
      <use x="194.974609" xlink:href="#DejaVuSans-95"/>
      <use x="244.974609" xlink:href="#DejaVuSans-49"/>
      <use x="308.597656" xlink:href="#DejaVuSans-95"/>
      <use x="358.597656" xlink:href="#DejaVuSans-99"/>
      <use x="413.578125" xlink:href="#DejaVuSans-100"/>
      <use x="477.054688" xlink:href="#DejaVuSans-114"/>
      <use x="518.167969" xlink:href="#DejaVuSans-51"/>
      <use x="581.791016" xlink:href="#DejaVuSans-32"/>
      <use x="613.578125" xlink:href="#DejaVuSans-108"/>
      <use x="641.361328" xlink:href="#DejaVuSans-101"/>
      <use x="702.884766" xlink:href="#DejaVuSans-110"/>
      <use x="766.263672" xlink:href="#DejaVuSans-103"/>
      <use x="829.740234" xlink:href="#DejaVuSans-116"/>
      <use x="868.949219" xlink:href="#DejaVuSans-104"/>
     </g>
    </g>
   </g>
   <g id="matplotlib.axis_2">
    <g id="ytick_1">
     <g id="line2d_6">
      <defs>
       <path d="M 0 0 
L -3.5 0 
" id="m4be174e97e" style="stroke:#000000;stroke-width:0.8;"/>
      </defs>
      <g>
       <use style="stroke:#000000;stroke-width:0.8;" x="51.3925" xlink:href="#m4be174e97e" y="202.238437"/>
      </g>
     </g>
     <g id="text_7">
      <!-- 0 -->
      <g transform="translate(38.03 206.037656)scale(0.1 -0.1)">
       <use xlink:href="#DejaVuSans-48"/>
      </g>
     </g>
    </g>
    <g id="ytick_2">
     <g id="line2d_7">
      <g>
       <use style="stroke:#000000;stroke-width:0.8;" x="51.3925" xlink:href="#m4be174e97e" y="175.486988"/>
      </g>
     </g>
     <g id="text_8">
      <!-- 200 -->
      <g transform="translate(25.305 179.286207)scale(0.1 -0.1)">
       <use xlink:href="#DejaVuSans-50"/>
       <use x="63.623047" xlink:href="#DejaVuSans-48"/>
       <use x="127.246094" xlink:href="#DejaVuSans-48"/>
      </g>
     </g>
    </g>
    <g id="ytick_3">
     <g id="line2d_8">
      <g>
       <use style="stroke:#000000;stroke-width:0.8;" x="51.3925" xlink:href="#m4be174e97e" y="148.735539"/>
      </g>
     </g>
     <g id="text_9">
      <!-- 400 -->
      <defs>
       <path d="M 37.796875 64.3125 
L 12.890625 25.390625 
L 37.796875 25.390625 
z
M 35.203125 72.90625 
L 47.609375 72.90625 
L 47.609375 25.390625 
L 58.015625 25.390625 
L 58.015625 17.1875 
L 47.609375 17.1875 
L 47.609375 0 
L 37.796875 0 
L 37.796875 17.1875 
L 4.890625 17.1875 
L 4.890625 26.703125 
z
" id="DejaVuSans-52"/>
      </defs>
      <g transform="translate(25.305 152.534758)scale(0.1 -0.1)">
       <use xlink:href="#DejaVuSans-52"/>
       <use x="63.623047" xlink:href="#DejaVuSans-48"/>
       <use x="127.246094" xlink:href="#DejaVuSans-48"/>
      </g>
     </g>
    </g>
    <g id="ytick_4">
     <g id="line2d_9">
      <g>
       <use style="stroke:#000000;stroke-width:0.8;" x="51.3925" xlink:href="#m4be174e97e" y="121.98409"/>
      </g>
     </g>
     <g id="text_10">
      <!-- 600 -->
      <defs>
       <path d="M 33.015625 40.375 
Q 26.375 40.375 22.484375 35.828125 
Q 18.609375 31.296875 18.609375 23.390625 
Q 18.609375 15.53125 22.484375 10.953125 
Q 26.375 6.390625 33.015625 6.390625 
Q 39.65625 6.390625 43.53125 10.953125 
Q 47.40625 15.53125 47.40625 23.390625 
Q 47.40625 31.296875 43.53125 35.828125 
Q 39.65625 40.375 33.015625 40.375 
z
M 52.59375 71.296875 
L 52.59375 62.3125 
Q 48.875 64.0625 45.09375 64.984375 
Q 41.3125 65.921875 37.59375 65.921875 
Q 27.828125 65.921875 22.671875 59.328125 
Q 17.53125 52.734375 16.796875 39.40625 
Q 19.671875 43.65625 24.015625 45.921875 
Q 28.375 48.1875 33.59375 48.1875 
Q 44.578125 48.1875 50.953125 41.515625 
Q 57.328125 34.859375 57.328125 23.390625 
Q 57.328125 12.15625 50.6875 5.359375 
Q 44.046875 -1.421875 33.015625 -1.421875 
Q 20.359375 -1.421875 13.671875 8.265625 
Q 6.984375 17.96875 6.984375 36.375 
Q 6.984375 53.65625 15.1875 63.9375 
Q 23.390625 74.21875 37.203125 74.21875 
Q 40.921875 74.21875 44.703125 73.484375 
Q 48.484375 72.75 52.59375 71.296875 
z
" id="DejaVuSans-54"/>
      </defs>
      <g transform="translate(25.305 125.783308)scale(0.1 -0.1)">
       <use xlink:href="#DejaVuSans-54"/>
       <use x="63.623047" xlink:href="#DejaVuSans-48"/>
       <use x="127.246094" xlink:href="#DejaVuSans-48"/>
      </g>
     </g>
    </g>
    <g id="ytick_5">
     <g id="line2d_10">
      <g>
       <use style="stroke:#000000;stroke-width:0.8;" x="51.3925" xlink:href="#m4be174e97e" y="95.23264"/>
      </g>
     </g>
     <g id="text_11">
      <!-- 800 -->
      <defs>
       <path d="M 31.78125 34.625 
Q 24.75 34.625 20.71875 30.859375 
Q 16.703125 27.09375 16.703125 20.515625 
Q 16.703125 13.921875 20.71875 10.15625 
Q 24.75 6.390625 31.78125 6.390625 
Q 38.8125 6.390625 42.859375 10.171875 
Q 46.921875 13.96875 46.921875 20.515625 
Q 46.921875 27.09375 42.890625 30.859375 
Q 38.875 34.625 31.78125 34.625 
z
M 21.921875 38.8125 
Q 15.578125 40.375 12.03125 44.71875 
Q 8.5 49.078125 8.5 55.328125 
Q 8.5 64.0625 14.71875 69.140625 
Q 20.953125 74.21875 31.78125 74.21875 
Q 42.671875 74.21875 48.875 69.140625 
Q 55.078125 64.0625 55.078125 55.328125 
Q 55.078125 49.078125 51.53125 44.71875 
Q 48 40.375 41.703125 38.8125 
Q 48.828125 37.15625 52.796875 32.3125 
Q 56.78125 27.484375 56.78125 20.515625 
Q 56.78125 9.90625 50.3125 4.234375 
Q 43.84375 -1.421875 31.78125 -1.421875 
Q 19.734375 -1.421875 13.25 4.234375 
Q 6.78125 9.90625 6.78125 20.515625 
Q 6.78125 27.484375 10.78125 32.3125 
Q 14.796875 37.15625 21.921875 38.8125 
z
M 18.3125 54.390625 
Q 18.3125 48.734375 21.84375 45.5625 
Q 25.390625 42.390625 31.78125 42.390625 
Q 38.140625 42.390625 41.71875 45.5625 
Q 45.3125 48.734375 45.3125 54.390625 
Q 45.3125 60.0625 41.71875 63.234375 
Q 38.140625 66.40625 31.78125 66.40625 
Q 25.390625 66.40625 21.84375 63.234375 
Q 18.3125 60.0625 18.3125 54.390625 
z
" id="DejaVuSans-56"/>
      </defs>
      <g transform="translate(25.305 99.031859)scale(0.1 -0.1)">
       <use xlink:href="#DejaVuSans-56"/>
       <use x="63.623047" xlink:href="#DejaVuSans-48"/>
       <use x="127.246094" xlink:href="#DejaVuSans-48"/>
      </g>
     </g>
    </g>
    <g id="ytick_6">
     <g id="line2d_11">
      <g>
       <use style="stroke:#000000;stroke-width:0.8;" x="51.3925" xlink:href="#m4be174e97e" y="68.481191"/>
      </g>
     </g>
     <g id="text_12">
      <!-- 1000 -->
      <g transform="translate(18.9425 72.28041)scale(0.1 -0.1)">
       <use xlink:href="#DejaVuSans-49"/>
       <use x="63.623047" xlink:href="#DejaVuSans-48"/>
       <use x="127.246094" xlink:href="#DejaVuSans-48"/>
       <use x="190.869141" xlink:href="#DejaVuSans-48"/>
      </g>
     </g>
    </g>
    <g id="ytick_7">
     <g id="line2d_12">
      <g>
       <use style="stroke:#000000;stroke-width:0.8;" x="51.3925" xlink:href="#m4be174e97e" y="41.729742"/>
      </g>
     </g>
     <g id="text_13">
      <!-- 1200 -->
      <g transform="translate(18.9425 45.52896)scale(0.1 -0.1)">
       <use xlink:href="#DejaVuSans-49"/>
       <use x="63.623047" xlink:href="#DejaVuSans-50"/>
       <use x="127.246094" xlink:href="#DejaVuSans-48"/>
       <use x="190.869141" xlink:href="#DejaVuSans-48"/>
      </g>
     </g>
    </g>
    <g id="text_14">
     <!-- Number of cells -->
     <defs>
      <path d="M 9.8125 72.90625 
L 23.09375 72.90625 
L 55.421875 11.921875 
L 55.421875 72.90625 
L 64.984375 72.90625 
L 64.984375 0 
L 51.703125 0 
L 19.390625 60.984375 
L 19.390625 0 
L 9.8125 0 
z
" id="DejaVuSans-78"/>
      <path d="M 8.5 21.578125 
L 8.5 54.6875 
L 17.484375 54.6875 
L 17.484375 21.921875 
Q 17.484375 14.15625 20.5 10.265625 
Q 23.53125 6.390625 29.59375 6.390625 
Q 36.859375 6.390625 41.078125 11.03125 
Q 45.3125 15.671875 45.3125 23.6875 
L 45.3125 54.6875 
L 54.296875 54.6875 
L 54.296875 0 
L 45.3125 0 
L 45.3125 8.40625 
Q 42.046875 3.421875 37.71875 1 
Q 33.40625 -1.421875 27.6875 -1.421875 
Q 18.265625 -1.421875 13.375 4.4375 
Q 8.5 10.296875 8.5 21.578125 
z
M 31.109375 56 
z
" id="DejaVuSans-117"/>
      <path d="M 52 44.1875 
Q 55.375 50.25 60.0625 53.125 
Q 64.75 56 71.09375 56 
Q 79.640625 56 84.28125 50.015625 
Q 88.921875 44.046875 88.921875 33.015625 
L 88.921875 0 
L 79.890625 0 
L 79.890625 32.71875 
Q 79.890625 40.578125 77.09375 44.375 
Q 74.3125 48.1875 68.609375 48.1875 
Q 61.625 48.1875 57.5625 43.546875 
Q 53.515625 38.921875 53.515625 30.90625 
L 53.515625 0 
L 44.484375 0 
L 44.484375 32.71875 
Q 44.484375 40.625 41.703125 44.40625 
Q 38.921875 48.1875 33.109375 48.1875 
Q 26.21875 48.1875 22.15625 43.53125 
Q 18.109375 38.875 18.109375 30.90625 
L 18.109375 0 
L 9.078125 0 
L 9.078125 54.6875 
L 18.109375 54.6875 
L 18.109375 46.1875 
Q 21.1875 51.21875 25.484375 53.609375 
Q 29.78125 56 35.6875 56 
Q 41.65625 56 45.828125 52.96875 
Q 50 49.953125 52 44.1875 
z
" id="DejaVuSans-109"/>
      <path d="M 48.6875 27.296875 
Q 48.6875 37.203125 44.609375 42.84375 
Q 40.53125 48.484375 33.40625 48.484375 
Q 26.265625 48.484375 22.1875 42.84375 
Q 18.109375 37.203125 18.109375 27.296875 
Q 18.109375 17.390625 22.1875 11.75 
Q 26.265625 6.109375 33.40625 6.109375 
Q 40.53125 6.109375 44.609375 11.75 
Q 48.6875 17.390625 48.6875 27.296875 
z
M 18.109375 46.390625 
Q 20.953125 51.265625 25.265625 53.625 
Q 29.59375 56 35.59375 56 
Q 45.5625 56 51.78125 48.09375 
Q 58.015625 40.1875 58.015625 27.296875 
Q 58.015625 14.40625 51.78125 6.484375 
Q 45.5625 -1.421875 35.59375 -1.421875 
Q 29.59375 -1.421875 25.265625 0.953125 
Q 20.953125 3.328125 18.109375 8.203125 
L 18.109375 0 
L 9.078125 0 
L 9.078125 75.984375 
L 18.109375 75.984375 
z
" id="DejaVuSans-98"/>
      <path d="M 30.609375 48.390625 
Q 23.390625 48.390625 19.1875 42.75 
Q 14.984375 37.109375 14.984375 27.296875 
Q 14.984375 17.484375 19.15625 11.84375 
Q 23.34375 6.203125 30.609375 6.203125 
Q 37.796875 6.203125 41.984375 11.859375 
Q 46.1875 17.53125 46.1875 27.296875 
Q 46.1875 37.015625 41.984375 42.703125 
Q 37.796875 48.390625 30.609375 48.390625 
z
M 30.609375 56 
Q 42.328125 56 49.015625 48.375 
Q 55.71875 40.765625 55.71875 27.296875 
Q 55.71875 13.875 49.015625 6.21875 
Q 42.328125 -1.421875 30.609375 -1.421875 
Q 18.84375 -1.421875 12.171875 6.21875 
Q 5.515625 13.875 5.515625 27.296875 
Q 5.515625 40.765625 12.171875 48.375 
Q 18.84375 56 30.609375 56 
z
" id="DejaVuSans-111"/>
      <path d="M 37.109375 75.984375 
L 37.109375 68.5 
L 28.515625 68.5 
Q 23.6875 68.5 21.796875 66.546875 
Q 19.921875 64.59375 19.921875 59.515625 
L 19.921875 54.6875 
L 34.71875 54.6875 
L 34.71875 47.703125 
L 19.921875 47.703125 
L 19.921875 0 
L 10.890625 0 
L 10.890625 47.703125 
L 2.296875 47.703125 
L 2.296875 54.6875 
L 10.890625 54.6875 
L 10.890625 58.5 
Q 10.890625 67.625 15.140625 71.796875 
Q 19.390625 75.984375 28.609375 75.984375 
z
" id="DejaVuSans-102"/>
      <path d="M 44.28125 53.078125 
L 44.28125 44.578125 
Q 40.484375 46.53125 36.375 47.5 
Q 32.28125 48.484375 27.875 48.484375 
Q 21.1875 48.484375 17.84375 46.4375 
Q 14.5 44.390625 14.5 40.28125 
Q 14.5 37.15625 16.890625 35.375 
Q 19.28125 33.59375 26.515625 31.984375 
L 29.59375 31.296875 
Q 39.15625 29.25 43.1875 25.515625 
Q 47.21875 21.78125 47.21875 15.09375 
Q 47.21875 7.46875 41.1875 3.015625 
Q 35.15625 -1.421875 24.609375 -1.421875 
Q 20.21875 -1.421875 15.453125 -0.5625 
Q 10.6875 0.296875 5.421875 2 
L 5.421875 11.28125 
Q 10.40625 8.6875 15.234375 7.390625 
Q 20.0625 6.109375 24.8125 6.109375 
Q 31.15625 6.109375 34.5625 8.28125 
Q 37.984375 10.453125 37.984375 14.40625 
Q 37.984375 18.0625 35.515625 20.015625 
Q 33.0625 21.96875 24.703125 23.78125 
L 21.578125 24.515625 
Q 13.234375 26.265625 9.515625 29.90625 
Q 5.8125 33.546875 5.8125 39.890625 
Q 5.8125 47.609375 11.28125 51.796875 
Q 16.75 56 26.8125 56 
Q 31.78125 56 36.171875 55.265625 
Q 40.578125 54.546875 44.28125 53.078125 
z
" id="DejaVuSans-115"/>
     </defs>
     <g transform="translate(13.27875 147.272187)rotate(-90)scale(0.08 -0.08)">
      <use xlink:href="#DejaVuSans-78"/>
      <use x="74.804688" xlink:href="#DejaVuSans-117"/>
      <use x="138.183594" xlink:href="#DejaVuSans-109"/>
      <use x="235.595703" xlink:href="#DejaVuSans-98"/>
      <use x="299.072266" xlink:href="#DejaVuSans-101"/>
      <use x="360.595703" xlink:href="#DejaVuSans-114"/>
      <use x="401.708984" xlink:href="#DejaVuSans-32"/>
      <use x="433.496094" xlink:href="#DejaVuSans-111"/>
      <use x="494.677734" xlink:href="#DejaVuSans-102"/>
      <use x="529.882812" xlink:href="#DejaVuSans-32"/>
      <use x="561.669922" xlink:href="#DejaVuSans-99"/>
      <use x="616.650391" xlink:href="#DejaVuSans-101"/>
      <use x="678.173828" xlink:href="#DejaVuSans-108"/>
      <use x="705.957031" xlink:href="#DejaVuSans-108"/>
      <use x="733.740234" xlink:href="#DejaVuSans-115"/>
     </g>
    </g>
   </g>
   <g id="line2d_13">
    <path clip-path="url(#p19d42e4827)" d="M 63.959773 202.238437 
L 106.051117 202.135308 
L 109.658946 201.91998 
L 113.266776 201.470098 
L 118.077215 200.531522 
L 121.685045 199.863822 
L 124.090264 199.603605 
L 126.495484 199.540414 
L 130.103313 199.751682 
L 138.521582 200.579106 
L 140.926802 200.544146 
L 142.129412 200.381212 
L 143.332022 200.074843 
L 144.534631 199.585905 
L 145.737241 198.876016 
L 146.939851 197.912655 
L 148.142461 196.67534 
L 149.345071 195.16218 
L 150.547681 193.395799 
L 152.9529 189.33748 
L 155.35812 185.238671 
L 156.56073 183.486422 
L 157.763339 182.099557 
L 158.965949 181.17808 
L 160.168559 180.785079 
L 161.371169 180.937331 
L 162.573779 181.601609 
L 163.776389 182.697346 
L 166.181608 185.679272 
L 168.586828 188.703496 
L 169.789438 189.863962 
L 170.992048 190.634379 
L 172.194657 190.936926 
L 173.397267 190.728209 
L 174.599877 189.997895 
L 175.802487 188.764309 
L 177.005097 187.067549 
L 178.207707 184.960763 
L 179.410316 182.500509 
L 181.815536 176.708929 
L 184.220756 169.918409 
L 186.625975 162.120297 
L 189.031195 153.267032 
L 191.436415 143.519135 
L 196.246854 122.750379 
L 199.854684 106.412593 
L 203.462513 88.938122 
L 207.070343 71.51081 
L 209.475562 60.80755 
L 211.880782 50.940888 
L 214.286002 41.93773 
L 215.488611 37.949269 
L 216.691221 34.516131 
L 217.893831 31.838155 
L 219.096441 30.101824 
L 220.299051 29.438437 
L 221.501661 29.892572 
L 222.70427 31.410263 
L 223.90688 33.850453 
L 225.10949 37.016148 
L 227.51471 44.703451 
L 231.122539 57.642724 
L 234.730369 71.468645 
L 238.338198 85.496858 
L 240.743418 94.149459 
L 243.148637 102.006258 
L 246.756467 112.758902 
L 250.364296 122.625896 
L 253.972126 131.512292 
L 258.782565 143.044653 
L 267.200834 163.775877 
L 274.416493 180.406827 
L 276.821713 185.344463 
L 279.226932 189.505441 
L 280.429542 191.251704 
L 281.632152 192.778798 
L 282.834762 194.102022 
L 284.037372 195.242137 
L 286.442591 197.062951 
L 288.847811 198.406722 
L 291.253031 199.403542 
L 293.65825 200.151413 
L 297.26608 200.951218 
L 300.873909 201.447756 
L 304.481739 201.636085 
L 308.089568 201.530301 
L 315.305227 201.075432 
L 315.305227 201.075432 
" style="fill:none;stroke:#1f77b4;stroke-linecap:square;stroke-width:1.5;"/>
   </g>
   <g id="line2d_14">
    <path clip-path="url(#p19d42e4827)" d="M 63.959773 202.238437 
L 130.103313 202.13149 
L 133.711143 201.908187 
L 137.318972 201.441636 
L 142.129412 200.46811 
L 145.737241 199.77444 
L 148.142461 199.50141 
L 150.547681 199.427352 
L 154.15551 199.609322 
L 162.573779 200.220442 
L 166.181608 200.252356 
L 169.789438 200.052241 
L 172.194657 199.746269 
L 174.599877 199.261242 
L 177.005097 198.555192 
L 179.410316 197.577631 
L 181.815536 196.258736 
L 184.220756 194.501446 
L 186.625975 192.199523 
L 189.031195 189.28229 
L 191.436415 185.740755 
L 193.841634 181.585169 
L 196.246854 176.759891 
L 198.652074 171.123364 
L 201.057293 164.558842 
L 203.462513 157.116581 
L 205.867733 149.002225 
L 209.475562 135.915754 
L 216.691221 108.68409 
L 217.893831 105.093405 
L 219.096441 102.170518 
L 220.299051 100.010208 
L 221.501661 98.640609 
L 222.70427 98.020178 
L 223.90688 98.04952 
L 225.10949 98.594676 
L 226.3121 99.515262 
L 227.51471 100.689705 
L 229.919929 103.490995 
L 232.325149 106.708489 
L 234.730369 110.299258 
L 239.540808 118.074945 
L 241.946028 122.222724 
L 244.351247 126.974108 
L 246.756467 132.647952 
L 249.161687 139.151751 
L 262.390395 176.596313 
L 264.795614 182.509003 
L 265.998224 185.08026 
L 267.200834 187.347254 
L 268.403444 189.297546 
L 269.606054 190.93699 
L 270.808664 192.286538 
L 272.011273 193.377866 
L 273.213883 194.24891 
L 274.416493 194.940038 
L 276.821713 195.939371 
L 280.429542 196.971637 
L 293.65825 200.351009 
L 298.46869 201.219124 
L 303.279129 201.819821 
L 308.089568 202.11992 
L 314.102617 202.224875 
L 315.305227 202.230335 
L 315.305227 202.230335 
" style="fill:none;stroke:#ff7f0e;stroke-linecap:square;stroke-width:1.5;"/>
   </g>
   <g id="line2d_15">
    <path clip-path="url(#p19d42e4827)" d="M 63.959773 202.238437 
L 139.724192 202.151355 
L 143.332022 201.921557 
L 145.737241 201.585975 
L 148.142461 201.036269 
L 150.547681 200.256291 
L 156.56073 197.978444 
L 158.965949 197.465412 
L 160.168559 197.384719 
L 161.371169 197.427689 
L 163.776389 197.830815 
L 168.586828 198.979639 
L 169.789438 199.09431 
L 170.992048 199.064771 
L 172.194657 198.867181 
L 173.397267 198.488924 
L 174.599877 197.929309 
L 175.802487 197.199136 
L 178.207707 195.316618 
L 180.612926 193.066541 
L 185.423366 188.164536 
L 187.828585 185.52515 
L 190.233805 182.593646 
L 192.639025 179.230548 
L 195.044244 175.309996 
L 197.449464 170.688465 
L 199.854684 165.24581 
L 202.259903 159.022038 
L 208.272952 142.081963 
L 213.083392 128.946649 
L 215.488611 122.823442 
L 216.691221 120.092366 
L 217.893831 117.718646 
L 219.096441 115.796442 
L 220.299051 114.389039 
L 221.501661 113.515307 
L 222.70427 113.146725 
L 223.90688 113.215944 
L 225.10949 113.634327 
L 226.3121 114.313132 
L 227.51471 115.182018 
L 229.919929 117.353972 
L 232.325149 120.111758 
L 234.730369 123.516134 
L 237.135588 127.42582 
L 240.743418 133.70479 
L 243.148637 138.157741 
L 245.553857 143.085891 
L 247.959077 148.574034 
L 255.174736 165.651067 
L 258.782565 173.436015 
L 262.390395 180.679868 
L 264.795614 184.93763 
L 267.200834 188.511691 
L 268.403444 190.019529 
L 269.606054 191.347198 
L 270.808664 192.506376 
L 273.213883 194.373068 
L 275.619103 195.71298 
L 278.024323 196.586448 
L 280.429542 197.039083 
L 282.834762 197.134479 
L 286.442591 196.859805 
L 288.847811 196.653631 
L 291.253031 196.661085 
L 293.65825 197.021668 
L 296.06347 197.749467 
L 299.671299 199.244967 
L 303.279129 200.657206 
L 305.684349 201.335138 
L 308.089568 201.775825 
L 311.697398 202.10052 
L 315.305227 202.206381 
L 315.305227 202.206381 
" style="fill:none;stroke:#2ca02c;stroke-linecap:square;stroke-width:1.5;"/>
   </g>
   <g id="line2d_16">
    <path clip-path="url(#p19d42e4827)" d="M 63.959773 202.238437 
L 107.253727 202.158458 
L 112.064166 201.935021 
L 118.077215 201.378573 
L 121.685045 201.087374 
L 125.292874 201.0384 
L 128.900704 201.264084 
L 138.521582 202.073736 
L 144.534631 202.215673 
L 154.15551 202.184353 
L 158.965949 202.006419 
L 163.776389 201.577676 
L 169.789438 200.737487 
L 174.599877 199.897037 
L 177.005097 199.298731 
L 179.410316 198.421353 
L 180.612926 197.825054 
L 181.815536 197.09243 
L 183.018146 196.200805 
L 184.220756 195.131003 
L 185.423366 193.870336 
L 186.625975 192.415516 
L 189.031195 188.968274 
L 191.436415 184.986344 
L 197.449464 174.297785 
L 201.057293 167.469074 
L 203.462513 162.398785 
L 205.867733 156.790771 
L 208.272952 150.57777 
L 210.678172 143.650726 
L 213.083392 135.986083 
L 217.893831 120.07706 
L 220.299051 113.249306 
L 221.501661 110.33028 
L 222.70427 107.743083 
L 223.90688 105.466493 
L 225.10949 103.48458 
L 226.3121 101.806308 
L 227.51471 100.477517 
L 228.717319 99.580577 
L 229.919929 99.220801 
L 231.122539 99.502894 
L 232.325149 100.504032 
L 233.527759 102.251379 
L 234.730369 104.710643 
L 235.932978 107.788913 
L 238.338198 115.242943 
L 246.756467 143.581264 
L 250.364296 154.738895 
L 252.769516 161.4278 
L 255.174736 167.344191 
L 257.579955 172.553245 
L 259.985175 177.194684 
L 262.390395 181.330255 
L 264.795614 184.931652 
L 267.200834 187.977894 
L 269.606054 190.520233 
L 272.011273 192.651792 
L 274.416493 194.443409 
L 276.821713 195.924291 
L 279.226932 197.111709 
L 281.632152 198.040716 
L 284.037372 198.76386 
L 287.645201 199.577822 
L 292.45564 200.386486 
L 300.873909 201.578066 
L 305.684349 202.006445 
L 310.494788 202.18456 
L 315.305227 202.230331 
L 315.305227 202.230331 
" style="fill:none;stroke:#d62728;stroke-linecap:square;stroke-width:1.5;"/>
   </g>
   <g id="line2d_17">
    <path clip-path="url(#p19d42e4827)" d="M 63.959773 202.238437 
L 119.279825 202.158508 
L 124.090264 201.935213 
L 130.103313 201.379118 
L 133.711143 201.088103 
L 137.318972 201.03916 
L 140.926802 201.2647 
L 150.547681 202.073749 
L 156.56073 202.212549 
L 162.573779 202.169065 
L 166.181608 201.967777 
L 168.586828 201.64436 
L 170.992048 201.063236 
L 173.397267 200.134867 
L 175.802487 198.806878 
L 178.207707 197.080767 
L 180.612926 194.988372 
L 183.018146 192.537942 
L 185.423366 189.682528 
L 187.828585 186.360092 
L 190.233805 182.581774 
L 193.841634 176.339052 
L 198.652074 167.484316 
L 202.259903 160.349317 
L 205.867733 153.176153 
L 208.272952 148.839665 
L 210.678172 144.968416 
L 215.488611 137.890655 
L 217.893831 134.548235 
L 220.299051 131.555709 
L 222.70427 129.025558 
L 225.10949 126.920468 
L 226.3121 126.036254 
L 227.51471 125.310972 
L 228.717319 124.810787 
L 229.919929 124.616605 
L 231.122539 124.807328 
L 232.325149 125.440948 
L 233.527759 126.538959 
L 234.730369 128.07873 
L 235.932978 129.996049 
L 238.338198 134.575405 
L 243.148637 144.200015 
L 245.553857 148.56444 
L 247.959077 152.586547 
L 250.364296 156.272122 
L 253.972126 161.313834 
L 257.579955 166.406224 
L 261.187785 172.042683 
L 265.998224 179.677647 
L 269.606054 185.008755 
L 273.213883 190.038408 
L 275.619103 193.076623 
L 278.024323 195.639846 
L 279.226932 196.694715 
L 280.429542 197.588058 
L 281.632152 198.323305 
L 282.834762 198.911658 
L 285.239982 199.719266 
L 287.645201 200.177621 
L 292.45564 200.672055 
L 299.671299 201.465111 
L 304.481739 201.930466 
L 309.292178 202.158099 
L 315.305227 202.230347 
L 315.305227 202.230347 
" style="fill:none;stroke:#9467bd;stroke-linecap:square;stroke-width:1.5;"/>
   </g>
   <g id="line2d_18">
    <path clip-path="url(#p19d42e4827)" d="M 63.959773 202.238437 
L 119.279825 202.158777 
L 124.090264 201.926941 
L 127.698094 201.5693 
L 132.508533 200.841773 
L 137.318972 199.890668 
L 144.534631 198.358069 
L 146.939851 198.091668 
L 149.345071 198.080994 
L 151.75029 198.316294 
L 160.168559 199.533388 
L 162.573779 199.588395 
L 164.978998 199.461229 
L 168.586828 198.996586 
L 172.194657 198.29346 
L 175.802487 197.337192 
L 178.207707 196.48824 
L 180.612926 195.398949 
L 183.018146 193.992103 
L 185.423366 192.169656 
L 187.828585 189.829173 
L 190.233805 186.897439 
L 192.639025 183.335533 
L 195.044244 179.09335 
L 197.449464 174.079224 
L 199.854684 168.243323 
L 203.462513 158.404053 
L 205.867733 151.870945 
L 208.272952 145.984648 
L 210.678172 140.934286 
L 213.083392 136.59824 
L 215.488611 132.887605 
L 216.691221 131.324054 
L 217.893831 130.022041 
L 219.096441 129.03462 
L 220.299051 128.398697 
L 221.501661 128.123491 
L 222.70427 128.186717 
L 223.90688 128.539712 
L 225.10949 129.11981 
L 227.51471 130.732242 
L 229.919929 132.757362 
L 232.325149 135.235437 
L 234.730369 138.260904 
L 237.135588 141.735045 
L 240.743418 147.332444 
L 243.148637 151.281467 
L 245.553857 155.586926 
L 249.161687 162.688948 
L 251.566906 167.376943 
L 253.972126 171.53513 
L 256.377346 174.932114 
L 257.579955 176.338731 
L 259.985175 178.648239 
L 262.390395 180.465219 
L 267.200834 183.803661 
L 269.606054 185.929848 
L 272.011273 188.519232 
L 276.821713 194.140767 
L 279.226932 196.472614 
L 280.429542 197.412866 
L 281.632152 198.193858 
L 282.834762 198.822796 
L 285.239982 199.690345 
L 287.645201 200.182226 
L 291.253031 200.586302 
L 298.46869 201.340245 
L 304.481739 201.936126 
L 309.292178 202.159577 
L 315.305227 202.230495 
L 315.305227 202.230495 
" style="fill:none;stroke:#8c564b;stroke-linecap:square;stroke-width:1.5;"/>
   </g>
   <g id="line2d_19">
    <path clip-path="url(#p19d42e4827)" d="M 63.959773 202.238437 
L 139.724192 202.129199 
L 143.332022 201.840935 
L 145.737241 201.419978 
L 148.142461 200.730435 
L 150.547681 199.752116 
L 156.56073 196.899083 
L 157.763339 196.51325 
L 158.965949 196.266267 
L 160.168559 196.176737 
L 161.371169 196.25001 
L 162.573779 196.477091 
L 164.978998 197.291212 
L 169.789438 199.246534 
L 170.992048 199.572672 
L 172.194657 199.778819 
L 173.397267 199.85337 
L 174.599877 199.793478 
L 175.802487 199.603497 
L 178.207707 198.873672 
L 180.612926 197.757001 
L 183.018146 196.321653 
L 185.423366 194.582749 
L 187.828585 192.534095 
L 190.233805 190.211873 
L 195.044244 185.161577 
L 198.652074 181.139791 
L 201.057293 178.009753 
L 202.259903 176.180358 
L 203.462513 174.110671 
L 204.665123 171.75344 
L 205.867733 169.064231 
L 207.070343 166.004816 
L 208.272952 162.54938 
L 210.678172 154.468588 
L 216.691221 132.22425 
L 217.893831 129.014562 
L 219.096441 126.732988 
L 220.299051 125.506161 
L 221.501661 125.3672 
L 222.70427 126.248196 
L 223.90688 127.98818 
L 225.10949 130.354632 
L 228.717319 138.461589 
L 229.919929 140.651232 
L 231.122539 142.271461 
L 232.325149 143.225318 
L 233.527759 143.480879 
L 234.730369 143.070119 
L 235.932978 142.086583 
L 237.135588 140.681453 
L 239.540808 137.450186 
L 240.743418 136.120328 
L 241.946028 135.316238 
L 243.148637 135.251089 
L 244.351247 136.074646 
L 245.553857 137.853277 
L 246.756467 140.56146 
L 247.959077 144.086878 
L 249.161687 148.248256 
L 255.174736 170.921716 
L 256.377346 174.639878 
L 257.579955 177.903208 
L 258.782565 180.718892 
L 259.985175 183.118939 
L 261.187785 185.149381 
L 262.390395 186.862011 
L 263.593005 188.30897 
L 264.795614 189.539665 
L 267.200834 191.52691 
L 269.606054 193.11413 
L 273.213883 195.114976 
L 276.821713 196.820797 
L 280.429542 198.26443 
L 285.239982 199.899848 
L 288.847811 200.903862 
L 292.45564 201.611817 
L 296.06347 202.003193 
L 300.873909 202.1945 
L 311.697398 202.238235 
L 315.305227 202.238417 
L 315.305227 202.238417 
" style="fill:none;stroke:#e377c2;stroke-linecap:square;stroke-width:1.5;"/>
   </g>
   <g id="line2d_20">
    <path clip-path="url(#p19d42e4827)" d="M 63.959773 202.238437 
L 119.279825 202.158445 
L 124.090264 201.934972 
L 130.103313 201.378436 
L 133.711143 201.08719 
L 137.318972 201.038198 
L 140.926802 201.263826 
L 149.345071 202.003615 
L 154.15551 202.130666 
L 158.965949 201.992986 
L 162.573779 201.682313 
L 166.181608 201.162067 
L 169.789438 200.412215 
L 173.397267 199.368605 
L 175.802487 198.456717 
L 178.207707 197.345896 
L 180.612926 196.029418 
L 183.018146 194.492808 
L 185.423366 192.694464 
L 187.828585 190.584255 
L 190.233805 188.154797 
L 193.841634 184.049765 
L 197.449464 179.545749 
L 199.854684 176.245891 
L 202.259903 172.62389 
L 205.867733 166.676825 
L 209.475562 160.352546 
L 213.083392 153.558665 
L 217.893831 144.161317 
L 220.299051 140.023426 
L 222.70427 136.53615 
L 225.10949 133.625894 
L 226.3121 132.371583 
L 227.51471 131.280342 
L 228.717319 130.403174 
L 229.919929 129.805423 
L 231.122539 129.551819 
L 232.325149 129.689822 
L 233.527759 130.236379 
L 234.730369 131.172185 
L 235.932978 132.445229 
L 237.135588 133.982424 
L 239.540808 137.547512 
L 243.148637 143.440652 
L 246.756467 149.855808 
L 253.972126 163.612094 
L 257.579955 170.703523 
L 264.795614 185.434292 
L 267.200834 189.452656 
L 268.403444 191.155025 
L 269.606054 192.652619 
L 270.808664 193.958271 
L 272.011273 195.090465 
L 274.416493 196.916054 
L 276.821713 198.280366 
L 279.226932 199.303808 
L 281.632152 200.080791 
L 285.239982 200.936197 
L 288.847811 201.533361 
L 292.45564 201.916066 
L 297.26608 202.156809 
L 304.481739 202.233714 
L 315.305227 202.238427 
L 315.305227 202.238427 
" style="fill:none;stroke:#7f7f7f;stroke-linecap:square;stroke-width:1.5;"/>
   </g>
   <g id="line2d_21">
    <path clip-path="url(#p19d42e4827)" d="M 63.959773 202.238437 
L 166.181608 202.127873 
L 169.789438 201.889468 
L 172.194657 201.575102 
L 174.599877 201.086194 
L 177.005097 200.387568 
L 179.410316 199.44661 
L 181.815536 198.219255 
L 184.220756 196.648859 
L 186.625975 194.704899 
L 190.233805 191.280808 
L 192.639025 189.023383 
L 195.044244 187.161971 
L 196.246854 186.451901 
L 197.449464 185.900051 
L 198.652074 185.495661 
L 201.057293 185.028541 
L 208.272952 184.229044 
L 210.678172 183.62348 
L 213.083392 182.663483 
L 215.488611 181.25158 
L 217.893831 179.320884 
L 220.299051 176.83257 
L 222.70427 173.788661 
L 228.717319 165.290653 
L 229.919929 163.980964 
L 231.122539 162.989594 
L 232.325149 162.367892 
L 233.527759 162.135569 
L 234.730369 162.279027 
L 235.932978 162.756106 
L 237.135588 163.506023 
L 238.338198 164.461853 
L 240.743418 166.760113 
L 244.351247 170.703775 
L 252.769516 180.542668 
L 255.174736 182.882614 
L 257.579955 184.893696 
L 259.985175 186.63571 
L 263.593005 188.886933 
L 269.606054 192.418501 
L 279.226932 198.542708 
L 281.632152 199.617242 
L 284.037372 200.433686 
L 286.442591 201.038898 
L 290.050421 201.6485 
L 293.65825 201.992296 
L 298.46869 202.182946 
L 308.089568 202.23764 
L 315.305227 202.238427 
L 315.305227 202.238427 
" style="fill:none;stroke:#bcbd22;stroke-linecap:square;stroke-width:1.5;"/>
   </g>
   <g id="line2d_22">
    <path clip-path="url(#p19d42e4827)" d="M 63.959773 202.238437 
L 119.279825 202.160613 
L 124.090264 201.943199 
L 130.103313 201.401749 
L 133.711143 201.118399 
L 137.318972 201.070745 
L 140.926802 201.290346 
L 150.547681 202.078153 
L 156.56073 202.215522 
L 164.978998 202.169603 
L 168.586828 202.005815 
L 172.194657 201.611275 
L 174.599877 201.159368 
L 177.005097 200.53018 
L 179.410316 199.714098 
L 181.815536 198.696469 
L 184.220756 197.444313 
L 186.625975 195.919662 
L 189.031195 194.121688 
L 192.639025 191.080465 
L 208.272952 177.603619 
L 211.880782 174.947395 
L 215.488611 172.570498 
L 217.893831 171.290815 
L 219.096441 170.816997 
L 220.299051 170.479699 
L 221.501661 170.283207 
L 223.90688 170.259866 
L 226.3121 170.554378 
L 231.122539 171.432182 
L 234.730369 172.27923 
L 238.338198 173.376375 
L 240.743418 174.355174 
L 241.946028 174.991369 
L 243.148637 175.76825 
L 244.351247 176.711771 
L 245.553857 177.834805 
L 247.959077 180.583002 
L 251.566906 185.430376 
L 253.972126 188.624529 
L 256.377346 191.512022 
L 258.782565 194.037004 
L 261.187785 196.212215 
L 263.593005 198.027041 
L 265.998224 199.433536 
L 268.403444 200.393692 
L 270.808664 200.92765 
L 273.213883 201.124813 
L 276.821713 201.085846 
L 281.632152 201.057765 
L 285.239982 201.288358 
L 294.86086 202.078193 
L 300.873909 202.21705 
L 315.305227 202.238427 
L 315.305227 202.238427 
" style="fill:none;stroke:#17becf;stroke-linecap:square;stroke-width:1.5;"/>
   </g>
   <g id="patch_3">
    <path d="M 51.3925 210.878437 
L 51.3925 20.798437 
" style="fill:none;stroke:#000000;stroke-linecap:square;stroke-linejoin:miter;stroke-width:0.8;"/>
   </g>
   <g id="patch_4">
    <path d="M 51.3925 210.878437 
L 327.8725 210.878437 
" style="fill:none;stroke:#000000;stroke-linecap:square;stroke-linejoin:miter;stroke-width:0.8;"/>
   </g>
   <g id="text_15">
    <!-- Spectratype of TRA_1_cdr3 by cluster -->
    <defs>
     <path d="M 53.515625 70.515625 
L 53.515625 60.890625 
Q 47.90625 63.578125 42.921875 64.890625 
Q 37.9375 66.21875 33.296875 66.21875 
Q 25.25 66.21875 20.875 63.09375 
Q 16.5 59.96875 16.5 54.203125 
Q 16.5 49.359375 19.40625 46.890625 
Q 22.3125 44.4375 30.421875 42.921875 
L 36.375 41.703125 
Q 47.40625 39.59375 52.65625 34.296875 
Q 57.90625 29 57.90625 20.125 
Q 57.90625 9.515625 50.796875 4.046875 
Q 43.703125 -1.421875 29.984375 -1.421875 
Q 24.8125 -1.421875 18.96875 -0.25 
Q 13.140625 0.921875 6.890625 3.21875 
L 6.890625 13.375 
Q 12.890625 10.015625 18.65625 8.296875 
Q 24.421875 6.59375 29.984375 6.59375 
Q 38.421875 6.59375 43.015625 9.90625 
Q 47.609375 13.234375 47.609375 19.390625 
Q 47.609375 24.75 44.3125 27.78125 
Q 41.015625 30.8125 33.5 32.328125 
L 27.484375 33.5 
Q 16.453125 35.6875 11.515625 40.375 
Q 6.59375 45.0625 6.59375 53.421875 
Q 6.59375 63.09375 13.40625 68.65625 
Q 20.21875 74.21875 32.171875 74.21875 
Q 37.3125 74.21875 42.625 73.28125 
Q 47.953125 72.359375 53.515625 70.515625 
z
" id="DejaVuSans-83"/>
     <path d="M 18.109375 8.203125 
L 18.109375 -20.796875 
L 9.078125 -20.796875 
L 9.078125 54.6875 
L 18.109375 54.6875 
L 18.109375 46.390625 
Q 20.953125 51.265625 25.265625 53.625 
Q 29.59375 56 35.59375 56 
Q 45.5625 56 51.78125 48.09375 
Q 58.015625 40.1875 58.015625 27.296875 
Q 58.015625 14.40625 51.78125 6.484375 
Q 45.5625 -1.421875 35.59375 -1.421875 
Q 29.59375 -1.421875 25.265625 0.953125 
Q 20.953125 3.328125 18.109375 8.203125 
z
M 48.6875 27.296875 
Q 48.6875 37.203125 44.609375 42.84375 
Q 40.53125 48.484375 33.40625 48.484375 
Q 26.265625 48.484375 22.1875 42.84375 
Q 18.109375 37.203125 18.109375 27.296875 
Q 18.109375 17.390625 22.1875 11.75 
Q 26.265625 6.109375 33.40625 6.109375 
Q 40.53125 6.109375 44.609375 11.75 
Q 48.6875 17.390625 48.6875 27.296875 
z
" id="DejaVuSans-112"/>
     <path d="M 34.28125 27.484375 
Q 23.390625 27.484375 19.1875 25 
Q 14.984375 22.515625 14.984375 16.5 
Q 14.984375 11.71875 18.140625 8.90625 
Q 21.296875 6.109375 26.703125 6.109375 
Q 34.1875 6.109375 38.703125 11.40625 
Q 43.21875 16.703125 43.21875 25.484375 
L 43.21875 27.484375 
z
M 52.203125 31.203125 
L 52.203125 0 
L 43.21875 0 
L 43.21875 8.296875 
Q 40.140625 3.328125 35.546875 0.953125 
Q 30.953125 -1.421875 24.3125 -1.421875 
Q 15.921875 -1.421875 10.953125 3.296875 
Q 6 8.015625 6 15.921875 
Q 6 25.140625 12.171875 29.828125 
Q 18.359375 34.515625 30.609375 34.515625 
L 43.21875 34.515625 
L 43.21875 35.40625 
Q 43.21875 41.609375 39.140625 45 
Q 35.0625 48.390625 27.6875 48.390625 
Q 23 48.390625 18.546875 47.265625 
Q 14.109375 46.140625 10.015625 43.890625 
L 10.015625 52.203125 
Q 14.9375 54.109375 19.578125 55.046875 
Q 24.21875 56 28.609375 56 
Q 40.484375 56 46.34375 49.84375 
Q 52.203125 43.703125 52.203125 31.203125 
z
" id="DejaVuSans-97"/>
     <path d="M 32.171875 -5.078125 
Q 28.375 -14.84375 24.75 -17.8125 
Q 21.140625 -20.796875 15.09375 -20.796875 
L 7.90625 -20.796875 
L 7.90625 -13.28125 
L 13.1875 -13.28125 
Q 16.890625 -13.28125 18.9375 -11.515625 
Q 21 -9.765625 23.484375 -3.21875 
L 25.09375 0.875 
L 2.984375 54.6875 
L 12.5 54.6875 
L 29.59375 11.921875 
L 46.6875 54.6875 
L 56.203125 54.6875 
z
" id="DejaVuSans-121"/>
    </defs>
    <g transform="translate(95.805156 14.798437)scale(0.1 -0.1)">
     <use xlink:href="#DejaVuSans-83"/>
     <use x="63.476562" xlink:href="#DejaVuSans-112"/>
     <use x="126.953125" xlink:href="#DejaVuSans-101"/>
     <use x="188.476562" xlink:href="#DejaVuSans-99"/>
     <use x="243.457031" xlink:href="#DejaVuSans-116"/>
     <use x="282.666016" xlink:href="#DejaVuSans-114"/>
     <use x="323.779297" xlink:href="#DejaVuSans-97"/>
     <use x="385.058594" xlink:href="#DejaVuSans-116"/>
     <use x="424.267578" xlink:href="#DejaVuSans-121"/>
     <use x="483.447266" xlink:href="#DejaVuSans-112"/>
     <use x="546.923828" xlink:href="#DejaVuSans-101"/>
     <use x="608.447266" xlink:href="#DejaVuSans-32"/>
     <use x="640.234375" xlink:href="#DejaVuSans-111"/>
     <use x="701.416016" xlink:href="#DejaVuSans-102"/>
     <use x="736.621094" xlink:href="#DejaVuSans-32"/>
     <use x="768.408203" xlink:href="#DejaVuSans-84"/>
     <use x="829.492188" xlink:href="#DejaVuSans-82"/>
     <use x="894.974609" xlink:href="#DejaVuSans-65"/>
     <use x="963.382812" xlink:href="#DejaVuSans-95"/>
     <use x="1013.382812" xlink:href="#DejaVuSans-49"/>
     <use x="1077.005859" xlink:href="#DejaVuSans-95"/>
     <use x="1127.005859" xlink:href="#DejaVuSans-99"/>
     <use x="1181.986328" xlink:href="#DejaVuSans-100"/>
     <use x="1245.462891" xlink:href="#DejaVuSans-114"/>
     <use x="1286.576172" xlink:href="#DejaVuSans-51"/>
     <use x="1350.199219" xlink:href="#DejaVuSans-32"/>
     <use x="1381.986328" xlink:href="#DejaVuSans-98"/>
     <use x="1445.462891" xlink:href="#DejaVuSans-121"/>
     <use x="1504.642578" xlink:href="#DejaVuSans-32"/>
     <use x="1536.429688" xlink:href="#DejaVuSans-99"/>
     <use x="1591.410156" xlink:href="#DejaVuSans-108"/>
     <use x="1619.193359" xlink:href="#DejaVuSans-117"/>
     <use x="1682.572266" xlink:href="#DejaVuSans-115"/>
     <use x="1734.671875" xlink:href="#DejaVuSans-116"/>
     <use x="1773.880859" xlink:href="#DejaVuSans-101"/>
     <use x="1835.404297" xlink:href="#DejaVuSans-114"/>
    </g>
   </g>
   <g id="legend_1">
    <g id="line2d_23">
     <path d="M 390.3685 31.277187 
L 406.3685 31.277187 
" style="fill:none;stroke:#1f77b4;stroke-linecap:square;stroke-width:1.5;"/>
    </g>
    <g id="line2d_24"/>
    <g id="text_16">
     <!-- CD8_Trm -->
     <defs>
      <path d="M 64.40625 67.28125 
L 64.40625 56.890625 
Q 59.421875 61.53125 53.78125 63.8125 
Q 48.140625 66.109375 41.796875 66.109375 
Q 29.296875 66.109375 22.65625 58.46875 
Q 16.015625 50.828125 16.015625 36.375 
Q 16.015625 21.96875 22.65625 14.328125 
Q 29.296875 6.6875 41.796875 6.6875 
Q 48.140625 6.6875 53.78125 8.984375 
Q 59.421875 11.28125 64.40625 15.921875 
L 64.40625 5.609375 
Q 59.234375 2.09375 53.4375 0.328125 
Q 47.65625 -1.421875 41.21875 -1.421875 
Q 24.65625 -1.421875 15.125 8.703125 
Q 5.609375 18.84375 5.609375 36.375 
Q 5.609375 53.953125 15.125 64.078125 
Q 24.65625 74.21875 41.21875 74.21875 
Q 47.75 74.21875 53.53125 72.484375 
Q 59.328125 70.75 64.40625 67.28125 
z
" id="DejaVuSans-67"/>
      <path d="M 19.671875 64.796875 
L 19.671875 8.109375 
L 31.59375 8.109375 
Q 46.6875 8.109375 53.6875 14.9375 
Q 60.6875 21.78125 60.6875 36.53125 
Q 60.6875 51.171875 53.6875 57.984375 
Q 46.6875 64.796875 31.59375 64.796875 
z
M 9.8125 72.90625 
L 30.078125 72.90625 
Q 51.265625 72.90625 61.171875 64.09375 
Q 71.09375 55.28125 71.09375 36.53125 
Q 71.09375 17.671875 61.125 8.828125 
Q 51.171875 0 30.078125 0 
L 9.8125 0 
z
" id="DejaVuSans-68"/>
     </defs>
     <g transform="translate(412.7685 34.077187)scale(0.08 -0.08)">
      <use xlink:href="#DejaVuSans-67"/>
      <use x="69.824219" xlink:href="#DejaVuSans-68"/>
      <use x="146.826172" xlink:href="#DejaVuSans-56"/>
      <use x="210.449219" xlink:href="#DejaVuSans-95"/>
      <use x="260.449219" xlink:href="#DejaVuSans-84"/>
      <use x="306.783203" xlink:href="#DejaVuSans-114"/>
      <use x="346.146484" xlink:href="#DejaVuSans-109"/>
     </g>
    </g>
    <g id="line2d_25">
     <path d="M 390.3685 43.242187 
L 406.3685 43.242187 
" style="fill:none;stroke:#ff7f0e;stroke-linecap:square;stroke-width:1.5;"/>
    </g>
    <g id="line2d_26"/>
    <g id="text_17">
     <!-- CD4_TCF7 -->
     <defs>
      <path d="M 9.8125 72.90625 
L 51.703125 72.90625 
L 51.703125 64.59375 
L 19.671875 64.59375 
L 19.671875 43.109375 
L 48.578125 43.109375 
L 48.578125 34.8125 
L 19.671875 34.8125 
L 19.671875 0 
L 9.8125 0 
z
" id="DejaVuSans-70"/>
      <path d="M 8.203125 72.90625 
L 55.078125 72.90625 
L 55.078125 68.703125 
L 28.609375 0 
L 18.3125 0 
L 43.21875 64.59375 
L 8.203125 64.59375 
z
" id="DejaVuSans-55"/>
     </defs>
     <g transform="translate(412.7685 46.042187)scale(0.08 -0.08)">
      <use xlink:href="#DejaVuSans-67"/>
      <use x="69.824219" xlink:href="#DejaVuSans-68"/>
      <use x="146.826172" xlink:href="#DejaVuSans-52"/>
      <use x="210.449219" xlink:href="#DejaVuSans-95"/>
      <use x="260.449219" xlink:href="#DejaVuSans-84"/>
      <use x="315.658203" xlink:href="#DejaVuSans-67"/>
      <use x="385.482422" xlink:href="#DejaVuSans-70"/>
      <use x="443.001953" xlink:href="#DejaVuSans-55"/>
     </g>
    </g>
    <g id="line2d_27">
     <path d="M 390.3685 55.207187 
L 406.3685 55.207187 
" style="fill:none;stroke:#2ca02c;stroke-linecap:square;stroke-width:1.5;"/>
    </g>
    <g id="line2d_28"/>
    <g id="text_18">
     <!-- CD8_Tem -->
     <g transform="translate(412.7685 58.007187)scale(0.08 -0.08)">
      <use xlink:href="#DejaVuSans-67"/>
      <use x="69.824219" xlink:href="#DejaVuSans-68"/>
      <use x="146.826172" xlink:href="#DejaVuSans-56"/>
      <use x="210.449219" xlink:href="#DejaVuSans-95"/>
      <use x="260.449219" xlink:href="#DejaVuSans-84"/>
      <use x="304.533203" xlink:href="#DejaVuSans-101"/>
      <use x="366.056641" xlink:href="#DejaVuSans-109"/>
     </g>
    </g>
    <g id="line2d_29">
     <path d="M 390.3685 67.172187 
L 406.3685 67.172187 
" style="fill:none;stroke:#d62728;stroke-linecap:square;stroke-width:1.5;"/>
    </g>
    <g id="line2d_30"/>
    <g id="text_19">
     <!-- CD4_FOSS -->
     <defs>
      <path d="M 39.40625 66.21875 
Q 28.65625 66.21875 22.328125 58.203125 
Q 16.015625 50.203125 16.015625 36.375 
Q 16.015625 22.609375 22.328125 14.59375 
Q 28.65625 6.59375 39.40625 6.59375 
Q 50.140625 6.59375 56.421875 14.59375 
Q 62.703125 22.609375 62.703125 36.375 
Q 62.703125 50.203125 56.421875 58.203125 
Q 50.140625 66.21875 39.40625 66.21875 
z
M 39.40625 74.21875 
Q 54.734375 74.21875 63.90625 63.9375 
Q 73.09375 53.65625 73.09375 36.375 
Q 73.09375 19.140625 63.90625 8.859375 
Q 54.734375 -1.421875 39.40625 -1.421875 
Q 24.03125 -1.421875 14.8125 8.828125 
Q 5.609375 19.09375 5.609375 36.375 
Q 5.609375 53.65625 14.8125 63.9375 
Q 24.03125 74.21875 39.40625 74.21875 
z
" id="DejaVuSans-79"/>
     </defs>
     <g transform="translate(412.7685 69.972187)scale(0.08 -0.08)">
      <use xlink:href="#DejaVuSans-67"/>
      <use x="69.824219" xlink:href="#DejaVuSans-68"/>
      <use x="146.826172" xlink:href="#DejaVuSans-52"/>
      <use x="210.449219" xlink:href="#DejaVuSans-95"/>
      <use x="260.449219" xlink:href="#DejaVuSans-70"/>
      <use x="317.96875" xlink:href="#DejaVuSans-79"/>
      <use x="396.679688" xlink:href="#DejaVuSans-83"/>
      <use x="460.15625" xlink:href="#DejaVuSans-83"/>
     </g>
    </g>
    <g id="line2d_31">
     <path d="M 390.3685 79.137187 
L 406.3685 79.137187 
" style="fill:none;stroke:#9467bd;stroke-linecap:square;stroke-width:1.5;"/>
    </g>
    <g id="line2d_32"/>
    <g id="text_20">
     <!-- CD4_Trm -->
     <g transform="translate(412.7685 81.937187)scale(0.08 -0.08)">
      <use xlink:href="#DejaVuSans-67"/>
      <use x="69.824219" xlink:href="#DejaVuSans-68"/>
      <use x="146.826172" xlink:href="#DejaVuSans-52"/>
      <use x="210.449219" xlink:href="#DejaVuSans-95"/>
      <use x="260.449219" xlink:href="#DejaVuSans-84"/>
      <use x="306.783203" xlink:href="#DejaVuSans-114"/>
      <use x="346.146484" xlink:href="#DejaVuSans-109"/>
     </g>
    </g>
    <g id="line2d_33">
     <path d="M 390.3685 91.102187 
L 406.3685 91.102187 
" style="fill:none;stroke:#8c564b;stroke-linecap:square;stroke-width:1.5;"/>
    </g>
    <g id="line2d_34"/>
    <g id="text_21">
     <!-- other -->
     <g transform="translate(412.7685 93.902187)scale(0.08 -0.08)">
      <use xlink:href="#DejaVuSans-111"/>
      <use x="61.181641" xlink:href="#DejaVuSans-116"/>
      <use x="100.390625" xlink:href="#DejaVuSans-104"/>
      <use x="163.769531" xlink:href="#DejaVuSans-101"/>
      <use x="225.292969" xlink:href="#DejaVuSans-114"/>
     </g>
    </g>
    <g id="line2d_35">
     <path d="M 390.3685 102.844687 
L 406.3685 102.844687 
" style="fill:none;stroke:#e377c2;stroke-linecap:square;stroke-width:1.5;"/>
    </g>
    <g id="line2d_36"/>
    <g id="text_22">
     <!-- CD8_Teff -->
     <g transform="translate(412.7685 105.644687)scale(0.08 -0.08)">
      <use xlink:href="#DejaVuSans-67"/>
      <use x="69.824219" xlink:href="#DejaVuSans-68"/>
      <use x="146.826172" xlink:href="#DejaVuSans-56"/>
      <use x="210.449219" xlink:href="#DejaVuSans-95"/>
      <use x="260.449219" xlink:href="#DejaVuSans-84"/>
      <use x="304.533203" xlink:href="#DejaVuSans-101"/>
      <use x="366.056641" xlink:href="#DejaVuSans-102"/>
      <use x="401.261719" xlink:href="#DejaVuSans-102"/>
     </g>
    </g>
    <g id="line2d_37">
     <path d="M 390.3685 114.809687 
L 406.3685 114.809687 
" style="fill:none;stroke:#7f7f7f;stroke-linecap:square;stroke-width:1.5;"/>
    </g>
    <g id="line2d_38"/>
    <g id="text_23">
     <!-- CD4_Treg -->
     <g transform="translate(412.7685 117.609687)scale(0.08 -0.08)">
      <use xlink:href="#DejaVuSans-67"/>
      <use x="69.824219" xlink:href="#DejaVuSans-68"/>
      <use x="146.826172" xlink:href="#DejaVuSans-52"/>
      <use x="210.449219" xlink:href="#DejaVuSans-95"/>
      <use x="260.449219" xlink:href="#DejaVuSans-84"/>
      <use x="306.783203" xlink:href="#DejaVuSans-114"/>
      <use x="345.646484" xlink:href="#DejaVuSans-101"/>
      <use x="407.169922" xlink:href="#DejaVuSans-103"/>
     </g>
    </g>
    <g id="line2d_39">
     <path d="M 390.3685 126.774687 
L 406.3685 126.774687 
" style="fill:none;stroke:#bcbd22;stroke-linecap:square;stroke-width:1.5;"/>
    </g>
    <g id="line2d_40"/>
    <g id="text_24">
     <!-- CD4_IL6ST -->
     <defs>
      <path d="M 9.8125 72.90625 
L 19.671875 72.90625 
L 19.671875 0 
L 9.8125 0 
z
" id="DejaVuSans-73"/>
      <path d="M 9.8125 72.90625 
L 19.671875 72.90625 
L 19.671875 8.296875 
L 55.171875 8.296875 
L 55.171875 0 
L 9.8125 0 
z
" id="DejaVuSans-76"/>
     </defs>
     <g transform="translate(412.7685 129.574687)scale(0.08 -0.08)">
      <use xlink:href="#DejaVuSans-67"/>
      <use x="69.824219" xlink:href="#DejaVuSans-68"/>
      <use x="146.826172" xlink:href="#DejaVuSans-52"/>
      <use x="210.449219" xlink:href="#DejaVuSans-95"/>
      <use x="260.449219" xlink:href="#DejaVuSans-73"/>
      <use x="289.941406" xlink:href="#DejaVuSans-76"/>
      <use x="345.654297" xlink:href="#DejaVuSans-54"/>
      <use x="409.277344" xlink:href="#DejaVuSans-83"/>
      <use x="472.753906" xlink:href="#DejaVuSans-84"/>
     </g>
    </g>
    <g id="line2d_41">
     <path d="M 390.3685 138.739687 
L 406.3685 138.739687 
" style="fill:none;stroke:#17becf;stroke-linecap:square;stroke-width:1.5;"/>
    </g>
    <g id="line2d_42"/>
    <g id="text_25">
     <!-- CD4_RPL32 -->
     <defs>
      <path d="M 19.671875 64.796875 
L 19.671875 37.40625 
L 32.078125 37.40625 
Q 38.96875 37.40625 42.71875 40.96875 
Q 46.484375 44.53125 46.484375 51.125 
Q 46.484375 57.671875 42.71875 61.234375 
Q 38.96875 64.796875 32.078125 64.796875 
z
M 9.8125 72.90625 
L 32.078125 72.90625 
Q 44.34375 72.90625 50.609375 67.359375 
Q 56.890625 61.8125 56.890625 51.125 
Q 56.890625 40.328125 50.609375 34.8125 
Q 44.34375 29.296875 32.078125 29.296875 
L 19.671875 29.296875 
L 19.671875 0 
L 9.8125 0 
z
" id="DejaVuSans-80"/>
     </defs>
     <g transform="translate(412.7685 141.539687)scale(0.08 -0.08)">
      <use xlink:href="#DejaVuSans-67"/>
      <use x="69.824219" xlink:href="#DejaVuSans-68"/>
      <use x="146.826172" xlink:href="#DejaVuSans-52"/>
      <use x="210.449219" xlink:href="#DejaVuSans-95"/>
      <use x="260.449219" xlink:href="#DejaVuSans-82"/>
      <use x="329.931641" xlink:href="#DejaVuSans-80"/>
      <use x="390.234375" xlink:href="#DejaVuSans-76"/>
      <use x="445.947266" xlink:href="#DejaVuSans-51"/>
      <use x="509.570312" xlink:href="#DejaVuSans-50"/>
     </g>
    </g>
   </g>
  </g>
 </g>
 <defs>
  <clipPath id="p19d42e4827">
   <rect height="190.08" width="276.48" x="51.3925" y="20.798437"/>
  </clipPath>
 </defs>
</svg>
