<?xml version="1.0" encoding="utf-8" standalone="no"?>
<!DOCTYPE svg PUBLIC "-//W3C//DTD SVG 1.1//EN"
  "http://www.w3.org/Graphics/SVG/1.1/DTD/svg11.dtd">
<!-- Created with matplotlib (https://matplotlib.org/) -->
<svg height="158.587063pt" version="1.1" viewBox="0 0 228.2346 158.587063" width="228.2346pt" xmlns="http://www.w3.org/2000/svg" xmlns:xlink="http://www.w3.org/1999/xlink">
 <defs>
  <style type="text/css">
*{stroke-linecap:butt;stroke-linejoin:round;}
  </style>
 </defs>
 <g id="figure_1">
  <g id="patch_1">
   <path d="M 0 158.587063 
L 228.2346 158.587063 
L 228.2346 0 
L 0 0 
z
" style="fill:#ffffff;"/>
  </g>
  <g id="axes_1">
   <g id="patch_2">
    <path d="M 32.305 122.966437 
L 180.913 122.966437 
L 180.913 20.798437 
L 32.305 20.798437 
z
" style="fill:#ffffff;"/>
   </g>
   <g id="PathCollection_1">
    <path clip-path="url(#pb66dbfbfd9)" d="M 32.305 127.816289 
C 36.601781 127.816289 40.723156 126.10916 43.761439 123.070877 
C 46.799722 120.032594 48.506852 115.911219 48.506852 111.614437 
C 48.506852 107.317656 46.799722 103.196281 43.761439 100.157998 
C 40.723156 97.119715 36.601781 95.412586 32.305 95.412586 
C 28.008219 95.412586 23.886844 97.119715 20.848561 100.157998 
C 17.810278 103.196281 16.103148 107.317656 16.103148 111.614437 
C 16.103148 115.911219 17.810278 120.032594 20.848561 123.070877 
C 23.886844 126.10916 28.008219 127.816289 32.305 127.816289 
z
" style="fill:#1f77b4;fill-opacity:0.3;stroke:#1f77b4;stroke-opacity:0.3;"/>
    <path clip-path="url(#pb66dbfbfd9)" d="M 32.305 105.478363 
C 33.68828 105.478363 35.01509 104.92878 35.993217 103.950654 
C 36.971343 102.972528 37.520926 101.645717 37.520926 100.262437 
C 37.520926 98.879158 36.971343 97.552347 35.993217 96.574221 
C 35.01509 95.596095 33.68828 95.046512 32.305 95.046512 
C 30.92172 95.046512 29.59491 95.596095 28.616783 96.574221 
C 27.638657 97.552347 27.089074 98.879158 27.089074 100.262437 
C 27.089074 101.645717 27.638657 102.972528 28.616783 103.950654 
C 29.59491 104.92878 30.92172 105.478363 32.305 105.478363 
z
" style="fill:#1f77b4;fill-opacity:0.3;stroke:#1f77b4;stroke-opacity:0.3;"/>
    <path clip-path="url(#pb66dbfbfd9)" d="M 32.305 92.648163 
C 33.296256 92.648163 34.247047 92.254332 34.947971 91.553408 
C 35.648895 90.852484 36.042725 89.901694 36.042725 88.910438 
C 36.042725 87.919181 35.648895 86.968391 34.947971 86.267467 
C 34.247047 85.566543 33.296256 85.172712 32.305 85.172712 
C 31.313744 85.172712 30.362953 85.566543 29.662029 86.267467 
C 28.961105 86.968391 28.567275 87.919181 28.567275 88.910438 
C 28.567275 89.901694 28.961105 90.852484 29.662029 91.553408 
C 30.362953 92.254332 31.313744 92.648163 32.305 92.648163 
z
" style="fill:#1f77b4;fill-opacity:0.3;stroke:#1f77b4;stroke-opacity:0.3;"/>
    <path clip-path="url(#pb66dbfbfd9)" d="M 32.305 81.296163 
C 33.296256 81.296163 34.247047 80.902332 34.947971 80.201408 
C 35.648895 79.500484 36.042725 78.549694 36.042725 77.558437 
C 36.042725 76.567181 35.648895 75.616391 34.947971 74.915467 
C 34.247047 74.214543 33.296256 73.820712 32.305 73.820712 
C 31.313744 73.820712 30.362953 74.214543 29.662029 74.915467 
C 28.961105 75.616391 28.567275 76.567181 28.567275 77.558437 
C 28.567275 78.549694 28.961105 79.500484 29.662029 80.201408 
C 30.362953 80.902332 31.313744 81.296163 32.305 81.296163 
z
" style="fill:#1f77b4;fill-opacity:0.3;stroke:#1f77b4;stroke-opacity:0.3;"/>
    <path clip-path="url(#pb66dbfbfd9)" d="M 32.305 69.741971 
C 33.242635 69.741971 34.141992 69.369445 34.805 68.706437 
C 35.468008 68.04343 35.840534 67.144072 35.840534 66.206437 
C 35.840534 65.268803 35.468008 64.369445 34.805 63.706437 
C 34.141992 63.04343 33.242635 62.670904 32.305 62.670904 
C 31.367365 62.670904 30.468008 63.04343 29.805 63.706437 
C 29.141992 64.369445 28.769466 65.268803 28.769466 66.206437 
C 28.769466 67.144072 29.141992 68.04343 29.805 68.706437 
C 30.468008 69.369445 31.367365 69.741971 32.305 69.741971 
z
" style="fill:#1f77b4;fill-opacity:0.3;stroke:#1f77b4;stroke-opacity:0.3;"/>
    <path clip-path="url(#pb66dbfbfd9)" d="M 48.817 136.442997 
C 52.391025 136.442997 55.819149 135.023021 58.346366 132.495804 
C 60.873584 129.968586 62.293559 126.540463 62.293559 122.966437 
C 62.293559 119.392412 60.873584 115.964289 58.346366 113.437071 
C 55.819149 110.909854 52.391025 109.489878 48.817 109.489878 
C 45.242975 109.489878 41.814851 110.909854 39.287634 113.437071 
C 36.760416 115.964289 35.340441 119.392412 35.340441 122.966437 
C 35.340441 126.540463 36.760416 129.968586 39.287634 132.495804 
C 41.814851 135.023021 45.242975 136.442997 48.817 136.442997 
z
" style="fill:#1f77b4;fill-opacity:0.3;stroke:#1f77b4;stroke-opacity:0.3;"/>
    <path clip-path="url(#pb66dbfbfd9)" d="M 48.817 115.543964 
C 49.859123 115.543964 50.858703 115.129924 51.595595 114.393032 
C 52.332487 113.65614 52.746526 112.65656 52.746526 111.614437 
C 52.746526 110.572315 52.332487 109.572735 51.595595 108.835843 
C 50.858703 108.098951 49.859123 107.684911 48.817 107.684911 
C 47.774877 107.684911 46.775297 108.098951 46.038405 108.835843 
C 45.301513 109.572735 44.887474 110.572315 44.887474 111.614437 
C 44.887474 112.65656 45.301513 113.65614 46.038405 114.393032 
C 46.775297 115.129924 47.774877 115.543964 48.817 115.543964 
z
" style="fill:#1f77b4;fill-opacity:0.3;stroke:#1f77b4;stroke-opacity:0.3;"/>
    <path clip-path="url(#pb66dbfbfd9)" d="M 48.817 103.797971 
C 49.754635 103.797971 50.653992 103.425445 51.317 102.762437 
C 51.980008 102.09943 52.352534 101.200072 52.352534 100.262437 
C 52.352534 99.324803 51.980008 98.425445 51.317 97.762437 
C 50.653992 97.09943 49.754635 96.726904 48.817 96.726904 
C 47.879365 96.726904 46.980008 97.09943 46.317 97.762437 
C 45.653992 98.425445 45.281466 99.324803 45.281466 100.262437 
C 45.281466 101.200072 45.653992 102.09943 46.317 102.762437 
C 46.980008 103.425445 47.879365 103.797971 48.817 103.797971 
z
" style="fill:#1f77b4;fill-opacity:0.3;stroke:#1f77b4;stroke-opacity:0.3;"/>
    <path clip-path="url(#pb66dbfbfd9)" d="M 48.817 92.445971 
C 49.754635 92.445971 50.653992 92.073445 51.317 91.410438 
C 51.980008 90.74743 52.352534 89.848072 52.352534 88.910438 
C 52.352534 87.972803 51.980008 87.073445 51.317 86.410438 
C 50.653992 85.74743 49.754635 85.374904 48.817 85.374904 
C 47.879365 85.374904 46.980008 85.74743 46.317 86.410438 
C 45.653992 87.073445 45.281466 87.972803 45.281466 88.910438 
C 45.281466 89.848072 45.653992 90.74743 46.317 91.410438 
C 46.980008 92.073445 47.879365 92.445971 48.817 92.445971 
z
" style="fill:#1f77b4;fill-opacity:0.3;stroke:#1f77b4;stroke-opacity:0.3;"/>
    <path clip-path="url(#pb66dbfbfd9)" d="M 48.817 81.093971 
C 49.754635 81.093971 50.653992 80.721445 51.317 80.058437 
C 51.980008 79.39543 52.352534 78.496072 52.352534 77.558437 
C 52.352534 76.620803 51.980008 75.721445 51.317 75.058437 
C 50.653992 74.39543 49.754635 74.022904 48.817 74.022904 
C 47.879365 74.022904 46.980008 74.39543 46.317 75.058437 
C 45.653992 75.721445 45.281466 76.620803 45.281466 77.558437 
C 45.281466 78.496072 45.653992 79.39543 46.317 80.058437 
C 46.980008 80.721445 47.879365 81.093971 48.817 81.093971 
z
" style="fill:#1f77b4;fill-opacity:0.3;stroke:#1f77b4;stroke-opacity:0.3;"/>
    <path clip-path="url(#pb66dbfbfd9)" d="M 65.329 127.740756 
C 66.595164 127.740756 67.80964 127.237704 68.704953 126.342391 
C 69.600266 125.447077 70.103319 124.232602 70.103319 122.966437 
C 70.103319 121.700273 69.600266 120.485798 68.704953 119.590484 
C 67.80964 118.695171 66.595164 118.192119 65.329 118.192119 
C 64.062836 118.192119 62.84836 118.695171 61.953047 119.590484 
C 61.057734 120.485798 60.554681 121.700273 60.554681 122.966437 
C 60.554681 124.232602 61.057734 125.447077 61.953047 126.342391 
C 62.84836 127.237704 64.062836 127.740756 65.329 127.740756 
z
" style="fill:#1f77b4;fill-opacity:0.3;stroke:#1f77b4;stroke-opacity:0.3;"/>
    <path clip-path="url(#pb66dbfbfd9)" d="M 65.329 104.000163 
C 66.320256 104.000163 67.271047 103.606332 67.971971 102.905408 
C 68.672895 102.204484 69.066725 101.253694 69.066725 100.262437 
C 69.066725 99.271181 68.672895 98.320391 67.971971 97.619467 
C 67.271047 96.918543 66.320256 96.524712 65.329 96.524712 
C 64.337744 96.524712 63.386953 96.918543 62.686029 97.619467 
C 61.985105 98.320391 61.591275 99.271181 61.591275 100.262437 
C 61.591275 101.253694 61.985105 102.204484 62.686029 102.905408 
C 63.386953 103.606332 64.337744 104.000163 65.329 104.000163 
z
" style="fill:#1f77b4;fill-opacity:0.3;stroke:#1f77b4;stroke-opacity:0.3;"/>
    <path clip-path="url(#pb66dbfbfd9)" d="M 65.329 92.445971 
C 66.266635 92.445971 67.165992 92.073445 67.829 91.410438 
C 68.492008 90.74743 68.864534 89.848072 68.864534 88.910438 
C 68.864534 87.972803 68.492008 87.073445 67.829 86.410438 
C 67.165992 85.74743 66.266635 85.374904 65.329 85.374904 
C 64.391365 85.374904 63.492008 85.74743 62.829 86.410438 
C 62.165992 87.073445 61.793466 87.972803 61.793466 88.910438 
C 61.793466 89.848072 62.165992 90.74743 62.829 91.410438 
C 63.492008 92.073445 64.391365 92.445971 65.329 92.445971 
z
" style="fill:#1f77b4;fill-opacity:0.3;stroke:#1f77b4;stroke-opacity:0.3;"/>
    <path clip-path="url(#pb66dbfbfd9)" d="M 81.841 126.501971 
C 82.778635 126.501971 83.677992 126.129445 84.341 125.466437 
C 85.004008 124.80343 85.376534 123.904072 85.376534 122.966437 
C 85.376534 122.028803 85.004008 121.129445 84.341 120.466437 
C 83.677992 119.80343 82.778635 119.430904 81.841 119.430904 
C 80.903365 119.430904 80.004008 119.80343 79.341 120.466437 
C 78.677992 121.129445 78.305466 122.028803 78.305466 122.966437 
C 78.305466 123.904072 78.677992 124.80343 79.341 125.466437 
C 80.004008 126.129445 80.903365 126.501971 81.841 126.501971 
z
" style="fill:#1f77b4;fill-opacity:0.3;stroke:#1f77b4;stroke-opacity:0.3;"/>
    <path clip-path="url(#pb66dbfbfd9)" d="M 81.841 115.149971 
C 82.778635 115.149971 83.677992 114.777445 84.341 114.114437 
C 85.004008 113.45143 85.376534 112.552072 85.376534 111.614437 
C 85.376534 110.676803 85.004008 109.777445 84.341 109.114437 
C 83.677992 108.45143 82.778635 108.078904 81.841 108.078904 
C 80.903365 108.078904 80.004008 108.45143 79.341 109.114437 
C 78.677992 109.777445 78.305466 110.676803 78.305466 111.614437 
C 78.305466 112.552072 78.677992 113.45143 79.341 114.114437 
C 80.004008 114.777445 80.903365 115.149971 81.841 115.149971 
z
" style="fill:#1f77b4;fill-opacity:0.3;stroke:#1f77b4;stroke-opacity:0.3;"/>
    <path clip-path="url(#pb66dbfbfd9)" d="M 98.353 126.501971 
C 99.290635 126.501971 100.189992 126.129445 100.853 125.466437 
C 101.516008 124.80343 101.888534 123.904072 101.888534 122.966437 
C 101.888534 122.028803 101.516008 121.129445 100.853 120.466437 
C 100.189992 119.80343 99.290635 119.430904 98.353 119.430904 
C 97.415365 119.430904 96.516008 119.80343 95.853 120.466437 
C 95.189992 121.129445 94.817466 122.028803 94.817466 122.966437 
C 94.817466 123.904072 95.189992 124.80343 95.853 125.466437 
C 96.516008 126.129445 97.415365 126.501971 98.353 126.501971 
z
" style="fill:#1f77b4;fill-opacity:0.3;stroke:#1f77b4;stroke-opacity:0.3;"/>
    <path clip-path="url(#pb66dbfbfd9)" d="M 98.353 92.445971 
C 99.290635 92.445971 100.189992 92.073445 100.853 91.410438 
C 101.516008 90.74743 101.888534 89.848072 101.888534 88.910438 
C 101.888534 87.972803 101.516008 87.073445 100.853 86.410438 
C 100.189992 85.74743 99.290635 85.374904 98.353 85.374904 
C 97.415365 85.374904 96.516008 85.74743 95.853 86.410438 
C 95.189992 87.073445 94.817466 87.972803 94.817466 88.910438 
C 94.817466 89.848072 95.189992 90.74743 95.853 91.410438 
C 96.516008 92.073445 97.415365 92.445971 98.353 92.445971 
z
" style="fill:#1f77b4;fill-opacity:0.3;stroke:#1f77b4;stroke-opacity:0.3;"/>
    <path clip-path="url(#pb66dbfbfd9)" d="M 131.377 115.149971 
C 132.314635 115.149971 133.213992 114.777445 133.877 114.114437 
C 134.540008 113.45143 134.912534 112.552072 134.912534 111.614437 
C 134.912534 110.676803 134.540008 109.777445 133.877 109.114437 
C 133.213992 108.45143 132.314635 108.078904 131.377 108.078904 
C 130.439365 108.078904 129.540008 108.45143 128.877 109.114437 
C 128.213992 109.777445 127.841466 110.676803 127.841466 111.614437 
C 127.841466 112.552072 128.213992 113.45143 128.877 114.114437 
C 129.540008 114.777445 130.439365 115.149971 131.377 115.149971 
z
" style="fill:#1f77b4;fill-opacity:0.3;stroke:#1f77b4;stroke-opacity:0.3;"/>
    <path clip-path="url(#pb66dbfbfd9)" d="M 147.889 92.445971 
C 148.826635 92.445971 149.725992 92.073445 150.389 91.410438 
C 151.052008 90.74743 151.424534 89.848072 151.424534 88.910438 
C 151.424534 87.972803 151.052008 87.073445 150.389 86.410438 
C 149.725992 85.74743 148.826635 85.374904 147.889 85.374904 
C 146.951365 85.374904 146.052008 85.74743 145.389 86.410438 
C 144.725992 87.073445 144.353466 87.972803 144.353466 88.910438 
C 144.353466 89.848072 144.725992 90.74743 145.389 91.410438 
C 146.052008 92.073445 146.951365 92.445971 147.889 92.445971 
z
" style="fill:#1f77b4;fill-opacity:0.3;stroke:#1f77b4;stroke-opacity:0.3;"/>
    <path clip-path="url(#pb66dbfbfd9)" d="M 164.401 126.501971 
C 165.338635 126.501971 166.237992 126.129445 166.901 125.466437 
C 167.564008 124.80343 167.936534 123.904072 167.936534 122.966437 
C 167.936534 122.028803 167.564008 121.129445 166.901 120.466437 
C 166.237992 119.80343 165.338635 119.430904 164.401 119.430904 
C 163.463365 119.430904 162.564008 119.80343 161.901 120.466437 
C 161.237992 121.129445 160.865466 122.028803 160.865466 122.966437 
C 160.865466 123.904072 161.237992 124.80343 161.901 125.466437 
C 162.564008 126.129445 163.463365 126.501971 164.401 126.501971 
z
" style="fill:#1f77b4;fill-opacity:0.3;stroke:#1f77b4;stroke-opacity:0.3;"/>
   </g>
   <g id="matplotlib.axis_1">
    <g id="xtick_1">
     <g id="line2d_1">
      <defs>
       <path d="M 0 0 
L 0 3.5 
" id="m5c02ea3851" style="stroke:#000000;stroke-width:0.8;"/>
      </defs>
      <g>
       <use style="stroke:#000000;stroke-width:0.8;" x="32.305" xlink:href="#m5c02ea3851" y="122.966437"/>
      </g>
     </g>
     <g id="text_1">
      <!-- 0.0 -->
      <defs>
       <path d="M 31.78125 66.40625 
Q 24.171875 66.40625 20.328125 58.90625 
Q 16.5 51.421875 16.5 36.375 
Q 16.5 21.390625 20.328125 13.890625 
Q 24.171875 6.390625 31.78125 6.390625 
Q 39.453125 6.390625 43.28125 13.890625 
Q 47.125 21.390625 47.125 36.375 
Q 47.125 51.421875 43.28125 58.90625 
Q 39.453125 66.40625 31.78125 66.40625 
z
M 31.78125 74.21875 
Q 44.046875 74.21875 50.515625 64.515625 
Q 56.984375 54.828125 56.984375 36.375 
Q 56.984375 17.96875 50.515625 8.265625 
Q 44.046875 -1.421875 31.78125 -1.421875 
Q 19.53125 -1.421875 13.0625 8.265625 
Q 6.59375 17.96875 6.59375 36.375 
Q 6.59375 54.828125 13.0625 64.515625 
Q 19.53125 74.21875 31.78125 74.21875 
z
" id="DejaVuSans-48"/>
       <path d="M 10.6875 12.40625 
L 21 12.40625 
L 21 0 
L 10.6875 0 
z
" id="DejaVuSans-46"/>
      </defs>
      <g transform="translate(24.353438 137.564875)scale(0.1 -0.1)">
       <use xlink:href="#DejaVuSans-48"/>
       <use x="63.623047" xlink:href="#DejaVuSans-46"/>
       <use x="95.410156" xlink:href="#DejaVuSans-48"/>
      </g>
     </g>
    </g>
    <g id="xtick_2">
     <g id="line2d_2">
      <g>
       <use style="stroke:#000000;stroke-width:0.8;" x="73.585" xlink:href="#m5c02ea3851" y="122.966437"/>
      </g>
     </g>
     <g id="text_2">
      <!-- 2.5 -->
      <defs>
       <path d="M 19.1875 8.296875 
L 53.609375 8.296875 
L 53.609375 0 
L 7.328125 0 
L 7.328125 8.296875 
Q 12.9375 14.109375 22.625 23.890625 
Q 32.328125 33.6875 34.8125 36.53125 
Q 39.546875 41.84375 41.421875 45.53125 
Q 43.3125 49.21875 43.3125 52.78125 
Q 43.3125 58.59375 39.234375 62.25 
Q 35.15625 65.921875 28.609375 65.921875 
Q 23.96875 65.921875 18.8125 64.3125 
Q 13.671875 62.703125 7.8125 59.421875 
L 7.8125 69.390625 
Q 13.765625 71.78125 18.9375 73 
Q 24.125 74.21875 28.421875 74.21875 
Q 39.75 74.21875 46.484375 68.546875 
Q 53.21875 62.890625 53.21875 53.421875 
Q 53.21875 48.921875 51.53125 44.890625 
Q 49.859375 40.875 45.40625 35.40625 
Q 44.1875 33.984375 37.640625 27.21875 
Q 31.109375 20.453125 19.1875 8.296875 
z
" id="DejaVuSans-50"/>
       <path d="M 10.796875 72.90625 
L 49.515625 72.90625 
L 49.515625 64.59375 
L 19.828125 64.59375 
L 19.828125 46.734375 
Q 21.96875 47.46875 24.109375 47.828125 
Q 26.265625 48.1875 28.421875 48.1875 
Q 40.625 48.1875 47.75 41.5 
Q 54.890625 34.8125 54.890625 23.390625 
Q 54.890625 11.625 47.5625 5.09375 
Q 40.234375 -1.421875 26.90625 -1.421875 
Q 22.3125 -1.421875 17.546875 -0.640625 
Q 12.796875 0.140625 7.71875 1.703125 
L 7.71875 11.625 
Q 12.109375 9.234375 16.796875 8.0625 
Q 21.484375 6.890625 26.703125 6.890625 
Q 35.15625 6.890625 40.078125 11.328125 
Q 45.015625 15.765625 45.015625 23.390625 
Q 45.015625 31 40.078125 35.4375 
Q 35.15625 39.890625 26.703125 39.890625 
Q 22.75 39.890625 18.8125 39.015625 
Q 14.890625 38.140625 10.796875 36.28125 
z
" id="DejaVuSans-53"/>
      </defs>
      <g transform="translate(65.633438 137.564875)scale(0.1 -0.1)">
       <use xlink:href="#DejaVuSans-50"/>
       <use x="63.623047" xlink:href="#DejaVuSans-46"/>
       <use x="95.410156" xlink:href="#DejaVuSans-53"/>
      </g>
     </g>
    </g>
    <g id="xtick_3">
     <g id="line2d_3">
      <g>
       <use style="stroke:#000000;stroke-width:0.8;" x="114.865" xlink:href="#m5c02ea3851" y="122.966437"/>
      </g>
     </g>
     <g id="text_3">
      <!-- 5.0 -->
      <g transform="translate(106.913438 137.564875)scale(0.1 -0.1)">
       <use xlink:href="#DejaVuSans-53"/>
       <use x="63.623047" xlink:href="#DejaVuSans-46"/>
       <use x="95.410156" xlink:href="#DejaVuSans-48"/>
      </g>
     </g>
    </g>
    <g id="xtick_4">
     <g id="line2d_4">
      <g>
       <use style="stroke:#000000;stroke-width:0.8;" x="156.145" xlink:href="#m5c02ea3851" y="122.966437"/>
      </g>
     </g>
     <g id="text_4">
      <!-- 7.5 -->
      <defs>
       <path d="M 8.203125 72.90625 
L 55.078125 72.90625 
L 55.078125 68.703125 
L 28.609375 0 
L 18.3125 0 
L 43.21875 64.59375 
L 8.203125 64.59375 
z
" id="DejaVuSans-55"/>
      </defs>
      <g transform="translate(148.193438 137.564875)scale(0.1 -0.1)">
       <use xlink:href="#DejaVuSans-55"/>
       <use x="63.623047" xlink:href="#DejaVuSans-46"/>
       <use x="95.410156" xlink:href="#DejaVuSans-53"/>
      </g>
     </g>
    </g>
    <g id="text_5">
     <!-- Conotype size in LN2 -->
     <defs>
      <path d="M 64.40625 67.28125 
L 64.40625 56.890625 
Q 59.421875 61.53125 53.78125 63.8125 
Q 48.140625 66.109375 41.796875 66.109375 
Q 29.296875 66.109375 22.65625 58.46875 
Q 16.015625 50.828125 16.015625 36.375 
Q 16.015625 21.96875 22.65625 14.328125 
Q 29.296875 6.6875 41.796875 6.6875 
Q 48.140625 6.6875 53.78125 8.984375 
Q 59.421875 11.28125 64.40625 15.921875 
L 64.40625 5.609375 
Q 59.234375 2.09375 53.4375 0.328125 
Q 47.65625 -1.421875 41.21875 -1.421875 
Q 24.65625 -1.421875 15.125 8.703125 
Q 5.609375 18.84375 5.609375 36.375 
Q 5.609375 53.953125 15.125 64.078125 
Q 24.65625 74.21875 41.21875 74.21875 
Q 47.75 74.21875 53.53125 72.484375 
Q 59.328125 70.75 64.40625 67.28125 
z
" id="DejaVuSans-67"/>
      <path d="M 30.609375 48.390625 
Q 23.390625 48.390625 19.1875 42.75 
Q 14.984375 37.109375 14.984375 27.296875 
Q 14.984375 17.484375 19.15625 11.84375 
Q 23.34375 6.203125 30.609375 6.203125 
Q 37.796875 6.203125 41.984375 11.859375 
Q 46.1875 17.53125 46.1875 27.296875 
Q 46.1875 37.015625 41.984375 42.703125 
Q 37.796875 48.390625 30.609375 48.390625 
z
M 30.609375 56 
Q 42.328125 56 49.015625 48.375 
Q 55.71875 40.765625 55.71875 27.296875 
Q 55.71875 13.875 49.015625 6.21875 
Q 42.328125 -1.421875 30.609375 -1.421875 
Q 18.84375 -1.421875 12.171875 6.21875 
Q 5.515625 13.875 5.515625 27.296875 
Q 5.515625 40.765625 12.171875 48.375 
Q 18.84375 56 30.609375 56 
z
" id="DejaVuSans-111"/>
      <path d="M 54.890625 33.015625 
L 54.890625 0 
L 45.90625 0 
L 45.90625 32.71875 
Q 45.90625 40.484375 42.875 44.328125 
Q 39.84375 48.1875 33.796875 48.1875 
Q 26.515625 48.1875 22.3125 43.546875 
Q 18.109375 38.921875 18.109375 30.90625 
L 18.109375 0 
L 9.078125 0 
L 9.078125 54.6875 
L 18.109375 54.6875 
L 18.109375 46.1875 
Q 21.34375 51.125 25.703125 53.5625 
Q 30.078125 56 35.796875 56 
Q 45.21875 56 50.046875 50.171875 
Q 54.890625 44.34375 54.890625 33.015625 
z
" id="DejaVuSans-110"/>
      <path d="M 18.3125 70.21875 
L 18.3125 54.6875 
L 36.8125 54.6875 
L 36.8125 47.703125 
L 18.3125 47.703125 
L 18.3125 18.015625 
Q 18.3125 11.328125 20.140625 9.421875 
Q 21.96875 7.515625 27.59375 7.515625 
L 36.8125 7.515625 
L 36.8125 0 
L 27.59375 0 
Q 17.1875 0 13.234375 3.875 
Q 9.28125 7.765625 9.28125 18.015625 
L 9.28125 47.703125 
L 2.6875 47.703125 
L 2.6875 54.6875 
L 9.28125 54.6875 
L 9.28125 70.21875 
z
" id="DejaVuSans-116"/>
      <path d="M 32.171875 -5.078125 
Q 28.375 -14.84375 24.75 -17.8125 
Q 21.140625 -20.796875 15.09375 -20.796875 
L 7.90625 -20.796875 
L 7.90625 -13.28125 
L 13.1875 -13.28125 
Q 16.890625 -13.28125 18.9375 -11.515625 
Q 21 -9.765625 23.484375 -3.21875 
L 25.09375 0.875 
L 2.984375 54.6875 
L 12.5 54.6875 
L 29.59375 11.921875 
L 46.6875 54.6875 
L 56.203125 54.6875 
z
" id="DejaVuSans-121"/>
      <path d="M 18.109375 8.203125 
L 18.109375 -20.796875 
L 9.078125 -20.796875 
L 9.078125 54.6875 
L 18.109375 54.6875 
L 18.109375 46.390625 
Q 20.953125 51.265625 25.265625 53.625 
Q 29.59375 56 35.59375 56 
Q 45.5625 56 51.78125 48.09375 
Q 58.015625 40.1875 58.015625 27.296875 
Q 58.015625 14.40625 51.78125 6.484375 
Q 45.5625 -1.421875 35.59375 -1.421875 
Q 29.59375 -1.421875 25.265625 0.953125 
Q 20.953125 3.328125 18.109375 8.203125 
z
M 48.6875 27.296875 
Q 48.6875 37.203125 44.609375 42.84375 
Q 40.53125 48.484375 33.40625 48.484375 
Q 26.265625 48.484375 22.1875 42.84375 
Q 18.109375 37.203125 18.109375 27.296875 
Q 18.109375 17.390625 22.1875 11.75 
Q 26.265625 6.109375 33.40625 6.109375 
Q 40.53125 6.109375 44.609375 11.75 
Q 48.6875 17.390625 48.6875 27.296875 
z
" id="DejaVuSans-112"/>
      <path d="M 56.203125 29.59375 
L 56.203125 25.203125 
L 14.890625 25.203125 
Q 15.484375 15.921875 20.484375 11.0625 
Q 25.484375 6.203125 34.421875 6.203125 
Q 39.59375 6.203125 44.453125 7.46875 
Q 49.3125 8.734375 54.109375 11.28125 
L 54.109375 2.78125 
Q 49.265625 0.734375 44.1875 -0.34375 
Q 39.109375 -1.421875 33.890625 -1.421875 
Q 20.796875 -1.421875 13.15625 6.1875 
Q 5.515625 13.8125 5.515625 26.8125 
Q 5.515625 40.234375 12.765625 48.109375 
Q 20.015625 56 32.328125 56 
Q 43.359375 56 49.78125 48.890625 
Q 56.203125 41.796875 56.203125 29.59375 
z
M 47.21875 32.234375 
Q 47.125 39.59375 43.09375 43.984375 
Q 39.0625 48.390625 32.421875 48.390625 
Q 24.90625 48.390625 20.390625 44.140625 
Q 15.875 39.890625 15.1875 32.171875 
z
" id="DejaVuSans-101"/>
      <path id="DejaVuSans-32"/>
      <path d="M 44.28125 53.078125 
L 44.28125 44.578125 
Q 40.484375 46.53125 36.375 47.5 
Q 32.28125 48.484375 27.875 48.484375 
Q 21.1875 48.484375 17.84375 46.4375 
Q 14.5 44.390625 14.5 40.28125 
Q 14.5 37.15625 16.890625 35.375 
Q 19.28125 33.59375 26.515625 31.984375 
L 29.59375 31.296875 
Q 39.15625 29.25 43.1875 25.515625 
Q 47.21875 21.78125 47.21875 15.09375 
Q 47.21875 7.46875 41.1875 3.015625 
Q 35.15625 -1.421875 24.609375 -1.421875 
Q 20.21875 -1.421875 15.453125 -0.5625 
Q 10.6875 0.296875 5.421875 2 
L 5.421875 11.28125 
Q 10.40625 8.6875 15.234375 7.390625 
Q 20.0625 6.109375 24.8125 6.109375 
Q 31.15625 6.109375 34.5625 8.28125 
Q 37.984375 10.453125 37.984375 14.40625 
Q 37.984375 18.0625 35.515625 20.015625 
Q 33.0625 21.96875 24.703125 23.78125 
L 21.578125 24.515625 
Q 13.234375 26.265625 9.515625 29.90625 
Q 5.8125 33.546875 5.8125 39.890625 
Q 5.8125 47.609375 11.28125 51.796875 
Q 16.75 56 26.8125 56 
Q 31.78125 56 36.171875 55.265625 
Q 40.578125 54.546875 44.28125 53.078125 
z
" id="DejaVuSans-115"/>
      <path d="M 9.421875 54.6875 
L 18.40625 54.6875 
L 18.40625 0 
L 9.421875 0 
z
M 9.421875 75.984375 
L 18.40625 75.984375 
L 18.40625 64.59375 
L 9.421875 64.59375 
z
" id="DejaVuSans-105"/>
      <path d="M 5.515625 54.6875 
L 48.1875 54.6875 
L 48.1875 46.484375 
L 14.40625 7.171875 
L 48.1875 7.171875 
L 48.1875 0 
L 4.296875 0 
L 4.296875 8.203125 
L 38.09375 47.515625 
L 5.515625 47.515625 
z
" id="DejaVuSans-122"/>
      <path d="M 9.8125 72.90625 
L 19.671875 72.90625 
L 19.671875 8.296875 
L 55.171875 8.296875 
L 55.171875 0 
L 9.8125 0 
z
" id="DejaVuSans-76"/>
      <path d="M 9.8125 72.90625 
L 23.09375 72.90625 
L 55.421875 11.921875 
L 55.421875 72.90625 
L 64.984375 72.90625 
L 64.984375 0 
L 51.703125 0 
L 19.390625 60.984375 
L 19.390625 0 
L 9.8125 0 
z
" id="DejaVuSans-78"/>
     </defs>
     <g transform="translate(64.46775 149.723312)scale(0.08 -0.08)">
      <use xlink:href="#DejaVuSans-67"/>
      <use x="69.824219" xlink:href="#DejaVuSans-111"/>
      <use x="131.005859" xlink:href="#DejaVuSans-110"/>
      <use x="194.384766" xlink:href="#DejaVuSans-111"/>
      <use x="255.566406" xlink:href="#DejaVuSans-116"/>
      <use x="294.775391" xlink:href="#DejaVuSans-121"/>
      <use x="353.955078" xlink:href="#DejaVuSans-112"/>
      <use x="417.431641" xlink:href="#DejaVuSans-101"/>
      <use x="478.955078" xlink:href="#DejaVuSans-32"/>
      <use x="510.742188" xlink:href="#DejaVuSans-115"/>
      <use x="562.841797" xlink:href="#DejaVuSans-105"/>
      <use x="590.625" xlink:href="#DejaVuSans-122"/>
      <use x="643.115234" xlink:href="#DejaVuSans-101"/>
      <use x="704.638672" xlink:href="#DejaVuSans-32"/>
      <use x="736.425781" xlink:href="#DejaVuSans-105"/>
      <use x="764.208984" xlink:href="#DejaVuSans-110"/>
      <use x="827.587891" xlink:href="#DejaVuSans-32"/>
      <use x="859.375" xlink:href="#DejaVuSans-76"/>
      <use x="915.087891" xlink:href="#DejaVuSans-78"/>
      <use x="989.892578" xlink:href="#DejaVuSans-50"/>
     </g>
    </g>
   </g>
   <g id="matplotlib.axis_2">
    <g id="ytick_1">
     <g id="line2d_5">
      <defs>
       <path d="M 0 0 
L -3.5 0 
" id="mee93d8a487" style="stroke:#000000;stroke-width:0.8;"/>
      </defs>
      <g>
       <use style="stroke:#000000;stroke-width:0.8;" x="32.305" xlink:href="#mee93d8a487" y="122.966437"/>
      </g>
     </g>
     <g id="text_6">
      <!-- 0 -->
      <g transform="translate(18.9425 126.765656)scale(0.1 -0.1)">
       <use xlink:href="#DejaVuSans-48"/>
      </g>
     </g>
    </g>
    <g id="ytick_2">
     <g id="line2d_6">
      <g>
       <use style="stroke:#000000;stroke-width:0.8;" x="32.305" xlink:href="#mee93d8a487" y="100.262437"/>
      </g>
     </g>
     <g id="text_7">
      <!-- 2 -->
      <g transform="translate(18.9425 104.061656)scale(0.1 -0.1)">
       <use xlink:href="#DejaVuSans-50"/>
      </g>
     </g>
    </g>
    <g id="ytick_3">
     <g id="line2d_7">
      <g>
       <use style="stroke:#000000;stroke-width:0.8;" x="32.305" xlink:href="#mee93d8a487" y="77.558437"/>
      </g>
     </g>
     <g id="text_8">
      <!-- 4 -->
      <defs>
       <path d="M 37.796875 64.3125 
L 12.890625 25.390625 
L 37.796875 25.390625 
z
M 35.203125 72.90625 
L 47.609375 72.90625 
L 47.609375 25.390625 
L 58.015625 25.390625 
L 58.015625 17.1875 
L 47.609375 17.1875 
L 47.609375 0 
L 37.796875 0 
L 37.796875 17.1875 
L 4.890625 17.1875 
L 4.890625 26.703125 
z
" id="DejaVuSans-52"/>
      </defs>
      <g transform="translate(18.9425 81.357656)scale(0.1 -0.1)">
       <use xlink:href="#DejaVuSans-52"/>
      </g>
     </g>
    </g>
    <g id="ytick_4">
     <g id="line2d_8">
      <g>
       <use style="stroke:#000000;stroke-width:0.8;" x="32.305" xlink:href="#mee93d8a487" y="54.854437"/>
      </g>
     </g>
     <g id="text_9">
      <!-- 6 -->
      <defs>
       <path d="M 33.015625 40.375 
Q 26.375 40.375 22.484375 35.828125 
Q 18.609375 31.296875 18.609375 23.390625 
Q 18.609375 15.53125 22.484375 10.953125 
Q 26.375 6.390625 33.015625 6.390625 
Q 39.65625 6.390625 43.53125 10.953125 
Q 47.40625 15.53125 47.40625 23.390625 
Q 47.40625 31.296875 43.53125 35.828125 
Q 39.65625 40.375 33.015625 40.375 
z
M 52.59375 71.296875 
L 52.59375 62.3125 
Q 48.875 64.0625 45.09375 64.984375 
Q 41.3125 65.921875 37.59375 65.921875 
Q 27.828125 65.921875 22.671875 59.328125 
Q 17.53125 52.734375 16.796875 39.40625 
Q 19.671875 43.65625 24.015625 45.921875 
Q 28.375 48.1875 33.59375 48.1875 
Q 44.578125 48.1875 50.953125 41.515625 
Q 57.328125 34.859375 57.328125 23.390625 
Q 57.328125 12.15625 50.6875 5.359375 
Q 44.046875 -1.421875 33.015625 -1.421875 
Q 20.359375 -1.421875 13.671875 8.265625 
Q 6.984375 17.96875 6.984375 36.375 
Q 6.984375 53.65625 15.1875 63.9375 
Q 23.390625 74.21875 37.203125 74.21875 
Q 40.921875 74.21875 44.703125 73.484375 
Q 48.484375 72.75 52.59375 71.296875 
z
" id="DejaVuSans-54"/>
      </defs>
      <g transform="translate(18.9425 58.653656)scale(0.1 -0.1)">
       <use xlink:href="#DejaVuSans-54"/>
      </g>
     </g>
    </g>
    <g id="ytick_5">
     <g id="line2d_9">
      <g>
       <use style="stroke:#000000;stroke-width:0.8;" x="32.305" xlink:href="#mee93d8a487" y="32.150437"/>
      </g>
     </g>
     <g id="text_10">
      <!-- 8 -->
      <defs>
       <path d="M 31.78125 34.625 
Q 24.75 34.625 20.71875 30.859375 
Q 16.703125 27.09375 16.703125 20.515625 
Q 16.703125 13.921875 20.71875 10.15625 
Q 24.75 6.390625 31.78125 6.390625 
Q 38.8125 6.390625 42.859375 10.171875 
Q 46.921875 13.96875 46.921875 20.515625 
Q 46.921875 27.09375 42.890625 30.859375 
Q 38.875 34.625 31.78125 34.625 
z
M 21.921875 38.8125 
Q 15.578125 40.375 12.03125 44.71875 
Q 8.5 49.078125 8.5 55.328125 
Q 8.5 64.0625 14.71875 69.140625 
Q 20.953125 74.21875 31.78125 74.21875 
Q 42.671875 74.21875 48.875 69.140625 
Q 55.078125 64.0625 55.078125 55.328125 
Q 55.078125 49.078125 51.53125 44.71875 
Q 48 40.375 41.703125 38.8125 
Q 48.828125 37.15625 52.796875 32.3125 
Q 56.78125 27.484375 56.78125 20.515625 
Q 56.78125 9.90625 50.3125 4.234375 
Q 43.84375 -1.421875 31.78125 -1.421875 
Q 19.734375 -1.421875 13.25 4.234375 
Q 6.78125 9.90625 6.78125 20.515625 
Q 6.78125 27.484375 10.78125 32.3125 
Q 14.796875 37.15625 21.921875 38.8125 
z
M 18.3125 54.390625 
Q 18.3125 48.734375 21.84375 45.5625 
Q 25.390625 42.390625 31.78125 42.390625 
Q 38.140625 42.390625 41.71875 45.5625 
Q 45.3125 48.734375 45.3125 54.390625 
Q 45.3125 60.0625 41.71875 63.234375 
Q 38.140625 66.40625 31.78125 66.40625 
Q 25.390625 66.40625 21.84375 63.234375 
Q 18.3125 60.0625 18.3125 54.390625 
z
" id="DejaVuSans-56"/>
      </defs>
      <g transform="translate(18.9425 35.949656)scale(0.1 -0.1)">
       <use xlink:href="#DejaVuSans-56"/>
      </g>
     </g>
    </g>
    <g id="text_11">
     <!-- Conotype size in LT2 -->
     <defs>
      <path d="M -0.296875 72.90625 
L 61.375 72.90625 
L 61.375 64.59375 
L 35.5 64.59375 
L 35.5 0 
L 25.59375 0 
L 25.59375 64.59375 
L -0.296875 64.59375 
z
" id="DejaVuSans-84"/>
     </defs>
     <g transform="translate(13.27875 112.924312)rotate(-90)scale(0.08 -0.08)">
      <use xlink:href="#DejaVuSans-67"/>
      <use x="69.824219" xlink:href="#DejaVuSans-111"/>
      <use x="131.005859" xlink:href="#DejaVuSans-110"/>
      <use x="194.384766" xlink:href="#DejaVuSans-111"/>
      <use x="255.566406" xlink:href="#DejaVuSans-116"/>
      <use x="294.775391" xlink:href="#DejaVuSans-121"/>
      <use x="353.955078" xlink:href="#DejaVuSans-112"/>
      <use x="417.431641" xlink:href="#DejaVuSans-101"/>
      <use x="478.955078" xlink:href="#DejaVuSans-32"/>
      <use x="510.742188" xlink:href="#DejaVuSans-115"/>
      <use x="562.841797" xlink:href="#DejaVuSans-105"/>
      <use x="590.625" xlink:href="#DejaVuSans-122"/>
      <use x="643.115234" xlink:href="#DejaVuSans-101"/>
      <use x="704.638672" xlink:href="#DejaVuSans-32"/>
      <use x="736.425781" xlink:href="#DejaVuSans-105"/>
      <use x="764.208984" xlink:href="#DejaVuSans-110"/>
      <use x="827.587891" xlink:href="#DejaVuSans-32"/>
      <use x="859.375" xlink:href="#DejaVuSans-76"/>
      <use x="901.337891" xlink:href="#DejaVuSans-84"/>
      <use x="962.421875" xlink:href="#DejaVuSans-50"/>
     </g>
    </g>
   </g>
   <g id="patch_3">
    <path d="M 32.305 122.966437 
L 32.305 20.798437 
" style="fill:none;stroke:#000000;stroke-linecap:square;stroke-linejoin:miter;stroke-width:0.8;"/>
   </g>
   <g id="patch_4">
    <path d="M 32.305 122.966437 
L 180.913 122.966437 
" style="fill:none;stroke:#000000;stroke-linecap:square;stroke-linejoin:miter;stroke-width:0.8;"/>
   </g>
   <g id="text_12">
    <!-- Repertoire overlap between LN2andLT2 -->
    <defs>
     <path d="M 44.390625 34.1875 
Q 47.5625 33.109375 50.5625 29.59375 
Q 53.5625 26.078125 56.59375 19.921875 
L 66.609375 0 
L 56 0 
L 46.6875 18.703125 
Q 43.0625 26.03125 39.671875 28.421875 
Q 36.28125 30.8125 30.421875 30.8125 
L 19.671875 30.8125 
L 19.671875 0 
L 9.8125 0 
L 9.8125 72.90625 
L 32.078125 72.90625 
Q 44.578125 72.90625 50.734375 67.671875 
Q 56.890625 62.453125 56.890625 51.90625 
Q 56.890625 45.015625 53.6875 40.46875 
Q 50.484375 35.9375 44.390625 34.1875 
z
M 19.671875 64.796875 
L 19.671875 38.921875 
L 32.078125 38.921875 
Q 39.203125 38.921875 42.84375 42.21875 
Q 46.484375 45.515625 46.484375 51.90625 
Q 46.484375 58.296875 42.84375 61.546875 
Q 39.203125 64.796875 32.078125 64.796875 
z
" id="DejaVuSans-82"/>
     <path d="M 41.109375 46.296875 
Q 39.59375 47.171875 37.8125 47.578125 
Q 36.03125 48 33.890625 48 
Q 26.265625 48 22.1875 43.046875 
Q 18.109375 38.09375 18.109375 28.8125 
L 18.109375 0 
L 9.078125 0 
L 9.078125 54.6875 
L 18.109375 54.6875 
L 18.109375 46.1875 
Q 20.953125 51.171875 25.484375 53.578125 
Q 30.03125 56 36.53125 56 
Q 37.453125 56 38.578125 55.875 
Q 39.703125 55.765625 41.0625 55.515625 
z
" id="DejaVuSans-114"/>
     <path d="M 2.984375 54.6875 
L 12.5 54.6875 
L 29.59375 8.796875 
L 46.6875 54.6875 
L 56.203125 54.6875 
L 35.6875 0 
L 23.484375 0 
z
" id="DejaVuSans-118"/>
     <path d="M 9.421875 75.984375 
L 18.40625 75.984375 
L 18.40625 0 
L 9.421875 0 
z
" id="DejaVuSans-108"/>
     <path d="M 34.28125 27.484375 
Q 23.390625 27.484375 19.1875 25 
Q 14.984375 22.515625 14.984375 16.5 
Q 14.984375 11.71875 18.140625 8.90625 
Q 21.296875 6.109375 26.703125 6.109375 
Q 34.1875 6.109375 38.703125 11.40625 
Q 43.21875 16.703125 43.21875 25.484375 
L 43.21875 27.484375 
z
M 52.203125 31.203125 
L 52.203125 0 
L 43.21875 0 
L 43.21875 8.296875 
Q 40.140625 3.328125 35.546875 0.953125 
Q 30.953125 -1.421875 24.3125 -1.421875 
Q 15.921875 -1.421875 10.953125 3.296875 
Q 6 8.015625 6 15.921875 
Q 6 25.140625 12.171875 29.828125 
Q 18.359375 34.515625 30.609375 34.515625 
L 43.21875 34.515625 
L 43.21875 35.40625 
Q 43.21875 41.609375 39.140625 45 
Q 35.0625 48.390625 27.6875 48.390625 
Q 23 48.390625 18.546875 47.265625 
Q 14.109375 46.140625 10.015625 43.890625 
L 10.015625 52.203125 
Q 14.9375 54.109375 19.578125 55.046875 
Q 24.21875 56 28.609375 56 
Q 40.484375 56 46.34375 49.84375 
Q 52.203125 43.703125 52.203125 31.203125 
z
" id="DejaVuSans-97"/>
     <path d="M 48.6875 27.296875 
Q 48.6875 37.203125 44.609375 42.84375 
Q 40.53125 48.484375 33.40625 48.484375 
Q 26.265625 48.484375 22.1875 42.84375 
Q 18.109375 37.203125 18.109375 27.296875 
Q 18.109375 17.390625 22.1875 11.75 
Q 26.265625 6.109375 33.40625 6.109375 
Q 40.53125 6.109375 44.609375 11.75 
Q 48.6875 17.390625 48.6875 27.296875 
z
M 18.109375 46.390625 
Q 20.953125 51.265625 25.265625 53.625 
Q 29.59375 56 35.59375 56 
Q 45.5625 56 51.78125 48.09375 
Q 58.015625 40.1875 58.015625 27.296875 
Q 58.015625 14.40625 51.78125 6.484375 
Q 45.5625 -1.421875 35.59375 -1.421875 
Q 29.59375 -1.421875 25.265625 0.953125 
Q 20.953125 3.328125 18.109375 8.203125 
L 18.109375 0 
L 9.078125 0 
L 9.078125 75.984375 
L 18.109375 75.984375 
z
" id="DejaVuSans-98"/>
     <path d="M 4.203125 54.6875 
L 13.1875 54.6875 
L 24.421875 12.015625 
L 35.59375 54.6875 
L 46.1875 54.6875 
L 57.421875 12.015625 
L 68.609375 54.6875 
L 77.59375 54.6875 
L 63.28125 0 
L 52.6875 0 
L 40.921875 44.828125 
L 29.109375 0 
L 18.5 0 
z
" id="DejaVuSans-119"/>
     <path d="M 45.40625 46.390625 
L 45.40625 75.984375 
L 54.390625 75.984375 
L 54.390625 0 
L 45.40625 0 
L 45.40625 8.203125 
Q 42.578125 3.328125 38.25 0.953125 
Q 33.9375 -1.421875 27.875 -1.421875 
Q 17.96875 -1.421875 11.734375 6.484375 
Q 5.515625 14.40625 5.515625 27.296875 
Q 5.515625 40.1875 11.734375 48.09375 
Q 17.96875 56 27.875 56 
Q 33.9375 56 38.25 53.625 
Q 42.578125 51.265625 45.40625 46.390625 
z
M 14.796875 27.296875 
Q 14.796875 17.390625 18.875 11.75 
Q 22.953125 6.109375 30.078125 6.109375 
Q 37.203125 6.109375 41.296875 11.75 
Q 45.40625 17.390625 45.40625 27.296875 
Q 45.40625 37.203125 41.296875 42.84375 
Q 37.203125 48.484375 30.078125 48.484375 
Q 22.953125 48.484375 18.875 42.84375 
Q 14.796875 37.203125 14.796875 27.296875 
z
" id="DejaVuSans-100"/>
    </defs>
    <g transform="translate(7.933219 14.798437)scale(0.1 -0.1)">
     <use xlink:href="#DejaVuSans-82"/>
     <use x="64.982422" xlink:href="#DejaVuSans-101"/>
     <use x="126.505859" xlink:href="#DejaVuSans-112"/>
     <use x="189.982422" xlink:href="#DejaVuSans-101"/>
     <use x="251.505859" xlink:href="#DejaVuSans-114"/>
     <use x="292.619141" xlink:href="#DejaVuSans-116"/>
     <use x="331.828125" xlink:href="#DejaVuSans-111"/>
     <use x="393.009766" xlink:href="#DejaVuSans-105"/>
     <use x="420.792969" xlink:href="#DejaVuSans-114"/>
     <use x="459.65625" xlink:href="#DejaVuSans-101"/>
     <use x="521.179688" xlink:href="#DejaVuSans-32"/>
     <use x="552.966797" xlink:href="#DejaVuSans-111"/>
     <use x="614.148438" xlink:href="#DejaVuSans-118"/>
     <use x="673.328125" xlink:href="#DejaVuSans-101"/>
     <use x="734.851562" xlink:href="#DejaVuSans-114"/>
     <use x="775.964844" xlink:href="#DejaVuSans-108"/>
     <use x="803.748047" xlink:href="#DejaVuSans-97"/>
     <use x="865.027344" xlink:href="#DejaVuSans-112"/>
     <use x="928.503906" xlink:href="#DejaVuSans-32"/>
     <use x="960.291016" xlink:href="#DejaVuSans-98"/>
     <use x="1023.767578" xlink:href="#DejaVuSans-101"/>
     <use x="1085.291016" xlink:href="#DejaVuSans-116"/>
     <use x="1124.5" xlink:href="#DejaVuSans-119"/>
     <use x="1206.287109" xlink:href="#DejaVuSans-101"/>
     <use x="1267.810547" xlink:href="#DejaVuSans-101"/>
     <use x="1329.333984" xlink:href="#DejaVuSans-110"/>
     <use x="1392.712891" xlink:href="#DejaVuSans-32"/>
     <use x="1424.5" xlink:href="#DejaVuSans-76"/>
     <use x="1480.212891" xlink:href="#DejaVuSans-78"/>
     <use x="1555.017578" xlink:href="#DejaVuSans-50"/>
     <use x="1618.640625" xlink:href="#DejaVuSans-97"/>
     <use x="1679.919922" xlink:href="#DejaVuSans-110"/>
     <use x="1743.298828" xlink:href="#DejaVuSans-100"/>
     <use x="1806.775391" xlink:href="#DejaVuSans-76"/>
     <use x="1848.738281" xlink:href="#DejaVuSans-84"/>
     <use x="1909.822266" xlink:href="#DejaVuSans-50"/>
    </g>
   </g>
   <g id="legend_1"/>
  </g>
 </g>
 <defs>
  <clipPath id="pb66dbfbfd9">
   <rect height="102.168" width="148.608" x="32.305" y="20.798437"/>
  </clipPath>
 </defs>
</svg>
