<?xml version="1.0" encoding="utf-8" standalone="no"?>
<!DOCTYPE svg PUBLIC "-//W3C//DTD SVG 1.1//EN"
  "http://www.w3.org/Graphics/SVG/1.1/DTD/svg11.dtd">
<!-- Created with matplotlib (https://matplotlib.org/) -->
<svg height="181.691257pt" version="1.1" viewBox="0 0 216.84544 181.691257" width="216.84544pt" xmlns="http://www.w3.org/2000/svg" xmlns:xlink="http://www.w3.org/1999/xlink">
 <defs>
  <style type="text/css">
*{stroke-linecap:butt;stroke-linejoin:round;}
  </style>
 </defs>
 <g id="figure_1">
  <g id="patch_1">
   <path d="M 0 181.691257 
L 216.84544 181.691257 
L 216.84544 0 
L 0 0 
z
" style="fill:#ffffff;"/>
  </g>
  <g id="axes_1">
   <g id="patch_2">
    <path d="M 12.640953 150.2352 
L 204.592953 150.2352 
L 204.592953 7.2 
L 12.640953 7.2 
z
" style="fill:#ffffff;"/>
   </g>
   <g id="matplotlib.axis_1">
    <g id="xtick_1">
     <g id="text_1">
      <!-- EN3 -->
      <defs>
       <path d="M 9.8125 72.90625 
L 55.90625 72.90625 
L 55.90625 64.59375 
L 19.671875 64.59375 
L 19.671875 43.015625 
L 54.390625 43.015625 
L 54.390625 34.71875 
L 19.671875 34.71875 
L 19.671875 8.296875 
L 56.78125 8.296875 
L 56.78125 0 
L 9.8125 0 
z
" id="DejaVuSans-69"/>
       <path d="M 9.8125 72.90625 
L 23.09375 72.90625 
L 55.421875 11.921875 
L 55.421875 72.90625 
L 64.984375 72.90625 
L 64.984375 0 
L 51.703125 0 
L 19.390625 60.984375 
L 19.390625 0 
L 9.8125 0 
z
" id="DejaVuSans-78"/>
       <path d="M 40.578125 39.3125 
Q 47.65625 37.796875 51.625 33 
Q 55.609375 28.21875 55.609375 21.1875 
Q 55.609375 10.40625 48.1875 4.484375 
Q 40.765625 -1.421875 27.09375 -1.421875 
Q 22.515625 -1.421875 17.65625 -0.515625 
Q 12.796875 0.390625 7.625 2.203125 
L 7.625 11.71875 
Q 11.71875 9.328125 16.59375 8.109375 
Q 21.484375 6.890625 26.8125 6.890625 
Q 36.078125 6.890625 40.9375 10.546875 
Q 45.796875 14.203125 45.796875 21.1875 
Q 45.796875 27.640625 41.28125 31.265625 
Q 36.765625 34.90625 28.71875 34.90625 
L 20.21875 34.90625 
L 20.21875 43.015625 
L 29.109375 43.015625 
Q 36.375 43.015625 40.234375 45.921875 
Q 44.09375 48.828125 44.09375 54.296875 
Q 44.09375 59.90625 40.109375 62.90625 
Q 36.140625 65.921875 28.71875 65.921875 
Q 24.65625 65.921875 20.015625 65.03125 
Q 15.375 64.15625 9.8125 62.3125 
L 9.8125 71.09375 
Q 15.4375 72.65625 20.34375 73.4375 
Q 25.25 74.21875 29.59375 74.21875 
Q 40.828125 74.21875 47.359375 69.109375 
Q 53.90625 64.015625 53.90625 55.328125 
Q 53.90625 49.265625 50.4375 45.09375 
Q 46.96875 40.921875 40.578125 39.3125 
z
" id="DejaVuSans-51"/>
      </defs>
      <g style="fill:#72384f;" transform="translate(11.498325 172.939158)rotate(-45)scale(0.08 -0.08)">
       <use xlink:href="#DejaVuSans-69"/>
       <use x="63.183594" xlink:href="#DejaVuSans-78"/>
       <use x="137.988281" xlink:href="#DejaVuSans-51"/>
      </g>
     </g>
    </g>
    <g id="xtick_2">
     <g id="text_2">
      <!-- CN2 -->
      <defs>
       <path d="M 64.40625 67.28125 
L 64.40625 56.890625 
Q 59.421875 61.53125 53.78125 63.8125 
Q 48.140625 66.109375 41.796875 66.109375 
Q 29.296875 66.109375 22.65625 58.46875 
Q 16.015625 50.828125 16.015625 36.375 
Q 16.015625 21.96875 22.65625 14.328125 
Q 29.296875 6.6875 41.796875 6.6875 
Q 48.140625 6.6875 53.78125 8.984375 
Q 59.421875 11.28125 64.40625 15.921875 
L 64.40625 5.609375 
Q 59.234375 2.09375 53.4375 0.328125 
Q 47.65625 -1.421875 41.21875 -1.421875 
Q 24.65625 -1.421875 15.125 8.703125 
Q 5.609375 18.84375 5.609375 36.375 
Q 5.609375 53.953125 15.125 64.078125 
Q 24.65625 74.21875 41.21875 74.21875 
Q 47.75 74.21875 53.53125 72.484375 
Q 59.328125 70.75 64.40625 67.28125 
z
" id="DejaVuSans-67"/>
       <path d="M 19.1875 8.296875 
L 53.609375 8.296875 
L 53.609375 0 
L 7.328125 0 
L 7.328125 8.296875 
Q 12.9375 14.109375 22.625 23.890625 
Q 32.328125 33.6875 34.8125 36.53125 
Q 39.546875 41.84375 41.421875 45.53125 
Q 43.3125 49.21875 43.3125 52.78125 
Q 43.3125 58.59375 39.234375 62.25 
Q 35.15625 65.921875 28.609375 65.921875 
Q 23.96875 65.921875 18.8125 64.3125 
Q 13.671875 62.703125 7.8125 59.421875 
L 7.8125 69.390625 
Q 13.765625 71.78125 18.9375 73 
Q 24.125 74.21875 28.421875 74.21875 
Q 39.75 74.21875 46.484375 68.546875 
Q 53.21875 62.890625 53.21875 53.421875 
Q 53.21875 48.921875 51.53125 44.890625 
Q 49.859375 40.875 45.40625 35.40625 
Q 44.1875 33.984375 37.640625 27.21875 
Q 31.109375 20.453125 19.1875 8.296875 
z
" id="DejaVuSans-50"/>
      </defs>
      <g style="fill:#72384f;" transform="translate(17.309 173.314808)rotate(-45)scale(0.08 -0.08)">
       <use xlink:href="#DejaVuSans-67"/>
       <use x="69.824219" xlink:href="#DejaVuSans-78"/>
       <use x="144.628906" xlink:href="#DejaVuSans-50"/>
      </g>
     </g>
    </g>
    <g id="xtick_3">
     <g id="text_3">
      <!-- RN2 -->
      <defs>
       <path d="M 44.390625 34.1875 
Q 47.5625 33.109375 50.5625 29.59375 
Q 53.5625 26.078125 56.59375 19.921875 
L 66.609375 0 
L 56 0 
L 46.6875 18.703125 
Q 43.0625 26.03125 39.671875 28.421875 
Q 36.28125 30.8125 30.421875 30.8125 
L 19.671875 30.8125 
L 19.671875 0 
L 9.8125 0 
L 9.8125 72.90625 
L 32.078125 72.90625 
Q 44.578125 72.90625 50.734375 67.671875 
Q 56.890625 62.453125 56.890625 51.90625 
Q 56.890625 45.015625 53.6875 40.46875 
Q 50.484375 35.9375 44.390625 34.1875 
z
M 19.671875 64.796875 
L 19.671875 38.921875 
L 32.078125 38.921875 
Q 39.203125 38.921875 42.84375 42.21875 
Q 46.484375 45.515625 46.484375 51.90625 
Q 46.484375 58.296875 42.84375 61.546875 
Q 39.203125 64.796875 32.078125 64.796875 
z
" id="DejaVuSans-82"/>
      </defs>
      <g style="fill:#72384f;" transform="translate(23.317223 173.295363)rotate(-45)scale(0.08 -0.08)">
       <use xlink:href="#DejaVuSans-82"/>
       <use x="69.482422" xlink:href="#DejaVuSans-78"/>
       <use x="144.287109" xlink:href="#DejaVuSans-50"/>
      </g>
     </g>
    </g>
    <g id="xtick_4">
     <g id="text_4">
      <!-- RB2 -->
      <defs>
       <path d="M 19.671875 34.8125 
L 19.671875 8.109375 
L 35.5 8.109375 
Q 43.453125 8.109375 47.28125 11.40625 
Q 51.125 14.703125 51.125 21.484375 
Q 51.125 28.328125 47.28125 31.5625 
Q 43.453125 34.8125 35.5 34.8125 
z
M 19.671875 64.796875 
L 19.671875 42.828125 
L 34.28125 42.828125 
Q 41.5 42.828125 45.03125 45.53125 
Q 48.578125 48.25 48.578125 53.8125 
Q 48.578125 59.328125 45.03125 62.0625 
Q 41.5 64.796875 34.28125 64.796875 
z
M 9.8125 72.90625 
L 35.015625 72.90625 
Q 46.296875 72.90625 52.390625 68.21875 
Q 58.5 63.53125 58.5 54.890625 
Q 58.5 48.1875 55.375 44.234375 
Q 52.25 40.28125 46.1875 39.3125 
Q 53.46875 37.75 57.5 32.78125 
Q 61.53125 27.828125 61.53125 20.40625 
Q 61.53125 10.640625 54.890625 5.3125 
Q 48.25 0 35.984375 0 
L 9.8125 0 
z
" id="DejaVuSans-66"/>
      </defs>
      <g style="fill:#c6b08d;" transform="translate(29.491174 172.944461)rotate(-45)scale(0.08 -0.08)">
       <use xlink:href="#DejaVuSans-82"/>
       <use x="69.482422" xlink:href="#DejaVuSans-66"/>
       <use x="138.085938" xlink:href="#DejaVuSans-50"/>
      </g>
     </g>
    </g>
    <g id="xtick_5">
     <g id="text_5">
      <!-- RT2 -->
      <defs>
       <path d="M -0.296875 72.90625 
L 61.375 72.90625 
L 61.375 64.59375 
L 35.5 64.59375 
L 35.5 0 
L 25.59375 0 
L 25.59375 64.59375 
L -0.296875 64.59375 
z
" id="DejaVuSans-84"/>
      </defs>
      <g style="fill:#569198;" transform="translate(35.907751 172.108307)rotate(-45)scale(0.08 -0.08)">
       <use xlink:href="#DejaVuSans-82"/>
       <use x="62.232422" xlink:href="#DejaVuSans-84"/>
       <use x="123.316406" xlink:href="#DejaVuSans-50"/>
      </g>
     </g>
    </g>
    <g id="xtick_6">
     <g id="text_6">
      <!-- LN2 -->
      <defs>
       <path d="M 9.8125 72.90625 
L 19.671875 72.90625 
L 19.671875 8.296875 
L 55.171875 8.296875 
L 55.171875 0 
L 9.8125 0 
z
" id="DejaVuSans-76"/>
      </defs>
      <g style="fill:#72384f;" transform="translate(41.702073 172.516661)rotate(-45)scale(0.08 -0.08)">
       <use xlink:href="#DejaVuSans-76"/>
       <use x="55.712891" xlink:href="#DejaVuSans-78"/>
       <use x="130.517578" xlink:href="#DejaVuSans-50"/>
      </g>
     </g>
    </g>
    <g id="xtick_7">
     <g id="text_7">
      <!-- LT2 -->
      <g style="fill:#569198;" transform="translate(48.477949 170.96191)rotate(-45)scale(0.08 -0.08)">
       <use xlink:href="#DejaVuSans-76"/>
       <use x="41.962891" xlink:href="#DejaVuSans-84"/>
       <use x="103.046875" xlink:href="#DejaVuSans-50"/>
      </g>
     </g>
    </g>
    <g id="xtick_8">
     <g id="text_8">
      <!-- LN5 -->
      <defs>
       <path d="M 10.796875 72.90625 
L 49.515625 72.90625 
L 49.515625 64.59375 
L 19.828125 64.59375 
L 19.828125 46.734375 
Q 21.96875 47.46875 24.109375 47.828125 
Q 26.265625 48.1875 28.421875 48.1875 
Q 40.625 48.1875 47.75 41.5 
Q 54.890625 34.8125 54.890625 23.390625 
Q 54.890625 11.625 47.5625 5.09375 
Q 40.234375 -1.421875 26.90625 -1.421875 
Q 22.3125 -1.421875 17.546875 -0.640625 
Q 12.796875 0.140625 7.71875 1.703125 
L 7.71875 11.625 
Q 12.109375 9.234375 16.796875 8.0625 
Q 21.484375 6.890625 26.703125 6.890625 
Q 35.15625 6.890625 40.078125 11.328125 
Q 45.015625 15.765625 45.015625 23.390625 
Q 45.015625 31 40.078125 35.4375 
Q 35.15625 39.890625 26.703125 39.890625 
Q 22.75 39.890625 18.8125 39.015625 
Q 14.890625 38.140625 10.796875 36.28125 
z
" id="DejaVuSans-53"/>
      </defs>
      <g style="fill:#72384f;" transform="translate(53.699073 172.516661)rotate(-45)scale(0.08 -0.08)">
       <use xlink:href="#DejaVuSans-76"/>
       <use x="55.712891" xlink:href="#DejaVuSans-78"/>
       <use x="130.517578" xlink:href="#DejaVuSans-53"/>
      </g>
     </g>
    </g>
    <g id="xtick_9">
     <g id="text_9">
      <!-- LT5 -->
      <g style="fill:#569198;" transform="translate(60.474949 170.96191)rotate(-45)scale(0.08 -0.08)">
       <use xlink:href="#DejaVuSans-76"/>
       <use x="41.962891" xlink:href="#DejaVuSans-84"/>
       <use x="103.046875" xlink:href="#DejaVuSans-53"/>
      </g>
     </g>
    </g>
    <g id="xtick_10">
     <g id="text_10">
      <!-- EN2 -->
      <g style="fill:#72384f;" transform="translate(65.484825 172.939158)rotate(-45)scale(0.08 -0.08)">
       <use xlink:href="#DejaVuSans-69"/>
       <use x="63.183594" xlink:href="#DejaVuSans-78"/>
       <use x="137.988281" xlink:href="#DejaVuSans-50"/>
      </g>
     </g>
    </g>
    <g id="xtick_11">
     <g id="text_11">
      <!-- CN1 -->
      <defs>
       <path d="M 12.40625 8.296875 
L 28.515625 8.296875 
L 28.515625 63.921875 
L 10.984375 60.40625 
L 10.984375 69.390625 
L 28.421875 72.90625 
L 38.28125 72.90625 
L 38.28125 8.296875 
L 54.390625 8.296875 
L 54.390625 0 
L 12.40625 0 
z
" id="DejaVuSans-49"/>
      </defs>
      <g style="fill:#72384f;" transform="translate(71.2955 173.314808)rotate(-45)scale(0.08 -0.08)">
       <use xlink:href="#DejaVuSans-67"/>
       <use x="69.824219" xlink:href="#DejaVuSans-78"/>
       <use x="144.628906" xlink:href="#DejaVuSans-49"/>
      </g>
     </g>
    </g>
    <g id="xtick_12">
     <g id="text_12">
      <!-- CT1 -->
      <g style="fill:#569198;" transform="translate(77.682467 172.537875)rotate(-45)scale(0.08 -0.08)">
       <use xlink:href="#DejaVuSans-67"/>
       <use x="69.824219" xlink:href="#DejaVuSans-84"/>
       <use x="130.908203" xlink:href="#DejaVuSans-49"/>
      </g>
     </g>
    </g>
    <g id="xtick_13">
     <g id="text_13">
      <!-- LN1 -->
      <g style="fill:#72384f;" transform="translate(83.691573 172.516661)rotate(-45)scale(0.08 -0.08)">
       <use xlink:href="#DejaVuSans-76"/>
       <use x="55.712891" xlink:href="#DejaVuSans-78"/>
       <use x="130.517578" xlink:href="#DejaVuSans-49"/>
      </g>
     </g>
    </g>
    <g id="xtick_14">
     <g id="text_14">
      <!-- LT1 -->
      <g style="fill:#569198;" transform="translate(90.467449 170.96191)rotate(-45)scale(0.08 -0.08)">
       <use xlink:href="#DejaVuSans-76"/>
       <use x="41.962891" xlink:href="#DejaVuSans-84"/>
       <use x="103.046875" xlink:href="#DejaVuSans-49"/>
      </g>
     </g>
    </g>
    <g id="xtick_15">
     <g id="text_15">
      <!-- LT6 -->
      <defs>
       <path d="M 33.015625 40.375 
Q 26.375 40.375 22.484375 35.828125 
Q 18.609375 31.296875 18.609375 23.390625 
Q 18.609375 15.53125 22.484375 10.953125 
Q 26.375 6.390625 33.015625 6.390625 
Q 39.65625 6.390625 43.53125 10.953125 
Q 47.40625 15.53125 47.40625 23.390625 
Q 47.40625 31.296875 43.53125 35.828125 
Q 39.65625 40.375 33.015625 40.375 
z
M 52.59375 71.296875 
L 52.59375 62.3125 
Q 48.875 64.0625 45.09375 64.984375 
Q 41.3125 65.921875 37.59375 65.921875 
Q 27.828125 65.921875 22.671875 59.328125 
Q 17.53125 52.734375 16.796875 39.40625 
Q 19.671875 43.65625 24.015625 45.921875 
Q 28.375 48.1875 33.59375 48.1875 
Q 44.578125 48.1875 50.953125 41.515625 
Q 57.328125 34.859375 57.328125 23.390625 
Q 57.328125 12.15625 50.6875 5.359375 
Q 44.046875 -1.421875 33.015625 -1.421875 
Q 20.359375 -1.421875 13.671875 8.265625 
Q 6.984375 17.96875 6.984375 36.375 
Q 6.984375 53.65625 15.1875 63.9375 
Q 23.390625 74.21875 37.203125 74.21875 
Q 40.921875 74.21875 44.703125 73.484375 
Q 48.484375 72.75 52.59375 71.296875 
z
" id="DejaVuSans-54"/>
      </defs>
      <g style="fill:#569198;" transform="translate(96.465949 170.96191)rotate(-45)scale(0.08 -0.08)">
       <use xlink:href="#DejaVuSans-76"/>
       <use x="41.962891" xlink:href="#DejaVuSans-84"/>
       <use x="103.046875" xlink:href="#DejaVuSans-54"/>
      </g>
     </g>
    </g>
    <g id="xtick_16">
     <g id="text_16">
      <!-- LB6 -->
      <g style="fill:#c6b08d;" transform="translate(101.862524 172.16576)rotate(-45)scale(0.08 -0.08)">
       <use xlink:href="#DejaVuSans-76"/>
       <use x="55.712891" xlink:href="#DejaVuSans-66"/>
       <use x="124.316406" xlink:href="#DejaVuSans-54"/>
      </g>
     </g>
    </g>
    <g id="xtick_17">
     <g id="text_17">
      <!-- ET3 -->
      <g style="fill:#569198;" transform="translate(107.862792 172.162224)rotate(-45)scale(0.08 -0.08)">
       <use xlink:href="#DejaVuSans-69"/>
       <use x="63.183594" xlink:href="#DejaVuSans-84"/>
       <use x="124.267578" xlink:href="#DejaVuSans-51"/>
      </g>
     </g>
    </g>
    <g id="xtick_18">
     <g id="text_18">
      <!-- RN1 -->
      <g style="fill:#72384f;" transform="translate(113.294723 173.295363)rotate(-45)scale(0.08 -0.08)">
       <use xlink:href="#DejaVuSans-82"/>
       <use x="69.482422" xlink:href="#DejaVuSans-78"/>
       <use x="144.287109" xlink:href="#DejaVuSans-49"/>
      </g>
     </g>
    </g>
    <g id="xtick_19">
     <g id="text_19">
      <!-- RB1 -->
      <g style="fill:#c6b08d;" transform="translate(119.468674 172.944461)rotate(-45)scale(0.08 -0.08)">
       <use xlink:href="#DejaVuSans-82"/>
       <use x="69.482422" xlink:href="#DejaVuSans-66"/>
       <use x="138.085938" xlink:href="#DejaVuSans-49"/>
      </g>
     </g>
    </g>
    <g id="xtick_20">
     <g id="text_20">
      <!-- RT1 -->
      <g style="fill:#569198;" transform="translate(125.885251 172.108307)rotate(-45)scale(0.08 -0.08)">
       <use xlink:href="#DejaVuSans-82"/>
       <use x="62.232422" xlink:href="#DejaVuSans-84"/>
       <use x="123.316406" xlink:href="#DejaVuSans-49"/>
      </g>
     </g>
    </g>
    <g id="xtick_21">
     <g id="text_21">
      <!-- CT2 -->
      <g style="fill:#569198;" transform="translate(131.668967 172.537875)rotate(-45)scale(0.08 -0.08)">
       <use xlink:href="#DejaVuSans-67"/>
       <use x="69.824219" xlink:href="#DejaVuSans-84"/>
       <use x="130.908203" xlink:href="#DejaVuSans-50"/>
      </g>
     </g>
    </g>
    <g id="xtick_22">
     <g id="text_22">
      <!-- RN3 -->
      <g style="fill:#72384f;" transform="translate(137.288723 173.295363)rotate(-45)scale(0.08 -0.08)">
       <use xlink:href="#DejaVuSans-82"/>
       <use x="69.482422" xlink:href="#DejaVuSans-78"/>
       <use x="144.287109" xlink:href="#DejaVuSans-51"/>
      </g>
     </g>
    </g>
    <g id="xtick_23">
     <g id="text_23">
      <!-- RB3 -->
      <g style="fill:#c6b08d;" transform="translate(143.462674 172.944461)rotate(-45)scale(0.08 -0.08)">
       <use xlink:href="#DejaVuSans-82"/>
       <use x="69.482422" xlink:href="#DejaVuSans-66"/>
       <use x="138.085938" xlink:href="#DejaVuSans-51"/>
      </g>
     </g>
    </g>
    <g id="xtick_24">
     <g id="text_24">
      <!-- RT3 -->
      <g style="fill:#569198;" transform="translate(149.879251 172.108307)rotate(-45)scale(0.08 -0.08)">
       <use xlink:href="#DejaVuSans-82"/>
       <use x="62.232422" xlink:href="#DejaVuSans-84"/>
       <use x="123.316406" xlink:href="#DejaVuSans-51"/>
      </g>
     </g>
    </g>
    <g id="xtick_25">
     <g id="text_25">
      <!-- LN6 -->
      <g style="fill:#72384f;" transform="translate(155.673573 172.516661)rotate(-45)scale(0.08 -0.08)">
       <use xlink:href="#DejaVuSans-76"/>
       <use x="55.712891" xlink:href="#DejaVuSans-78"/>
       <use x="130.517578" xlink:href="#DejaVuSans-54"/>
      </g>
     </g>
    </g>
    <g id="xtick_26">
     <g id="text_26">
      <!-- LN3 -->
      <g style="fill:#72384f;" transform="translate(161.672073 172.516661)rotate(-45)scale(0.08 -0.08)">
       <use xlink:href="#DejaVuSans-76"/>
       <use x="55.712891" xlink:href="#DejaVuSans-78"/>
       <use x="130.517578" xlink:href="#DejaVuSans-51"/>
      </g>
     </g>
    </g>
    <g id="xtick_27">
     <g id="text_27">
      <!-- LT3 -->
      <g style="fill:#569198;" transform="translate(168.447949 170.96191)rotate(-45)scale(0.08 -0.08)">
       <use xlink:href="#DejaVuSans-76"/>
       <use x="41.962891" xlink:href="#DejaVuSans-84"/>
       <use x="103.046875" xlink:href="#DejaVuSans-51"/>
      </g>
     </g>
    </g>
    <g id="xtick_28">
     <g id="text_28">
      <!-- LN4 -->
      <defs>
       <path d="M 37.796875 64.3125 
L 12.890625 25.390625 
L 37.796875 25.390625 
z
M 35.203125 72.90625 
L 47.609375 72.90625 
L 47.609375 25.390625 
L 58.015625 25.390625 
L 58.015625 17.1875 
L 47.609375 17.1875 
L 47.609375 0 
L 37.796875 0 
L 37.796875 17.1875 
L 4.890625 17.1875 
L 4.890625 26.703125 
z
" id="DejaVuSans-52"/>
      </defs>
      <g style="fill:#72384f;" transform="translate(173.669073 172.516661)rotate(-45)scale(0.08 -0.08)">
       <use xlink:href="#DejaVuSans-76"/>
       <use x="55.712891" xlink:href="#DejaVuSans-78"/>
       <use x="130.517578" xlink:href="#DejaVuSans-52"/>
      </g>
     </g>
    </g>
    <g id="xtick_29">
     <g id="text_29">
      <!-- LT4 -->
      <g style="fill:#569198;" transform="translate(180.444949 170.96191)rotate(-45)scale(0.08 -0.08)">
       <use xlink:href="#DejaVuSans-76"/>
       <use x="41.962891" xlink:href="#DejaVuSans-84"/>
       <use x="103.046875" xlink:href="#DejaVuSans-52"/>
      </g>
     </g>
    </g>
    <g id="xtick_30">
     <g id="text_30">
      <!-- ET2 -->
      <g style="fill:#569198;" transform="translate(185.843292 172.162224)rotate(-45)scale(0.08 -0.08)">
       <use xlink:href="#DejaVuSans-69"/>
       <use x="63.183594" xlink:href="#DejaVuSans-84"/>
       <use x="124.267578" xlink:href="#DejaVuSans-50"/>
      </g>
     </g>
    </g>
    <g id="xtick_31">
     <g id="text_31">
      <!-- EN1 -->
      <g style="fill:#72384f;" transform="translate(191.453325 172.939158)rotate(-45)scale(0.08 -0.08)">
       <use xlink:href="#DejaVuSans-69"/>
       <use x="63.183594" xlink:href="#DejaVuSans-78"/>
       <use x="137.988281" xlink:href="#DejaVuSans-49"/>
      </g>
     </g>
    </g>
    <g id="xtick_32">
     <g id="text_32">
      <!-- ET1 -->
      <g style="fill:#569198;" transform="translate(197.840292 172.162224)rotate(-45)scale(0.08 -0.08)">
       <use xlink:href="#DejaVuSans-69"/>
       <use x="63.183594" xlink:href="#DejaVuSans-84"/>
       <use x="124.267578" xlink:href="#DejaVuSans-49"/>
      </g>
     </g>
    </g>
   </g>
   <g id="matplotlib.axis_2"/>
   <g id="LineCollection_1">
    <path clip-path="url(#p32ee11a88c)" d="M 33.635703 150.2352 
L 33.635703 28.681477 
L 39.634203 28.681477 
L 39.634203 150.2352 
" style="fill:none;stroke:#0000ff;stroke-width:1.5;"/>
    <path clip-path="url(#p32ee11a88c)" d="M 27.637203 150.2352 
L 27.637203 21.475529 
L 36.634953 21.475529 
L 36.634953 28.681477 
" style="fill:none;stroke:#0000ff;stroke-width:1.5;"/>
    <path clip-path="url(#p32ee11a88c)" d="M 45.632703 150.2352 
L 45.632703 19.426833 
L 51.631203 19.426833 
L 51.631203 150.2352 
" style="fill:none;stroke:#0000ff;stroke-width:1.5;"/>
    <path clip-path="url(#p32ee11a88c)" d="M 57.629703 150.2352 
L 57.629703 17.988543 
L 63.628203 17.988543 
L 63.628203 150.2352 
" style="fill:none;stroke:#0000ff;stroke-width:1.5;"/>
    <path clip-path="url(#p32ee11a88c)" d="M 75.625203 150.2352 
L 75.625203 17.903314 
L 81.623703 17.903314 
L 81.623703 150.2352 
" style="fill:none;stroke:#0000ff;stroke-width:1.5;"/>
    <path clip-path="url(#p32ee11a88c)" d="M 87.622203 150.2352 
L 87.622203 19.225516 
L 93.620703 19.225516 
L 93.620703 150.2352 
" style="fill:none;stroke:#0000ff;stroke-width:1.5;"/>
    <path clip-path="url(#p32ee11a88c)" d="M 123.613203 150.2352 
L 123.613203 27.410282 
L 129.611703 27.410282 
L 129.611703 150.2352 
" style="fill:none;stroke:#0000ff;stroke-width:1.5;"/>
    <path clip-path="url(#p32ee11a88c)" d="M 117.614703 150.2352 
L 117.614703 18.9648 
L 126.612453 18.9648 
L 126.612453 27.410282 
" style="fill:none;stroke:#0000ff;stroke-width:1.5;"/>
    <path clip-path="url(#p32ee11a88c)" d="M 147.607203 150.2352 
L 147.607203 22.895374 
L 153.605703 22.895374 
L 153.605703 150.2352 
" style="fill:none;stroke:#0000ff;stroke-width:1.5;"/>
    <path clip-path="url(#p32ee11a88c)" d="M 141.608703 150.2352 
L 141.608703 19.056533 
L 150.606453 19.056533 
L 150.606453 22.895374 
" style="fill:none;stroke:#0000ff;stroke-width:1.5;"/>
    <path clip-path="url(#p32ee11a88c)" d="M 135.610203 150.2352 
L 135.610203 18.1392 
L 146.107578 18.1392 
L 146.107578 19.056533 
" style="fill:none;stroke:#0000ff;stroke-width:1.5;"/>
    <path clip-path="url(#p32ee11a88c)" d="M 122.113578 18.9648 
L 122.113578 17.903314 
L 140.858891 17.903314 
L 140.858891 18.1392 
" style="fill:none;stroke:#0000ff;stroke-width:1.5;"/>
    <path clip-path="url(#p32ee11a88c)" d="M 165.602703 150.2352 
L 165.602703 17.737692 
L 171.601203 17.737692 
L 171.601203 150.2352 
" style="fill:none;stroke:#0000ff;stroke-width:1.5;"/>
    <path clip-path="url(#p32ee11a88c)" d="M 195.595203 150.2352 
L 195.595203 18.89816 
L 201.593703 18.89816 
L 201.593703 150.2352 
" style="fill:none;stroke:#0000ff;stroke-width:1.5;"/>
    <path clip-path="url(#p32ee11a88c)" d="M 189.596703 150.2352 
L 189.596703 18.290488 
L 198.594453 18.290488 
L 198.594453 18.89816 
" style="fill:none;stroke:#0000ff;stroke-width:1.5;"/>
    <path clip-path="url(#p32ee11a88c)" d="M 183.598203 150.2352 
L 183.598203 18.181322 
L 194.095578 18.181322 
L 194.095578 18.290488 
" style="fill:none;stroke:#0000ff;stroke-width:1.5;"/>
    <path clip-path="url(#p32ee11a88c)" d="M 177.599703 150.2352 
L 177.599703 17.270147 
L 188.846891 17.270147 
L 188.846891 18.181322 
" style="fill:none;stroke:#0000ff;stroke-width:1.5;"/>
    <path clip-path="url(#p32ee11a88c)" d="M 168.601953 17.737692 
L 168.601953 17.26431 
L 183.223297 17.26431 
L 183.223297 17.270147 
" style="fill:none;stroke:#0000ff;stroke-width:1.5;"/>
    <path clip-path="url(#p32ee11a88c)" d="M 159.604203 150.2352 
L 159.604203 17.025005 
L 175.912625 17.025005 
L 175.912625 17.26431 
" style="fill:none;stroke:#0000ff;stroke-width:1.5;"/>
    <path clip-path="url(#p32ee11a88c)" d="M 131.486235 17.903314 
L 131.486235 17.005134 
L 167.758414 17.005134 
L 167.758414 17.025005 
" style="fill:none;stroke:#0000ff;stroke-width:1.5;"/>
    <path clip-path="url(#p32ee11a88c)" d="M 111.616203 150.2352 
L 111.616203 16.909583 
L 149.622324 16.909583 
L 149.622324 17.005134 
" style="fill:none;stroke:#0000ff;stroke-width:1.5;"/>
    <path clip-path="url(#p32ee11a88c)" d="M 105.617703 150.2352 
L 105.617703 16.630892 
L 130.619264 16.630892 
L 130.619264 16.909583 
" style="fill:none;stroke:#0000ff;stroke-width:1.5;"/>
    <path clip-path="url(#p32ee11a88c)" d="M 99.619203 150.2352 
L 99.619203 16.522241 
L 118.118484 16.522241 
L 118.118484 16.630892 
" style="fill:none;stroke:#0000ff;stroke-width:1.5;"/>
    <path clip-path="url(#p32ee11a88c)" d="M 90.621453 19.225516 
L 90.621453 16.465686 
L 108.868843 16.465686 
L 108.868843 16.522241 
" style="fill:none;stroke:#0000ff;stroke-width:1.5;"/>
    <path clip-path="url(#p32ee11a88c)" d="M 78.624453 17.903314 
L 78.624453 16.320081 
L 99.745148 16.320081 
L 99.745148 16.465686 
" style="fill:none;stroke:#0000ff;stroke-width:1.5;"/>
    <path clip-path="url(#p32ee11a88c)" d="M 69.626703 150.2352 
L 69.626703 16.059681 
L 89.184801 16.059681 
L 89.184801 16.320081 
" style="fill:none;stroke:#0000ff;stroke-width:1.5;"/>
    <path clip-path="url(#p32ee11a88c)" d="M 60.628953 17.988543 
L 60.628953 16.034329 
L 79.405752 16.034329 
L 79.405752 16.059681 
" style="fill:none;stroke:#0000ff;stroke-width:1.5;"/>
    <path clip-path="url(#p32ee11a88c)" d="M 48.631953 19.426833 
L 48.631953 15.962833 
L 70.017353 15.962833 
L 70.017353 16.034329 
" style="fill:none;stroke:#0000ff;stroke-width:1.5;"/>
    <path clip-path="url(#p32ee11a88c)" d="M 32.136078 21.475529 
L 32.136078 15.82752 
L 59.324653 15.82752 
L 59.324653 15.962833 
" style="fill:none;stroke:#0000ff;stroke-width:1.5;"/>
    <path clip-path="url(#p32ee11a88c)" d="M 21.638703 150.2352 
L 21.638703 14.0112 
L 45.730366 14.0112 
L 45.730366 15.82752 
" style="fill:none;stroke:#0000ff;stroke-width:1.5;"/>
    <path clip-path="url(#p32ee11a88c)" d="M 15.640203 150.2352 
L 15.640203 14.0112 
L 33.684534 14.0112 
L 33.684534 14.0112 
" style="fill:none;stroke:#0000ff;stroke-width:1.5;"/>
   </g>
  </g>
 </g>
 <defs>
  <clipPath id="p32ee11a88c">
   <rect height="143.0352" width="191.952" x="12.640953" y="7.2"/>
  </clipPath>
 </defs>
</svg>
